<svg width="735" height="788" viewBox="0 0 735 788" fill="none" xmlns="http://www.w3.org/2000/svg">
<path d="M427.867 168.326C427.012 171.756 427.192 175.363 428.387 178.69C429.581 182.018 431.735 184.917 434.577 187.02C437.419 189.123 440.82 190.336 444.352 190.506C447.883 190.676 451.385 189.795 454.416 187.975C457.446 186.154 459.869 183.476 461.377 180.278C462.886 177.081 463.412 173.508 462.89 170.011C462.368 166.515 460.82 163.252 458.444 160.634C456.067 158.017 452.967 156.164 449.537 155.308C444.937 154.161 440.07 154.888 436.006 157.329C431.942 159.77 429.015 163.726 427.867 168.326" stroke="#85BD4B" stroke-width="2"/>
<path d="M649.221 513.008C637.034 513.038 621.389 510.62 619.816 518.876C618.243 527.132 619.966 540.739 619.966 540.739C619.832 545.703 617.93 550.455 614.602 554.14C614.343 554.414 614.099 554.704 613.874 555.007C609.445 560.658 613.53 563.877 609.107 570.015C608.794 570.449 608.451 570.9 608.09 571.322C603.168 577.208 594.59 582.36 588.694 590.818C586.191 594.389 586.694 599.965 586.926 606.624C587.245 616.939 586.962 629.662 573.921 642.043C560.518 654.743 544.382 646.292 508.906 637.929C473.43 629.566 466.604 622.26 443.077 653.493L442.373 654.469C425.923 676.516 403.05 715.077 390.754 736.266C377.159 723.785 366.191 708.718 358.492 691.945C350.793 675.173 346.518 657.033 345.917 638.587C345.316 620.142 348.402 601.762 354.993 584.524C361.584 567.286 371.548 551.537 384.302 538.198C374.154 531.676 366.088 522.384 361.059 511.42C356.03 500.456 354.248 488.281 355.924 476.336C357.601 464.391 362.665 453.176 370.518 444.02C378.371 434.865 388.683 428.151 400.234 424.675C389.246 409.151 383.127 390.707 382.657 371.693C382.187 352.68 387.387 333.956 397.594 317.908C407.802 301.86 422.555 289.213 439.975 281.578C457.395 273.943 476.693 271.666 495.411 275.036C496.373 272.41 497.438 269.887 498.617 267.417C508.704 246.051 525.885 228.842 547.235 218.721C568.584 208.599 592.782 206.19 615.708 211.904C618.117 212.505 620.526 213.106 622.718 213.96C628.503 222.565 633.737 231.528 638.388 240.795C643.359 250.338 647.322 260.374 650.212 270.739C654.454 288.403 660.833 348.998 656.567 366.715C656.463 367.294 656.321 367.866 656.141 368.426C651.289 382.747 639.658 386.805 641.808 399.726C641.971 400.509 642.141 401.37 642.364 402.219C642.364 402.219 667.417 489.196 666.452 497.066C665.486 504.936 661.456 513.091 649.251 513.092" stroke="#85BD4B" stroke-width="2"/>
<path d="M216.631 391.903C211.92 390.727 207.662 388.181 204.397 384.586C201.132 380.991 199.007 376.509 198.29 371.706C197.572 366.903 198.295 361.995 200.367 357.603C202.439 353.211 205.767 349.532 209.93 347.031C214.093 344.531 218.904 343.321 223.754 343.554C228.605 343.788 233.277 345.454 237.181 348.343C241.084 351.232 244.043 355.214 245.684 359.784C247.324 364.355 247.573 369.31 246.397 374.022C245.617 377.15 244.228 380.094 242.31 382.686C240.392 385.278 237.982 387.466 235.218 389.127C232.454 390.787 229.39 391.887 226.201 392.363C223.012 392.84 219.76 392.683 216.631 391.903" stroke="#85BD4B" stroke-width="2"/>
<path d="M256.831 449.241C255.754 453.557 255.981 458.096 257.484 462.283C258.987 466.47 261.698 470.118 265.274 472.764C268.85 475.411 273.13 476.937 277.573 477.151C282.017 477.365 286.424 476.257 290.238 473.966C294.051 471.675 297.1 468.305 298.998 464.281C300.896 460.258 301.558 455.762 300.901 451.362C300.244 446.962 298.297 442.856 295.306 439.563C292.315 436.269 288.415 433.937 284.098 432.86C278.31 431.416 272.186 432.331 267.072 435.403C261.958 438.475 258.274 443.453 256.831 449.241" stroke="#85BD4B" stroke-width="2"/>
<path d="M313.877 189.864C312.026 197.344 312.434 205.206 315.05 212.454C317.665 219.703 322.37 226.013 328.571 230.589C334.772 235.164 342.189 237.799 349.887 238.16C357.584 238.521 365.216 236.593 371.818 232.618C378.419 228.644 383.695 222.802 386.978 215.83C390.261 208.858 391.403 201.07 390.261 193.449C389.12 185.828 385.744 178.717 380.562 173.014C375.38 167.31 368.624 163.271 361.147 161.406C351.117 158.904 340.504 160.489 331.642 165.813C322.781 171.136 316.397 179.762 313.895 189.792" stroke="#85BD4B" stroke-width="2"/>
<path d="M264.524 127.583C263.693 130.912 263.867 134.414 265.024 137.645C266.18 140.876 268.268 143.692 271.022 145.739C273.777 147.785 277.076 148.97 280.504 149.144C283.931 149.319 287.334 148.474 290.282 146.717C293.23 144.96 295.592 142.37 297.07 139.273C298.548 136.176 299.076 132.71 298.587 129.313C298.098 125.916 296.615 122.74 294.324 120.185C292.032 117.63 289.036 115.811 285.712 114.957C281.24 113.841 276.508 114.548 272.557 116.921C268.606 119.295 265.759 123.141 264.644 127.613" stroke="#85BD4B" stroke-width="2"/>
<path d="M228.881 215.181C227.403 221.108 227.716 227.34 229.779 233.089C231.843 238.838 235.565 243.847 240.475 247.48C245.384 251.114 251.262 253.211 257.363 253.504C263.464 253.798 269.515 252.276 274.752 249.13C279.988 245.985 284.174 241.357 286.78 235.833C289.386 230.308 290.295 224.135 289.393 218.094C288.491 212.052 285.817 206.414 281.711 201.892C277.604 197.371 272.249 194.168 266.322 192.69C258.375 190.707 249.965 191.963 242.944 196.181C235.922 200.399 230.864 207.234 228.881 215.181" stroke="#85BD4B" stroke-width="2"/>
<path d="M263.252 240.386C261.01 249.376 261.483 258.83 264.614 267.55C267.744 276.271 273.39 283.868 280.837 289.38C288.285 294.892 297.2 298.072 306.455 298.518C315.71 298.963 324.889 296.654 332.832 291.883C340.774 287.112 347.124 280.092 351.077 271.712C355.03 263.332 356.41 253.968 355.041 244.804C353.672 235.64 349.617 227.088 343.388 220.229C337.159 213.37 329.035 208.512 320.045 206.269C307.99 203.262 295.234 205.167 284.583 211.565C273.932 217.964 266.259 228.331 263.252 240.386Z" fill="white"/>
<path d="M263.252 240.386C261.01 249.376 261.483 258.83 264.614 267.55C267.744 276.271 273.39 283.868 280.837 289.38C288.285 294.892 297.2 298.072 306.455 298.518C315.71 298.963 324.889 296.654 332.832 291.883C340.774 287.112 347.124 280.092 351.077 271.712C355.03 263.332 356.41 253.968 355.041 244.804C353.672 235.64 349.617 227.088 343.388 220.229C337.159 213.37 329.035 208.512 320.045 206.269C307.99 203.262 295.234 205.167 284.583 211.565C273.932 217.964 266.259 228.331 263.252 240.386" stroke="#85BD4B" stroke-width="2"/>
<path d="M420.924 245.402C419.045 252.953 419.448 260.891 422.079 268.213C424.711 275.535 429.455 281.912 435.71 286.539C441.966 291.165 449.453 293.834 457.224 294.207C464.996 294.58 472.704 292.64 479.373 288.633C486.043 284.627 491.375 278.733 494.696 271.696C498.017 264.66 499.177 256.797 498.03 249.102C496.883 241.406 493.481 234.223 488.253 228.461C483.025 222.698 476.206 218.615 468.657 216.727C463.64 215.469 458.424 215.213 453.308 215.974C448.191 216.735 443.275 218.498 438.841 221.161C434.407 223.825 430.542 227.337 427.467 231.497C424.393 235.657 422.169 240.382 420.924 245.402Z" fill="white" stroke="#85BD4B" stroke-width="2"/>
<path d="M297.762 368.845C294.844 380.546 295.46 392.85 299.534 404.201C303.608 415.551 310.957 425.439 320.65 432.613C330.344 439.787 341.947 443.926 353.992 444.506C366.038 445.086 377.985 442.081 388.323 435.87C398.66 429.66 406.924 420.524 412.07 409.617C417.215 398.711 419.011 386.523 417.229 374.596C415.448 362.668 410.17 351.537 402.062 342.61C393.955 333.682 383.382 327.359 371.681 324.441C355.991 320.534 339.391 323.016 325.53 331.343C311.67 339.669 301.682 353.158 297.762 368.845Z" fill="white"/>
<path d="M297.762 368.845C294.844 380.546 295.46 392.85 299.534 404.201C303.608 415.551 310.957 425.439 320.65 432.613C330.344 439.787 341.947 443.926 353.992 444.506C366.038 445.086 377.985 442.081 388.323 435.87C398.66 429.66 406.924 420.524 412.07 409.617C417.215 398.711 419.011 386.523 417.229 374.596C415.448 362.668 410.17 351.537 402.062 342.61C393.955 333.682 383.382 327.359 371.681 324.441C355.991 320.534 339.391 323.016 325.53 331.343C311.67 339.669 301.682 353.158 297.762 368.845" stroke="#85BD4B" stroke-width="2"/>
<path d="M358.554 298.394C355.595 310.214 356.209 322.646 360.317 334.117C364.425 345.588 371.843 355.582 381.633 362.837C391.422 370.091 403.143 374.279 415.313 374.871C427.483 375.463 439.555 372.432 450.003 366.162C460.45 359.892 468.803 350.664 474.005 339.646C479.206 328.628 481.024 316.314 479.226 304.263C477.429 292.212 472.098 280.965 463.907 271.944C455.717 262.923 445.035 256.534 433.212 253.586C425.366 251.625 417.21 251.23 409.211 252.422C401.212 253.614 393.526 256.371 386.592 260.534C379.659 264.697 373.613 270.186 368.801 276.686C363.989 283.186 360.505 290.571 358.548 298.418" fill="white"/>
<path d="M358.554 298.394C355.595 310.214 356.209 322.646 360.317 334.117C364.425 345.588 371.843 355.582 381.633 362.837C391.422 370.091 403.143 374.279 415.313 374.871C427.483 375.463 439.555 372.432 450.003 366.162C460.45 359.892 468.803 350.664 474.005 339.646C479.206 328.628 481.024 316.314 479.226 304.263C477.429 292.212 472.098 280.965 463.907 271.944C455.717 262.923 445.035 256.534 433.212 253.586C425.366 251.625 417.21 251.23 409.211 252.422C401.212 253.614 393.526 256.371 386.592 260.534C379.659 264.697 373.613 270.186 368.801 276.686C363.989 283.186 360.505 290.571 358.548 298.418" stroke="#85BD4B" stroke-width="2"/>
<path d="M218.191 87.9203C243.949 136.477 226.427 196.212 179.054 221.342C131.681 246.472 72.3971 227.48 46.6391 178.923C20.881 130.366 38.4032 70.6313 85.7759 45.5015C133.149 20.3717 192.433 39.3633 218.191 87.9203Z" stroke="#85BD4B" stroke-width="2"/>
<path d="M184.022 276.275C194.65 296.308 187.42 320.954 167.875 331.322C148.33 341.691 123.87 333.855 113.243 313.821C102.615 293.787 109.845 269.141 129.39 258.773C148.935 248.405 173.395 256.241 184.022 276.275Z" stroke="#85BD4B" stroke-width="2"/>
<path d="M516.765 64.6877C539.224 67.829 554.947 88.1385 551.882 110.05C548.818 131.962 528.126 147.178 505.667 144.037C483.207 140.896 467.484 120.586 470.549 98.6746C473.614 76.7629 494.305 61.5465 516.765 64.6877Z" stroke="#85BD4B" stroke-width="2"/>
</svg>
