<svg width="428" height="231" viewBox="0 0 428 231" fill="none" xmlns="http://www.w3.org/2000/svg">
<path d="M341.165 0.678391C335.76 2.48002 330.869 7.9364 329.737 13.4442C328.45 19.4669 331.384 26.0042 337.047 29.8649C342.554 33.674 348.834 33.7255 354.394 30.0193C363.505 23.9452 364.74 12.6206 357.122 5.05379C352.747 0.626915 346.467 -1.07177 341.165 0.678391Z" fill="#85BD4B" fill-opacity="0.15"/>
<path d="M407.053 0.678391C401.648 2.48002 396.758 7.9364 395.625 13.4442C394.338 19.4669 397.272 26.0042 402.935 29.8649C408.443 33.674 414.723 33.7255 420.282 30.0193C429.393 23.9452 430.628 12.6206 423.01 5.05379C418.635 0.626915 412.355 -1.07177 407.053 0.678391Z" fill="#85BD4B" fill-opacity="0.15"/>
<path d="M209.388 66.5669C203.983 68.3686 199.093 73.8249 197.96 79.3328C195.747 89.9367 206.351 100.541 216.955 98.3272C224.933 96.68 231.11 88.5469 230.338 80.8771C229.772 75.4722 225.706 69.9128 220.558 67.3905C217.418 65.8978 212.579 65.5374 209.388 66.5669Z" fill="#85BD4B" fill-opacity="0.15"/>
<path d="M275.276 66.5669C269.871 68.3686 264.981 73.8249 263.849 79.3328C261.635 89.9367 272.239 100.541 282.843 98.3272C290.822 96.68 296.999 88.5469 296.227 80.8771C295.66 75.4722 291.594 69.9128 286.446 67.3905C283.306 65.8978 278.468 65.5374 275.276 66.5669Z" fill="#85BD4B" fill-opacity="0.15"/>
<path d="M341.165 66.567C335.76 68.3686 330.869 73.825 329.737 79.3328C328.45 85.3554 331.384 91.8928 337.046 95.7534C342.554 99.5626 348.834 99.614 354.394 95.9078C363.505 89.8338 364.74 78.5092 357.122 70.9423C352.747 66.5155 346.466 64.8168 341.165 66.567Z" fill="#85BD4B" fill-opacity="0.15"/>
<path d="M407.053 66.567C401.648 68.3686 396.758 73.825 395.625 79.3328C394.338 85.3554 397.272 91.8928 402.935 95.7534C408.443 99.5626 414.723 99.614 420.282 95.9078C429.393 89.8338 430.629 78.5092 423.01 70.9423C418.635 66.5155 412.355 64.8168 407.053 66.567Z" fill="#85BD4B" fill-opacity="0.15"/>
<path d="M143.5 132.455C138.095 134.257 133.205 139.713 132.072 145.221C129.859 155.825 140.463 166.429 151.066 164.215C159.045 162.568 165.222 154.435 164.45 146.765C163.884 141.36 159.817 135.801 154.67 133.279C151.53 131.786 146.691 131.426 143.5 132.455Z" fill="#85BD4B" fill-opacity="0.15"/>
<path d="M209.388 132.455C203.983 134.257 199.093 139.713 197.96 145.221C195.747 155.825 206.351 166.429 216.955 164.215C224.933 162.568 231.11 154.435 230.338 146.765C229.772 141.36 225.706 135.801 220.558 133.279C217.418 131.786 212.579 131.426 209.388 132.455Z" fill="#85BD4B" fill-opacity="0.15"/>
<path d="M275.276 132.455C269.871 134.257 264.981 139.713 263.849 145.221C261.635 155.825 272.239 166.429 282.843 164.215C290.822 162.568 296.999 154.435 296.227 146.765C295.66 141.36 291.594 135.801 286.446 133.279C283.306 131.786 278.468 131.426 275.276 132.455Z" fill="#85BD4B" fill-opacity="0.15"/>
<path d="M341.164 132.455C335.76 134.257 330.869 139.713 329.737 145.221C327.523 155.825 338.127 166.429 348.731 164.215C356.71 162.568 362.887 154.435 362.115 146.765C361.549 141.36 357.482 135.801 352.335 133.279C349.195 131.786 344.356 131.426 341.164 132.455Z" fill="#85BD4B" fill-opacity="0.15"/>
<path d="M407.053 132.455C401.648 134.257 396.758 139.713 395.625 145.221C393.412 155.825 404.016 166.429 414.62 164.215C422.598 162.568 428.775 154.435 428.003 146.765C427.437 141.36 423.37 135.801 418.223 133.279C415.083 131.786 410.244 131.426 407.053 132.455Z" fill="#85BD4B" fill-opacity="0.15"/>
<path d="M11.723 198.344C6.31812 200.145 1.42797 205.602 0.295517 211.109C-1.91792 221.713 8.68597 232.317 19.2899 230.104C27.2685 228.457 33.4455 220.323 32.6734 212.654C32.1072 207.249 28.0406 201.689 22.8931 199.167C19.7531 197.674 14.9145 197.314 11.723 198.344Z" fill="#85BD4B" fill-opacity="0.15"/>
<path d="M77.6113 198.344C72.2064 200.145 67.3163 205.602 66.1838 211.109C63.9704 221.713 74.5743 232.317 85.1782 230.104C93.1568 228.457 99.3339 220.323 98.5617 212.654C97.9955 207.249 93.929 201.689 88.7814 199.167C85.6414 197.674 80.8028 197.314 77.6113 198.344Z" fill="#85BD4B" fill-opacity="0.15"/>
<path d="M143.5 198.344C138.095 200.145 133.205 205.602 132.072 211.109C129.859 221.713 140.463 232.317 151.066 230.104C159.045 228.457 165.222 220.323 164.45 212.654C163.884 207.249 159.817 201.689 154.67 199.167C151.53 197.674 146.691 197.314 143.5 198.344Z" fill="#85BD4B" fill-opacity="0.15"/>
<path d="M209.388 198.344C203.983 200.145 199.093 205.602 197.96 211.109C195.747 221.713 206.351 232.317 216.955 230.104C224.933 228.457 231.11 220.323 230.338 212.654C229.772 207.249 225.706 201.689 220.558 199.167C217.418 197.674 212.579 197.314 209.388 198.344Z" fill="#85BD4B" fill-opacity="0.15"/>
<path d="M275.276 198.344C269.871 200.145 264.981 205.602 263.849 211.109C261.635 221.713 272.239 232.317 282.843 230.104C290.822 228.457 296.999 220.323 296.227 212.654C295.66 207.249 291.594 201.689 286.446 199.167C283.306 197.674 278.468 197.314 275.276 198.344Z" fill="#85BD4B" fill-opacity="0.15"/>
<path d="M341.164 198.344C335.76 200.145 330.869 205.602 329.737 211.109C327.523 221.713 338.127 232.317 348.731 230.104C356.71 228.457 362.887 220.323 362.115 212.654C361.549 207.249 357.482 201.689 352.335 199.167C349.195 197.674 344.356 197.314 341.164 198.344Z" fill="#85BD4B" fill-opacity="0.15"/>
<path d="M407.053 198.344C401.648 200.145 396.758 205.602 395.625 211.109C393.412 221.713 404.016 232.317 414.62 230.104C422.598 228.457 428.775 220.323 428.003 212.654C427.437 207.249 423.37 201.689 418.223 199.167C415.083 197.674 410.244 197.314 407.053 198.344Z" fill="#85BD4B" fill-opacity="0.15"/>
</svg>
