<svg width="312" height="216" viewBox="0 0 312 216" fill="none" xmlns="http://www.w3.org/2000/svg">
<path d="M8.54028 0.426756C4.60279 1.73926 1.04029 5.71426 0.215286 9.72676C-1.39721 17.4518 6.32778 25.1768 14.0528 23.5643C19.8653 22.3643 24.3653 16.4393 23.8028 10.8518C23.3903 6.91426 20.4278 2.86426 16.6778 1.02676C14.3903 -0.0607433 10.8653 -0.323244 8.54028 0.426756Z" fill="#F19106" fill-opacity="0.21"/>
<path d="M56.5403 0.426712C50.8778 2.30171 47.0528 8.52671 48.2153 14.0017C49.1528 18.4642 53.3153 22.6267 57.7403 23.5642C65.0153 25.1017 72.5529 18.2392 71.8029 10.8517C71.3904 6.91421 68.4279 2.86421 64.6778 1.02671C62.3903 -0.0607872 58.8653 -0.323288 56.5403 0.426712Z" fill="#F19106" fill-opacity="0.21"/>
<path d="M104.54 0.426756C100.603 1.73926 97.0403 5.71426 96.2153 9.72676C94.6028 17.4518 102.328 25.1768 110.053 23.5643C115.865 22.3643 120.365 16.4393 119.803 10.8518C119.39 6.91426 116.428 2.86426 112.678 1.02676C110.39 -0.0607433 106.865 -0.323244 104.54 0.426756Z" fill="#F19106" fill-opacity="0.21"/>
<path d="M152.54 0.426756C148.603 1.73926 145.04 5.71426 144.215 9.72676C142.603 17.4518 150.328 25.1768 158.053 23.5643C163.865 22.3643 168.365 16.4393 167.803 10.8518C167.39 6.91426 164.428 2.86426 160.678 1.02676C158.39 -0.0607433 154.865 -0.323244 152.54 0.426756Z" fill="#F19106" fill-opacity="0.21"/>
<path d="M200.54 0.426756C196.603 1.73926 193.04 5.71426 192.215 9.72676C190.603 17.4518 198.328 25.1768 206.053 23.5643C211.865 22.3643 216.365 16.4393 215.803 10.8518C215.39 6.91426 212.428 2.86426 208.678 1.02676C206.39 -0.0607433 202.865 -0.323244 200.54 0.426756Z" fill="#F19106" fill-opacity="0.21"/>
<path d="M248.54 0.426756C244.603 1.73926 241.04 5.71426 240.215 9.72676C238.603 17.4518 246.328 25.1768 254.053 23.5643C259.865 22.3643 264.365 16.4393 263.803 10.8518C263.39 6.91426 260.428 2.86426 256.678 1.02676C254.39 -0.0607433 250.865 -0.323244 248.54 0.426756Z" fill="#F19106" fill-opacity="0.21"/>
<path d="M296.54 0.426756C292.603 1.73926 289.04 5.71426 288.215 9.72676C286.603 17.4518 294.328 25.1768 302.053 23.5643C307.865 22.3643 312.365 16.4393 311.803 10.8518C311.39 6.91426 308.428 2.86426 304.678 1.02676C302.39 -0.0607433 298.865 -0.323244 296.54 0.426756Z" fill="#F19106" fill-opacity="0.21"/>
<path d="M8.54028 48.4268C4.60279 49.7393 1.04029 53.7143 0.215286 57.7268C-1.39721 65.4518 6.32778 73.1768 14.0528 71.5643C19.8653 70.3643 24.3653 64.4393 23.8028 58.8518C23.3903 54.9143 20.4278 50.8643 16.6778 49.0268C14.3903 47.9393 10.8653 47.6768 8.54028 48.4268Z" fill="#F19106" fill-opacity="0.21"/>
<path d="M56.5403 48.4267C50.8778 50.3017 47.0528 56.5267 48.2153 62.0017C49.1528 66.4642 53.3153 70.6267 57.7403 71.5642C65.0153 73.1017 72.5529 66.2392 71.8029 58.8517C71.3904 54.9142 68.4279 50.8642 64.6778 49.0267C62.3903 47.9392 58.8653 47.6767 56.5403 48.4267Z" fill="#F19106" fill-opacity="0.21"/>
<path d="M104.54 48.4268C100.603 49.7393 97.0403 53.7143 96.2153 57.7268C94.6028 65.4518 102.328 73.1768 110.053 71.5643C115.865 70.3643 120.365 64.4393 119.803 58.8518C119.39 54.9143 116.428 50.8643 112.678 49.0268C110.39 47.9393 106.865 47.6768 104.54 48.4268Z" fill="#F19106" fill-opacity="0.21"/>
<path d="M152.54 48.4268C148.603 49.7393 145.04 53.7143 144.215 57.7268C142.603 65.4518 150.328 73.1768 158.053 71.5643C163.865 70.3643 168.365 64.4393 167.803 58.8518C167.39 54.9143 164.428 50.8643 160.678 49.0268C158.39 47.9393 154.865 47.6768 152.54 48.4268Z" fill="#F19106" fill-opacity="0.21"/>
<path d="M200.54 48.4268C196.603 49.7393 193.04 53.7143 192.215 57.7268C190.603 65.4518 198.328 73.1768 206.053 71.5643C211.865 70.3643 216.365 64.4393 215.803 58.8518C215.39 54.9143 212.428 50.8643 208.678 49.0268C206.39 47.9393 202.865 47.6768 200.54 48.4268Z" fill="#F19106" fill-opacity="0.21"/>
<path d="M248.54 48.4268C244.603 49.7393 241.04 53.7143 240.215 57.7268C238.603 65.4518 246.328 73.1768 254.053 71.5643C259.865 70.3643 264.365 64.4393 263.803 58.8518C263.39 54.9143 260.428 50.8643 256.678 49.0268C254.39 47.9393 250.865 47.6768 248.54 48.4268Z" fill="#F19106" fill-opacity="0.21"/>
<path d="M296.54 48.4268C292.603 49.7393 289.04 53.7143 288.215 57.7268C286.603 65.4518 294.328 73.1768 302.053 71.5643C307.865 70.3643 312.365 64.4393 311.803 58.8518C311.39 54.9143 308.428 50.8643 304.678 49.0268C302.39 47.9393 298.865 47.6768 296.54 48.4268Z" fill="#F19106" fill-opacity="0.21"/>
<path d="M8.54028 96.4267C4.60279 97.7392 1.04029 101.714 0.215286 105.727C-1.39721 113.452 6.32778 121.177 14.0528 119.564C19.8653 118.364 24.3653 112.439 23.8028 106.852C23.3903 102.914 20.4278 98.8642 16.6778 97.0267C14.3903 95.9392 10.8653 95.6767 8.54028 96.4267Z" fill="#F19106" fill-opacity="0.21"/>
<path d="M56.5403 96.4267C52.6028 97.7392 49.0403 101.714 48.2153 105.727C46.6028 113.452 54.3278 121.177 62.0528 119.564C67.8653 118.364 72.3653 112.439 71.8028 106.852C71.3903 102.914 68.4278 98.8642 64.6778 97.0267C62.3903 95.9392 58.8653 95.6767 56.5403 96.4267Z" fill="#F19106" fill-opacity="0.21"/>
<path d="M104.54 96.4267C100.603 97.7392 97.0403 101.714 96.2153 105.727C94.6028 113.452 102.328 121.177 110.053 119.564C115.865 118.364 120.365 112.439 119.803 106.852C119.39 102.914 116.428 98.8642 112.678 97.0267C110.39 95.9392 106.865 95.6767 104.54 96.4267Z" fill="#F19106" fill-opacity="0.21"/>
<path d="M152.54 96.4267C148.603 97.7392 145.04 101.714 144.215 105.727C142.603 113.452 150.328 121.177 158.053 119.564C163.865 118.364 168.365 112.439 167.803 106.852C167.39 102.914 164.428 98.8642 160.678 97.0267C158.39 95.9392 154.865 95.6767 152.54 96.4267Z" fill="#F19106" fill-opacity="0.21"/>
<path d="M200.54 96.4267C196.603 97.7392 193.04 101.714 192.215 105.727C190.603 113.452 198.328 121.177 206.053 119.564C211.865 118.364 216.365 112.439 215.803 106.852C215.39 102.914 212.428 98.8642 208.678 97.0267C206.39 95.9392 202.865 95.6767 200.54 96.4267Z" fill="#F19106" fill-opacity="0.21"/>
<path d="M248.54 96.4267C244.603 97.7392 241.04 101.714 240.215 105.727C238.603 113.452 246.328 121.177 254.053 119.564C259.865 118.364 264.365 112.439 263.803 106.852C263.39 102.914 260.428 98.8642 256.678 97.0267C254.39 95.9392 250.865 95.6767 248.54 96.4267Z" fill="#F19106" fill-opacity="0.21"/>
<path d="M296.54 96.4267C292.603 97.7392 289.04 101.714 288.215 105.727C286.603 113.452 294.328 121.177 302.053 119.564C307.865 118.364 312.365 112.439 311.803 106.852C311.39 102.914 308.428 98.8642 304.678 97.0267C302.39 95.9392 298.865 95.6767 296.54 96.4267Z" fill="#F19106" fill-opacity="0.21"/>
<path d="M8.54028 144.427C4.60279 145.739 1.04029 149.714 0.215286 153.727C-1.39721 161.452 6.32778 169.177 14.0528 167.564C19.8653 166.364 24.3653 160.439 23.8028 154.852C23.3903 150.914 20.4278 146.864 16.6778 145.027C14.3903 143.939 10.8653 143.677 8.54028 144.427Z" fill="#F19106" fill-opacity="0.21"/>
<path d="M56.5403 144.427C52.6028 145.739 49.0403 149.714 48.2153 153.727C46.6028 161.452 54.3278 169.177 62.0528 167.564C67.8653 166.364 72.3653 160.439 71.8028 154.852C71.3903 150.914 68.4278 146.864 64.6778 145.027C62.3903 143.939 58.8653 143.677 56.5403 144.427Z" fill="#F19106" fill-opacity="0.21"/>
<path d="M104.54 144.427C100.603 145.739 97.0403 149.714 96.2153 153.727C94.6028 161.452 102.328 169.177 110.053 167.564C115.865 166.364 120.365 160.439 119.803 154.852C119.39 150.914 116.428 146.864 112.678 145.027C110.39 143.939 106.865 143.677 104.54 144.427Z" fill="#F19106" fill-opacity="0.21"/>
<path d="M152.54 144.427C148.603 145.739 145.04 149.714 144.215 153.727C142.603 161.452 150.328 169.177 158.053 167.564C163.865 166.364 168.365 160.439 167.803 154.852C167.39 150.914 164.428 146.864 160.678 145.027C158.39 143.939 154.865 143.677 152.54 144.427Z" fill="#F19106" fill-opacity="0.21"/>
<path d="M200.54 144.427C196.603 145.739 193.04 149.714 192.215 153.727C190.603 161.452 198.328 169.177 206.053 167.564C211.865 166.364 216.365 160.439 215.803 154.852C215.39 150.914 212.428 146.864 208.678 145.027C206.39 143.939 202.865 143.677 200.54 144.427Z" fill="#F19106" fill-opacity="0.21"/>
<path d="M248.54 144.427C244.603 145.739 241.04 149.714 240.215 153.727C238.603 161.452 246.328 169.177 254.053 167.564C259.865 166.364 264.365 160.439 263.803 154.852C263.39 150.914 260.428 146.864 256.678 145.027C254.39 143.939 250.865 143.677 248.54 144.427Z" fill="#F19106" fill-opacity="0.21"/>
<path d="M296.54 144.427C292.603 145.739 289.04 149.714 288.215 153.727C286.603 161.452 294.328 169.177 302.053 167.564C307.865 166.364 312.365 160.439 311.803 154.852C311.39 150.914 308.428 146.864 304.678 145.027C302.39 143.939 298.865 143.677 296.54 144.427Z" fill="#F19106" fill-opacity="0.21"/>
<path d="M8.54028 192.427C4.60279 193.739 1.04029 197.714 0.215286 201.727C-1.39721 209.452 6.32778 217.177 14.0528 215.564C19.8653 214.364 24.3653 208.439 23.8028 202.852C23.3903 198.914 20.4278 194.864 16.6778 193.027C14.3903 191.939 10.8653 191.677 8.54028 192.427Z" fill="#F19106" fill-opacity="0.21"/>
<path d="M56.5403 192.427C52.6028 193.739 49.0403 197.714 48.2153 201.727C46.6028 209.452 54.3278 217.177 62.0528 215.564C67.8653 214.364 72.3653 208.439 71.8028 202.852C71.3903 198.914 68.4278 194.864 64.6778 193.027C62.3903 191.939 58.8653 191.677 56.5403 192.427Z" fill="#F19106" fill-opacity="0.21"/>
<path d="M104.54 192.427C100.603 193.739 97.0403 197.714 96.2153 201.727C94.6028 209.452 102.328 217.177 110.053 215.564C115.865 214.364 120.365 208.439 119.803 202.852C119.39 198.914 116.428 194.864 112.678 193.027C110.39 191.939 106.865 191.677 104.54 192.427Z" fill="#F19106" fill-opacity="0.21"/>
<path d="M152.54 192.427C148.603 193.739 145.04 197.714 144.215 201.727C142.603 209.452 150.328 217.177 158.053 215.564C163.865 214.364 168.365 208.439 167.803 202.852C167.39 198.914 164.428 194.864 160.678 193.027C158.39 191.939 154.865 191.677 152.54 192.427Z" fill="#F19106" fill-opacity="0.21"/>
<path d="M200.54 192.427C196.603 193.739 193.04 197.714 192.215 201.727C190.603 209.452 198.328 217.177 206.053 215.564C211.865 214.364 216.365 208.439 215.803 202.852C215.39 198.914 212.428 194.864 208.678 193.027C206.39 191.939 202.865 191.677 200.54 192.427Z" fill="#F19106" fill-opacity="0.21"/>
<path d="M248.54 192.427C244.603 193.739 241.04 197.714 240.215 201.727C238.603 209.452 246.328 217.177 254.053 215.564C259.865 214.364 264.365 208.439 263.803 202.852C263.39 198.914 260.428 194.864 256.678 193.027C254.39 191.939 250.865 191.677 248.54 192.427Z" fill="#F19106" fill-opacity="0.21"/>
<path d="M296.54 192.427C292.603 193.739 289.04 197.714 288.215 201.727C286.603 209.452 294.328 217.177 302.053 215.564C307.865 214.364 312.365 208.439 311.803 202.852C311.39 198.914 308.428 194.864 304.678 193.027C302.39 191.939 298.865 191.677 296.54 192.427Z" fill="#F19106" fill-opacity="0.21"/>
</svg>
