<svg xmlns="http://www.w3.org/2000/svg" viewBox="0 0 275.19 330.44"><g id="Warstwa_2" data-name="Warstwa 2"><g id="Warstwa_1-2" data-name="Warstwa 1"><path d="M25.71,66.71A15.59,15.59,0,1,0,10.15,51.12,15.59,15.59,0,0,0,25.71,66.71ZM219.63,330.39c7.22.6,15.54-6.14,15.51-15.33A15.56,15.56,0,1,0,204,314.9C204,324.8,212.71,331,219.63,330.39Z" style="fill:#fefefe"/><path d="M266.48,175.22a19.46,19.46,0,0,1,7.7,9.93,17.32,17.32,0,0,1,1,5.38c0,6.95.11,13.9,0,20.84a18.8,18.8,0,0,1-15.66,17.72c-2.86.42-5.78.53-8.67.69-1.95.11-3.91.05-5.87.07H228.64c-.52,0-1,0-1.56,0H47.83c-.52,0-1,0-1.56,0H29.8c-3.16,0-6.32.12-9.46-.08-8.31-.54-15-3.71-18.7-11.71A16.44,16.44,0,0,1,0,211.24c0-6.79-.08-13.58,0-20.37a18.37,18.37,0,0,1,5.78-13.46c.25-.24.48-.52.72-.78,4.52-3.63,10-4.35,15.45-4.87l1.2,0q45.71,0,91.42,0l1.2,0,21.9,0q7.25,0,14.49,0c.44,0,.88,0,1.32,0q49.07,0,98.14,0l1.2,0h2.37c.94.15,1.92-.14,2.84.19C260.91,173,263.92,173.51,266.48,175.22ZM133.9,190.47a10.43,10.43,0,0,0-10.77,10.58,10.74,10.74,0,1,0,21.48,0A10.39,10.39,0,0,0,133.9,190.47Zm13.52,10.63v4.8c0,1.59,0,3.19,0,4.79,0,.7.16,1,.93,1,1.11-.06,2.24,0,3.35,0,.69,0,.9-.21.88-.89,0-2,0-4,0-6,0-.37-.28-.92.43-1,.56-.1.86.16,1.12.65.58,1.13,1.2,2.25,1.85,3.35.77,1.29,1.08,3.16,2.35,3.75s3,.11,4.49.17c.88,0,.95-.22.54-.92-1.31-2.2-2.56-4.42-3.87-6.61-.34-.59-.33-.85.36-1.1a5.27,5.27,0,0,0,2.83-2.28,6.32,6.32,0,0,0-4.37-9.74c-3.24-.58-6.53-.12-9.8-.29-1-.05-1.1.32-1.09,1.16C147.44,195,147.42,198,147.42,201.1Zm93.44.11c0,2.16,0,4.31,0,6.47,0,1.27-.43,3,.22,3.69.81.84,2.56.16,3.89.29.83.07,1-.27,1-1-.05-2.15,0-4.31,0-6.47,0-.85.16-1.21,1.11-1.17,1.91.07,3.84.08,5.75,0,.95,0,1.13.32,1.11,1.17-.06,2.19,0,4.39,0,6.59,0,.65.15.94.86.91,1.16,0,2.32,0,3.48,0,.62,0,.82-.2.82-.83q0-9.65,0-19.29c0-.64-.21-.83-.83-.81a31.2,31.2,0,0,1-3.35,0c-.83-.05-1,.27-1,1,.05,2.07,0,4.15,0,6.23,0,.74-.21,1-.94.93q-3-.07-6,0c-.76,0-1.08-.16-1-1,.07-1,0-2.08,0-3.12,0-1.31.44-3.08-.22-3.81s-2.56-.14-3.9-.27c-.83-.08-1,.26-1,1C240.88,194.9,240.86,198.05,240.86,201.21ZM101.33,211.65c.56,0,1.12,0,1.68,0,.8.06,1.07-.1.75-1q-3.53-9.6-7-19.22a.92.92,0,0,0-1-.72c-1.36,0-2.72.07-4.07,0a1.23,1.23,0,0,0-1.45,1c-2.11,5.93-4.27,11.84-6.42,17.76-.78,2.17-.79,2.17,1.58,2.17,2.92,0,3,0,3.91-2.82a1.1,1.1,0,0,1,1.29-.87c1.88,0,3.76.08,5.63,0,1-.05,1.38.34,1.66,1.23C98.68,211.66,98.71,211.65,101.33,211.65Zm133.51-13.82h1.55c1.43,0,1.43,0,.91-1.31-2.24-5.65-9.8-7.85-15.3-4.46-4.06,2.51-5.79,8.2-4,13.17a10.15,10.15,0,0,0,11.18,6.49c4-.55,6.83-2.5,8.28-6.33.25-.64.3-1-.62-1-1.27.07-2.55,0-3.83,0a1.29,1.29,0,0,0-1.27.66,4.65,4.65,0,0,1-5,2,4.71,4.71,0,0,1-3.82-3.4,7.79,7.79,0,0,1,0-5.07c1.24-3.68,6.11-4.79,8.47-1.86a2.6,2.6,0,0,0,2.52,1.09C234.2,197.81,234.52,197.83,234.84,197.83Zm-163.23,8.4c-1.61-4.86-3.22-9.69-4.77-14.55-.25-.75-.58-1-1.35-1-1.15.06-2.31,0-3.47,0-.67,0-.92.06-.64.85q3.45,9.61,6.82,19.27a1,1,0,0,0,1.21.81c1.51,0,3-.06,4.55,0,.74,0,1-.25,1.25-.92,1.57-4.52,3.19-9,4.79-13.52l2.29-6.48c-1.59,0-3,0-4.46,0-.75,0-1,.27-1.24.93q-2.16,6.65-4.38,13.28C72.07,205.37,72.05,205.88,71.61,206.23Zm101.59-5c0,3.07,0,6.14,0,9.21,0,1,.16,1.39,1.21,1.28a14.86,14.86,0,0,1,2.75,0c.86.07,1.19-.15,1.15-1.09-.08-1.88,0-3.75,0-5.63,0-.63.2-.84.82-.82a30.86,30.86,0,0,0,4.3-.15,6.6,6.6,0,0,0-.7-13.16c-2.83-.14-5.66,0-8.5-.09-.78,0-1,.22-1,1C173.22,194.87,173.2,198,173.2,201.18Zm-157-.06c0,3.15,0,6.31,0,9.46,0,.83.22,1.1,1.07,1.08,2.91,0,5.83,0,8.75,0,3.1,0,3.08,0,3.07-3.12,0-.75-.15-1.07-1-1a31.64,31.64,0,0,1-3.23,0c-1.15-.05-2.71.52-3.32-.23s-.12-2.22-.21-3.36c-.07-.84.29-1,1-1,1.67,0,3.35,0,5,0,.35,0,.76.08.74-.49,0-1.11.26-2.39-.2-3.28-.31-.61-1.7-.13-2.61-.2-.24,0-.48,0-.72,0-3.44,0-3.42,0-3.27-3.41,0-.66.26-.8.85-.78,1.27,0,2.55,0,3.83,0,3.11,0,3.07,0,3.07-3.12,0-.81-.28-1-1-1-3.59,0-7.19.05-10.78,0-1,0-1.1.34-1.09,1.17C16.23,195,16.2,198,16.2,201.12Zm30.36.06c0,3.16,0,6.31,0,9.47,0,.76.18,1,1,1,2.92,0,5.83,0,8.75,0,3.1,0,3.06,0,3.08-3.11,0-.89-.3-1-1.1-1-1.91.06-3.83,0-5.75,0-.42,0-.82.12-.9-.6-.42-3.91-.39-4,3.41-4h.48c3.11,0,3.08,0,3-3.06,0-.78-.31-.94-1-.92-1.67,0-3.35,0-5,0-.58,0-.89-.13-.85-.8a23.08,23.08,0,0,0,0-2.63c0-.69.28-.78.85-.77,1.28,0,2.56,0,3.83,0,3.1,0,3.07,0,3.06-3.13,0-.82-.29-1-1-1-3.6,0-7.19,0-10.79,0-.77,0-1,.21-1,1C46.59,194.87,46.56,198,46.56,201.18Zm163.54,2v-5.87c0-2.53,0-2.53,2.54-2.53,3,0,3,0,3-3,0-.85-.26-1.05-1.08-1.05-4,0-8.07,0-12.1,0-3.19,0-3.19,0-3.07,3.22a.48.48,0,0,1,0,.12c-.07.58.19.77.76.75,1.08,0,2.16.07,3.23,0s1.62.21,1.59,1.51c-.09,4.75,0,9.51-.05,14.26,0,.81.18,1.15,1.05,1.09a23.06,23.06,0,0,1,3.11,0c.8.05,1-.23,1-1C210.07,208.18,210.1,205.7,210.1,203.22Zm-94.2.11v-6c0-2.52,0-2.52,2.56-2.52,3,0,3,0,3-3.06,0-.87-.27-1-1.08-1-4,0-8,0-12,0-3.19,0-3.16,0-3.12,3.19,0,.79.29.93,1,.9,1.12-.05,2.24.06,3.35,0s1.27.23,1.26,1.24c-.06,4.83,0,9.67,0,14.5,0,.76.07,1.2,1,1.12a25,25,0,0,1,3.24,0c.7,0,.86-.24.85-.89C115.88,208.29,115.9,205.81,115.9,203.33Zm-83.53-2.2c0,3.15,0,6.3,0,9.45,0,.82.2,1.1,1,1.09,2.6-.06,5.19,0,7.78,0,3.12,0,3.1,0,3-3.1,0-.62-.19-.84-.82-.83-1.56,0-3.12-.06-4.67,0-1,.07-1.24-.29-1.23-1.26,0-4.87,0-9.74,0-14.61,0-1-.29-1.22-1.2-1.16a21.32,21.32,0,0,1-3,0c-.76,0-.94.22-.94.94C32.39,194.82,32.37,198,32.37,201.13Zm164.53.05c0-2.12,0-4.24,0-6.35,0-1.31.56-3.07-.2-3.81s-2.64-.18-4-.28h-.12c-.64-.09-.81.21-.8.82q0,9.65,0,19.28c0,.62.21.84.83.82,1.11,0,2.23-.07,3.35,0,.83.06,1-.28,1-1C196.88,207.48,196.9,204.33,196.9,201.18Z" style="fill:#f09107"/><path d="M154,42.62a53,53,0,0,0,2.66-10c.19-1,.31-2,.46-3a55.16,55.16,0,0,0,.68-5.69c0-2.14.31-4.27.28-6.41a4.71,4.71,0,0,1,.15-1.42,91.17,91.17,0,0,0,13,20.48,108.81,108.81,0,0,0,14.64,15.55.46.46,0,0,0,.49.27h0c0,.28.18.41.36.57,1.86,1.58,3.67,3.2,5.56,4.73a87,87,0,0,0,19.3,12.14c.35.16.84.2,1,.8a73.92,73.92,0,0,0-13.09.75A81.49,81.49,0,0,0,179,77a83.51,83.51,0,0,0-23.23,14.75c-1.69,1.51-3.35,3.07-5,4.62a.81.81,0,0,1-1.32,0q-8.5-8.53-17-17c-.55-.55-.41-.89.06-1.38.89-.91,1.75-1.86,2.58-2.82,6.57-7.63,12.34-15.78,16.33-25.08A43.91,43.91,0,0,0,154,42.62Z" style="fill:#84bc4b"/><path d="M228.37,68.19c-1.51,2.9-4,3.78-7.12,3.69-2.39-.08-4.59-.87-6.87-1.34L211,69c-7.91-3.66-14.86-8.76-21.52-14.31-1-.82-1.76-2-3.12-2.31h0a.12.12,0,0,1,0-.13c0-.45-.35-.59-.59-.83l-6-6c-2.92-2.9-5.49-6.1-8.22-9.17a128.86,128.86,0,0,1-8.05-11.6c-2.71-4.57-5.14-9.28-6.2-14.56A13.84,13.84,0,0,1,157,6.77c.17-4.14,2.6-6.5,6.74-6.74a20.82,20.82,0,0,1,9.51,2c8.54,3.63,16,8.93,23,14.89a124,124,0,0,1,25.31,28.75c3,4.81,5.63,9.83,6.88,15.44A13.23,13.23,0,0,1,228.37,68.19Zm-31-25.94-5.53,5.47c-1.33,1.32-1.34,1.35.16,2.58q3.5,2.84,7,5.62a58.56,58.56,0,0,0,21.18,10.8c2.75.74,4.28-.62,3.82-3.44a17.79,17.79,0,0,0-1.4-4.68,61.74,61.74,0,0,0-7.19-13.21,106.45,106.45,0,0,0-9.9-12.17c-3.38-3.59-6.85-7.12-10.56-10.4-2.67-2.38-5.37-4.72-8.17-6.94A68.38,68.38,0,0,0,167.41,5.54a11.36,11.36,0,0,0-2.43-.6,2.25,2.25,0,0,0-2.83,2.49,15.47,15.47,0,0,0,.9,5,54.71,54.71,0,0,0,8.36,15.17,66,66,0,0,0,5.15,6.53c.94,1.17,1.88,2.35,2.83,3.52.32.4.71.71,1.22.36a5.46,5.46,0,0,0,2.22-2.22,44.82,44.82,0,0,0,3.7-4A5,5,0,0,1,190,30c3.14-.17,5.31,1.49,7.09,3.72C199.16,36.39,200.48,39.55,197.34,42.25Z" style="fill:#84bc4b"/><path d="M25.71,66.71a15.59,15.59,0,1,1,.07-31.17,15.59,15.59,0,0,1-.07,31.17Z" style="fill:#84bc4b"/><path d="M219.63,330.39C212.71,331,204,324.8,204,314.9a15.56,15.56,0,1,1,31.12.16C235.17,324.25,226.85,331,219.63,330.39Z" style="fill:#84bc4b"/><path d="M171.55,36.26c2.73,3.07,5.3,6.27,8.22,9.17l6,6c.24.24.63.38.59.83l-.49-.14a108.81,108.81,0,0,1-14.64-15.55Z" style="fill:#f3f3f3"/><path d="M186.4,52.36c1.36.34,2.13,1.49,3.12,2.31C196.18,60.22,203.13,65.32,211,69l3.34,1.56A116.1,116.1,0,0,1,237.8,99a110.85,110.85,0,0,1,6.94,14l2.31,5.61a2.88,2.88,0,0,0,.06.59,114.57,114.57,0,0,1,6.29,29.91,113.21,113.21,0,0,1-.53,22.69l-1.2,0q-49.06,0-98.14,0c-.44,0-.88,0-1.32,0a13.7,13.7,0,0,1,3.56-4.87c4.18-3.7,8.32-7.44,12.48-11.16a13.74,13.74,0,0,0,3.5-4.34c1.13-2.42,2.2-4.86,3.3-7.28,0-.11.07-.27,0-.3s-.18,0-.23.12a14.51,14.51,0,0,0-2.52,2.37,53,53,0,0,1-5.21,5.28,4.73,4.73,0,0,1-3.49,1.31c-2.41-.22-5.86-3.69-6.2-6.42-.09-.73-.31-.89-.95-.67a3.47,3.47,0,0,1-2.46,0,10.23,10.23,0,0,1-3.88-3.11c-1.11-1.3-2-2.71-1.33-4.63a4.24,4.24,0,0,1-4.1-.74A26.72,26.72,0,0,1,150,150.54a21.67,21.67,0,0,1-3,13.78c-.16-.33-.23-.41-.22-.46a7.27,7.27,0,0,1,.33-.76,22.59,22.59,0,0,0,.76-18.9A25.88,25.88,0,0,0,136.71,131c-.54-.32-.74-.57-.34-1.17a29.94,29.94,0,0,0,1.62-2.8c.3-.59.6-.57,1.11-.26,1.57.95,3.17,1.86,4.75,2.78a3.81,3.81,0,0,0,2.38.66,36,36,0,0,0,7.81-1.72,9.46,9.46,0,0,0,4.64-3c.51-.67.58-1-.41-1.42a54.3,54.3,0,0,1-16.46-10.24,1,1,0,0,0-1.15-.31q-3.75,1.2-7.53,2.34a2.44,2.44,0,0,0-1.48,1.26q-4.5,7.85-9.06,15.63a3.55,3.55,0,0,0-.33,3.1c1.74,5.06,2.89,10.28,4.33,15.42a3.13,3.13,0,0,1-.34,2.63c-1,1.59-1.91,3.23-2.85,4.85q-3.8,6.51-7.58,13l-1.2,0q-45.7,0-91.42,0l-1.2,0a118.06,118.06,0,0,1-.43-23.55A116.38,116.38,0,0,1,92.91,50.3a113,113,0,0,1,31.14-8.06,123.81,123.81,0,0,1,25.46-.17c1.51.14,3,.36,4.52.55a43.91,43.91,0,0,1-2.69,7.4c-4,9.3-9.76,17.45-16.33,25.08-.83,1-1.69,1.91-2.58,2.82-.47.49-.61.83-.06,1.38q8.55,8.49,17,17a.81.81,0,0,0,1.32,0c1.66-1.55,3.32-3.11,5-4.62A83.51,83.51,0,0,1,179,77a81.49,81.49,0,0,1,20.57-5.66,73.92,73.92,0,0,1,13.09-.75c-.18-.6-.67-.64-1-.8a87,87,0,0,1-19.3-12.14c-1.89-1.53-3.7-3.15-5.56-4.73C186.58,52.77,186.37,52.64,186.4,52.36ZM96.65,110.51a10.35,10.35,0,0,0,1.71,5.24,43.17,43.17,0,0,0,10.33,11.71c2.44,2,5,3.81,8.25,4.42a3.55,3.55,0,0,0,3.29-.59,31.08,31.08,0,0,0,3.85-3.93,56.84,56.84,0,0,0,5.63-9.73,6.25,6.25,0,0,1,4.8-3.67,13,13,0,0,0,7.41-4.23c2.93-3.22,6.1-6.22,9.22-9.25.72-.71.71-1.09,0-1.79q-10.63-10.56-21.2-21.19c-.6-.6-.9-.58-1.48,0Q113.1,92.92,97.7,108.28A2.82,2.82,0,0,0,96.65,110.51Zm71,10.92a3.9,3.9,0,0,0-2.78,1.11c-4.92,4.68-9.61,9.59-14.38,14.43-1.32,1.33-1.35,2.75-.29,4.34a17.57,17.57,0,0,0,2.2,2.36c2.06,2.12,4.16,2.08,6.16-.14,1.82-2,3.75-3.93,5.67-5.86,2.68-2.69,5.56-5.17,8.1-8a3.07,3.07,0,0,0,.79-3.52,10,10,0,0,0-4.62-4.51A3.54,3.54,0,0,0,167.65,121.43Zm4.64,10.32a5,5,0,0,0-2.82,1.74q-5.22,5.19-10.37,10.44a3.29,3.29,0,0,0,0,4.64c.8.84,1.63,1.65,2.45,2.46a3.2,3.2,0,0,0,4.87,0c3.65-3.57,7.26-7.17,10.88-10.78a3.69,3.69,0,0,0,1.25-2.38C178.65,135.76,174.8,131.72,172.29,131.75Zm-30.65,0a2.9,2.9,0,0,0,1,2.24c.7.66,1.34,1.37,2,2,2,1.95,3.58,2,5.6,0,4.81-4.72,9.58-9.5,14.34-14.28a3.16,3.16,0,0,0,.21-4.35,20.32,20.32,0,0,0-3-3,3.16,3.16,0,0,0-4.35.15c-1.75,1.64-3.41,3.37-5.14,5-.61.58-.43.85.22,1.19a32.41,32.41,0,0,0,6.62,3c.72.2.88.56.53,1.23a5.79,5.79,0,0,1-1.78,2.06,20.7,20.7,0,0,1-9.54,3.53c-1.63.22-3.24.39-4.77-.54-1.23-.76-1.49-.61-1.78.86C141.7,131.17,141.68,131.44,141.64,131.72Zm10.28-25.9a3.07,3.07,0,0,0-2.36,1c-2.18,2.12-4.32,4.27-6.51,6.38-.52.5-.41.83.09,1.24a67.35,67.35,0,0,0,7.25,5.08.71.71,0,0,0,1-.14c1.76-1.79,3.56-3.55,5.34-5.34a3.32,3.32,0,0,0,.92-2.75c-.17-1.9-3.73-5.34-5.64-5.44Zm-10.79,27.54a8,8,0,0,1-.29-2.41c0-.22,0-.59-.29-.52a6.13,6.13,0,0,1-3.11-.57.43.43,0,0,0-.57.3c-.08.23.12.34.28.45Zm.59-4.43c-1-.54-1.79-1.06-2.67-1.49s-.8.57-1.15.92-.26.75.24.93A3.39,3.39,0,0,0,141.72,128.93Z" style="fill:#474f5a"/><path d="M228.64,229.85A91.58,91.58,0,0,1,219,240.67a115.58,115.58,0,0,1-66.33,32.38,113,113,0,0,1-21.51.87A117.14,117.14,0,0,1,94.75,266a115.66,115.66,0,0,1-46.18-33.22c-.8-.94-1.53-1.93-2.3-2.9.52,0,1,0,1.56,0H227.08C227.6,229.8,228.12,229.83,228.64,229.85ZM119.11,247.19c.18.15.23.17.24.2.7,3,1.38,6.05,2.11,9.06.57,2.35.08,2.14,2.8,2.18.85,0,1.18-.26,1.26-1.15.21-2.46.55-4.9.83-7.35l1.26-10.91a.71.71,0,0,0-.69-.91c-.52-.06-1,0-1.56-.05-.89-.07-1.22.41-1.28,1.2-.17,2.31-.29,4.62-.54,6.91a19.87,19.87,0,0,1-.55,4.18c-.82-4-1.58-7.6-2.32-11.22a1.19,1.19,0,0,0-1.35-1.06c-.76,0-1.38.12-1.55,1.09-.32,1.84-.76,3.66-1.15,5.49l-1.2,5.61c-.38-2.55-.55-5.05-.76-7.55-.1-1.27-.28-2.53-.39-3.8a.8.8,0,0,0-.85-.81,13.51,13.51,0,0,0-1.8,0c-.58,0-.81.4-.75,1,.19,1.66.36,3.32.54,5,.46,4.2.9,8.39,1.39,12.58.08.71-.25,1.69,1,1.77,2.46.15,2.61.11,3-1.48C117.58,253.85,118.33,250.56,119.11,247.19Zm16.52,11.41h1.19c2.73,0,4-1.24,4-3.93,0-1.6,0-3.2,0-4.8a1.63,1.63,0,0,0-1.34-1.92c-1.57-.44-3.09-1.06-4.66-1.52a.89.89,0,0,1-.7-1.17c.23-1.15-.64-2.48.58-3.45,0,0,.07,0,.11,0,1.55-.59,2.43,0,2.46,1.67,0,.69-.22,1.51.84,1.69,2.23.39,2.7,0,2.7-2.2,0-.44,0-.88,0-1.32a3.12,3.12,0,0,0-3.07-3.19,14.42,14.42,0,0,0-4.4,0,3,3,0,0,0-2.58,2.61,44.8,44.8,0,0,0-.17,6.45,1.47,1.47,0,0,0,1.22,1.56c1,.26,1.89.61,2.84.93,2.67.88,2.62.88,2.66,3.74,0,1.19-.44,1.56-1.56,1.52-1.41-.05-1.61-.2-1.63-1.58,0-1.79,0-1.79-1.85-1.79-.2,0-.4,0-.6,0-.8-.09-1.11.33-1.08,1,0,.87.09,1.75.16,2.62a3.07,3.07,0,0,0,3.09,3C134.42,258.64,135,258.6,135.63,258.6Zm8.11-10.18c0,2.88,0,5.76,0,8.63,0,1.18.26,1.65,1.52,1.59,2.08-.1,4.16,0,6.24,0,2.47,0,2.44,0,2.37-2.43,0-.77-.33-1-1-.93-1.2,0-2.4,0-3.59,0-2.13,0-2.13,0-2.13-2.16,0-2.9,0-2.89,3-2.91,2.55,0,2.28.39,2.32-2.42,0-.75-.29-1-1-.94-1.12,0-2.24,0-3.35,0-.66,0-1-.24-.94-.91q0-1.62,0-3.24c0-.66.2-.94.89-.91,1.16,0,2.32,0,3.47,0,2.64,0,2.34.38,2.38-2.49,0-.8-.34-1-1.08-1-2.6,0-5.19,0-7.79,0-.93,0-1.26.36-1.24,1.29C143.77,242.51,143.74,245.47,143.74,248.42Zm16.55.24c0-2.71,0-5.43,0-8.15,0-2.36.34-2-2.1-2.11-1.13-.05-1.31.39-1.31,1.39.05,5.51,0,11,0,16.53,0,2.52-.36,2.25,2.31,2.31.85,0,1.1-.28,1.09-1.1C160.27,254.57,160.29,251.62,160.29,248.66Z" style="fill:#474f5a"/><path d="M115.82,171.76q3.78-6.51,7.58-13c.94-1.62,1.86-3.26,2.85-4.85a3.13,3.13,0,0,0,.34-2.63c-1.44-5.14-2.59-10.36-4.33-15.42a3.55,3.55,0,0,1,.33-3.1q4.56-7.79,9.06-15.63a2.44,2.44,0,0,1,1.48-1.26q3.78-1.14,7.53-2.34a1,1,0,0,1,1.15.31,54.3,54.3,0,0,0,16.46,10.24c1,.4.92.75.41,1.42a9.46,9.46,0,0,1-4.64,3,36,36,0,0,1-7.81,1.72,3.81,3.81,0,0,1-2.38-.66c-1.58-.92-3.18-1.83-4.75-2.78-.51-.31-.81-.33-1.11.26a29.94,29.94,0,0,1-1.62,2.8c-.4.6-.2.85.34,1.17a25.88,25.88,0,0,1,11.16,13.18,22.59,22.59,0,0,1-.76,18.9,7.27,7.27,0,0,0-.33.76s.06.13.22.46a21.67,21.67,0,0,0,3-13.78,26.72,26.72,0,0,0-5.26-13.27,4.24,4.24,0,0,0,4.1.74c-.63,1.92.22,3.33,1.33,4.63a10.23,10.23,0,0,0,3.88,3.11,3.47,3.47,0,0,0,2.46,0c.64-.22.86-.06.95.67.34,2.73,3.79,6.2,6.2,6.42a4.73,4.73,0,0,0,3.49-1.31,53,53,0,0,0,5.21-5.28,14.51,14.51,0,0,1,2.52-2.37l.21.18c-1.1,2.42-2.17,4.86-3.3,7.28a13.74,13.74,0,0,1-3.5,4.34c-4.16,3.72-8.3,7.46-12.48,11.16a13.7,13.7,0,0,0-3.56,4.87q-7.25,0-14.49,0Z" style="fill:#fefefe"/><path d="M133.9,190.47a10.39,10.39,0,0,1,10.71,10.63,10.74,10.74,0,1,1-10.71-10.63Zm-5.54,9.9c0,3.75,1.38,6.06,3.75,6.59,2.92.64,5.24,0,6.6-2.68s.74-6.49-1.41-8.09a5.53,5.53,0,0,0-6.09-.49A5.12,5.12,0,0,0,128.36,200.37Z" style="fill:#fefefe"/><path d="M147.42,201.1c0-3.07,0-6.15,0-9.22,0-.84.13-1.21,1.09-1.16,3.27.17,6.56-.29,9.8.29a6.32,6.32,0,0,1,4.37,9.74,5.27,5.27,0,0,1-2.83,2.28c-.69.25-.7.51-.36,1.1,1.31,2.19,2.56,4.41,3.87,6.61.41.7.34.95-.54.92-1.51-.06-3.23.4-4.49-.17s-1.58-2.46-2.35-3.75c-.65-1.1-1.27-2.22-1.85-3.35-.26-.49-.56-.75-1.12-.65-.71.12-.42.67-.43,1,0,2,0,4,0,6,0,.68-.19.92-.88.89-1.11,0-2.24-.06-3.35,0-.77,0-.94-.27-.93-1,0-1.6,0-3.2,0-4.79Zm7.19-1h.72c1.8,0,2.73-.55,3-1.75a2.73,2.73,0,0,0-.74-2.86c-.54-.49-4.22-1-4.76-.54s-.18,1.49-.3,2.25a4.7,4.7,0,0,0,0,.84C152.55,200.13,152.55,200.13,154.61,200.13Z" style="fill:#fefefe"/><path d="M240.86,201.21c0-3.16,0-6.31,0-9.47,0-.75.15-1.09,1-1,1.34.13,3.14-.56,3.9.27s.2,2.5.22,3.81c0,1,.05,2.08,0,3.12,0,.82.27,1,1,1q3-.07,6,0c.73,0,1-.19.94-.93,0-2.08,0-4.16,0-6.23,0-.76.16-1.08,1-1a31.2,31.2,0,0,0,3.35,0c.62,0,.83.17.83.81q0,9.65,0,19.29c0,.63-.2.85-.82.83-1.16,0-2.32,0-3.48,0-.71,0-.87-.26-.86-.91,0-2.2,0-4.4,0-6.59,0-.85-.16-1.21-1.11-1.17-1.91.08-3.84.07-5.75,0-.95,0-1.13.32-1.11,1.17.06,2.16,0,4.32,0,6.47,0,.76-.16,1.1-1,1-1.33-.13-3.08.55-3.89-.29-.65-.67-.21-2.42-.22-3.69C240.85,205.52,240.86,203.37,240.86,201.21Z" style="fill:#fefefe"/><path d="M101.33,211.65c-2.62,0-2.65,0-3.43-2.48-.28-.89-.65-1.28-1.66-1.23-1.87.1-3.75.06-5.63,0a1.1,1.1,0,0,0-1.29.87c-1,2.83-1,2.82-3.91,2.82-2.37,0-2.36,0-1.58-2.17,2.15-5.92,4.31-11.83,6.42-17.76a1.23,1.23,0,0,1,1.45-1c1.35.08,2.71.05,4.07,0a.92.92,0,0,1,1,.72q3.44,9.63,7,19.22c.32.88,0,1-.75,1C102.45,211.61,101.89,211.65,101.33,211.65Zm-7.78-15.26c-.83,2.44-1.54,4.58-2.28,6.72-.19.56-.19.9.57.87,1.19,0,2.38,0,3.58,0,.46,0,.68-.12.51-.62C95.17,201.14,94.42,198.93,93.55,196.39Z" style="fill:#fefefe"/><path d="M234.84,197.83c-.32,0-.64,0-1,0a2.6,2.6,0,0,1-2.52-1.09c-2.36-2.93-7.23-1.82-8.47,1.86a7.79,7.79,0,0,0,0,5.07,4.71,4.71,0,0,0,3.82,3.4,4.65,4.65,0,0,0,5-2,1.29,1.29,0,0,1,1.27-.66c1.28,0,2.56.06,3.83,0,.92-.05.87.32.62,1-1.45,3.83-4.31,5.78-8.28,6.33A10.15,10.15,0,0,1,218,205.23c-1.8-5-.07-10.66,4-13.17,5.5-3.39,13.06-1.19,15.3,4.46.52,1.31.52,1.31-.91,1.31Z" style="fill:#fefefe"/><path d="M71.61,206.23c.44-.35.46-.86.6-1.3q2.22-6.63,4.38-13.28c.21-.66.49-1,1.24-.93,1.43.07,2.87,0,4.46,0L80,197.22c-1.6,4.5-3.22,9-4.79,13.52-.23.67-.51.95-1.25.92-1.52-.06-3,0-4.55,0a1,1,0,0,1-1.21-.81q-3.37-9.65-6.82-19.27c-.28-.79,0-.87.64-.85,1.16,0,2.32.06,3.47,0,.77,0,1.1.2,1.35,1C68.39,196.54,70,201.37,71.61,206.23Z" style="fill:#fefefe"/><path d="M173.2,201.18c0-3.16,0-6.31,0-9.46,0-.78.21-1,1-1,2.84.06,5.67-.05,8.5.09a6.6,6.6,0,0,1,.7,13.16,30.86,30.86,0,0,1-4.3.15c-.62,0-.83.19-.82.82,0,1.88,0,3.75,0,5.63,0,.94-.29,1.16-1.15,1.09a14.86,14.86,0,0,0-2.75,0c-1,.11-1.23-.32-1.21-1.28C173.24,207.32,173.2,204.25,173.2,201.18Zm5.07-3.67c0,.64,0,1.28,0,1.91,0,.42.06.7.58.68.95,0,1.92,0,2.87-.07a2.25,2.25,0,0,0,2.1-1.68,2.57,2.57,0,0,0-2.32-3.51C178.27,194.5,178.27,194.5,178.27,197.51Z" style="fill:#fefefe"/><path d="M16.2,201.12c0-3.08,0-6.15,0-9.23,0-.83.12-1.19,1.09-1.17,3.59.06,7.19,0,10.78,0,.75,0,1,.16,1,1,0,3.12,0,3.12-3.07,3.12-1.28,0-2.56,0-3.83,0-.59,0-.83.12-.85.78C21.18,199,21.16,199,24.6,199c.24,0,.48,0,.72,0,.91.07,2.3-.41,2.61.2.46.89.17,2.17.2,3.28,0,.57-.39.49-.74.49-1.68,0-3.36,0-5,0-.74,0-1.1.13-1,1,.09,1.14-.36,2.65.21,3.36s2.17.18,3.32.23a31.64,31.64,0,0,0,3.23,0c.83,0,1,.27,1,1,0,3.12,0,3.12-3.07,3.12-2.92,0-5.84,0-8.75,0-.85,0-1.08-.25-1.07-1.08C16.23,207.43,16.2,204.27,16.2,201.12Z" style="fill:#fefefe"/><path d="M46.56,201.18c0-3.15,0-6.31,0-9.46,0-.79.23-1,1-1,3.6,0,7.19,0,10.79,0,.74,0,1,.14,1,1,0,3.13,0,3.13-3.06,3.13-1.27,0-2.55,0-3.83,0-.57,0-.89.08-.85.77a23.08,23.08,0,0,1,0,2.63c0,.67.27.81.85.8,1.68,0,3.36,0,5,0,.69,0,1,.14,1,.92.08,3.06.11,3.06-3,3.06H55c-3.8,0-3.83.05-3.41,4,.08.72.48.6.9.6,1.92,0,3.84,0,5.75,0,.8,0,1.1.14,1.1,1,0,3.11,0,3.11-3.08,3.11-2.92,0-5.83,0-8.75,0-.8,0-1-.25-1-1C46.58,207.49,46.56,204.34,46.56,201.18Z" style="fill:#fefefe"/><path d="M210.1,203.22c0,2.48,0,5,0,7.43,0,.78-.21,1.06-1,1a23.06,23.06,0,0,0-3.11,0c-.87.06-1.06-.28-1.05-1.09,0-4.75,0-9.51.05-14.26,0-1.3-.39-1.62-1.59-1.51s-2.15,0-3.23,0c-.57,0-.83-.17-.76-.75a.48.48,0,0,0,0-.12c-.12-3.22-.12-3.22,3.07-3.22,4,0,8.07,0,12.1,0,.82,0,1.08.2,1.08,1.05,0,3,0,3-3,3-2.54,0-2.54,0-2.54,2.53Z" style="fill:#fefefe"/><path d="M115.9,203.33c0,2.48,0,5,0,7.44,0,.65-.15.93-.85.89a25,25,0,0,0-3.24,0c-.93.08-1-.36-1-1.12,0-4.83,0-9.67,0-14.5,0-1-.26-1.32-1.26-1.24s-2.23,0-3.35,0c-.69,0-1-.11-1-.9,0-3.19-.07-3.19,3.12-3.19,4,0,8,0,12,0,.81,0,1.08.17,1.08,1,0,3.06,0,3.06-3,3.06-2.56,0-2.56,0-2.56,2.52Z" style="fill:#fefefe"/><path d="M32.37,201.13c0-3.15,0-6.31,0-9.46,0-.72.18-1,.94-.94a21.32,21.32,0,0,0,3,0c.91-.06,1.21.19,1.2,1.16-.06,4.87,0,9.74,0,14.61,0,1,.21,1.33,1.23,1.26,1.55-.09,3.11,0,4.67,0,.63,0,.8.21.82.83.13,3.1.15,3.1-3,3.1-2.59,0-5.18,0-7.78,0-.85,0-1.06-.27-1-1.09C32.4,207.43,32.37,204.28,32.37,201.13Z" style="fill:#fefefe"/><path d="M196.9,201.18c0,3.15,0,6.3,0,9.45,0,.75-.15,1.09-1,1-1.12-.07-2.24,0-3.35,0-.62,0-.84-.2-.83-.82q0-9.65,0-19.28c0-.61.16-.91.8-.82h.12c1.38.1,3.15-.58,4,.28s.19,2.5.2,3.81C196.92,196.94,196.9,199.06,196.9,201.18Z" style="fill:#fefefe"/><path d="M185.92,52.09l.49.14a.12.12,0,0,0,0,.13A.46.46,0,0,1,185.92,52.09Z" style="fill:#474f5a"/><path d="M176.56,34.17a66,66,0,0,1-5.15-6.53,54.71,54.71,0,0,1-8.36-15.17,15.47,15.47,0,0,1-.9-5A2.25,2.25,0,0,1,165,4.94a11.36,11.36,0,0,1,2.43.6,68.38,68.38,0,0,1,19.35,10.34c2.8,2.22,5.5,4.56,8.17,6.94,3.71,3.28,7.18,6.81,10.56,10.4a106.45,106.45,0,0,1,9.9,12.17,61.74,61.74,0,0,1,7.19,13.21,1.66,1.66,0,0,1-1.29-.47A136.49,136.49,0,0,0,210.35,50c-4.18-2.82-8.66-5.15-13-7.7,3.14-2.7,1.82-5.86-.28-8.5-1.78-2.23-3.95-3.89-7.09-3.72a5,5,0,0,0-3.44,1.82,44.82,44.82,0,0,1-3.7,4,42.94,42.94,0,0,0-5.32-2C177.06,33.7,176.75,33.69,176.56,34.17Z" style="fill:#fefefe"/><path d="M197.34,42.25c4.35,2.55,8.83,4.88,13,7.7a136.49,136.49,0,0,1,10.94,8.18,1.66,1.66,0,0,0,1.29.47,17.79,17.79,0,0,1,1.4,4.68c.46,2.82-1.07,4.18-3.82,3.44A58.56,58.56,0,0,1,199,55.92q-3.51-2.79-7-5.62c-1.5-1.23-1.49-1.26-.16-2.58Z" style="fill:#fff"/><path d="M176.56,34.17c.19-.48.5-.47.95-.32a42.94,42.94,0,0,1,5.32,2,5.46,5.46,0,0,1-2.22,2.22c-.51.35-.9,0-1.22-.36C178.44,36.52,177.5,35.34,176.56,34.17Z" style="fill:#fff"/><path d="M96.65,110.51a2.82,2.82,0,0,1,1-2.23q15.4-15.36,30.76-30.77c.58-.59.88-.61,1.48,0q10.58,10.64,21.2,21.19c.71.7.72,1.08,0,1.79-3.12,3-6.29,6-9.22,9.25a13,13,0,0,1-7.41,4.23,6.25,6.25,0,0,0-4.8,3.67,56.84,56.84,0,0,1-5.63,9.73,31.08,31.08,0,0,1-3.85,3.93,3.55,3.55,0,0,1-3.29.59c-3.21-.61-5.81-2.42-8.25-4.42a43.17,43.17,0,0,1-10.33-11.71A10.35,10.35,0,0,1,96.65,110.51Zm15.63-3.9a2,2,0,0,0,.64,1.65c2.34,2.35,4.66,4.71,7,7a2.25,2.25,0,0,0,3.41,0,23,23,0,0,0,1.78-1.78,2.2,2.2,0,0,0,0-3.3q-3.51-3.62-7.12-7.12a2.07,2.07,0,0,0-3-.14,12.25,12.25,0,0,0-2.28,2.27A1.85,1.85,0,0,0,112.28,106.61ZM119,99.88c-.07,1.22.9,1.8,1.55,2.58s1,.81,1.7.06,1.13-1.15.11-1.86c-.76-.52-.81-1.14-.08-1.75.36-.3.71-.66,1.27-.36.85.47,2,2,1.81,2.56-.37,1.3-.72,2.61-1.15,3.89a1.26,1.26,0,0,0,.38,1.49c1.06,1,2.12,2.06,3.13,3.14.53.57.87.45,1.35,0,1-1,2-2,3-3.06,1.71-1.74,1.75-1.25,0-3-.33-.33-.7-1.07-1.23-.6s-1.6.75-1.08,1.94c.3.71-.55,1-.88,1.41a.53.53,0,0,1-.72.22,2,2,0,0,1-1-2.25,10.91,10.91,0,0,1,.52-1.71c.93-1.89.42-3.22-1.12-4.64-3.25-3-3.82-3.07-6.79.23l-.16.17A2.13,2.13,0,0,0,119,99.88Zm-9.27,9.31c-1,0-1.28.17-3,1.92a3.17,3.17,0,0,0,.87,5.4.64.64,0,0,0,.57,0,1.43,1.43,0,0,0,.59-2.44c-.29-.33-.72-.64-.33-1.12s.64-1,1.3-.94c.93,0,2.35,2.08,2.08,3-.35,1.18-.69,2.37-1.06,3.55a1.34,1.34,0,0,0,.39,1.51q1.56,1.48,3.05,3c.51.53.88.51,1.38,0,1.19-1.24,2.38-2.5,3.66-3.64.82-.72.82-1.25,0-1.86a3.33,3.33,0,0,1-.42-.42c-1.23-1.22-1.22-1.21-2.36,0-.33.36-.58.65-.13,1.1a.46.46,0,0,1-.07.73c-.47.38-.77,1.26-1.53.85s-1.43-.94-1.08-2,.71-2.37,1.06-3.55a1.54,1.54,0,0,0-.46-1.73c-.88-.81-1.69-1.7-2.56-2.52A2.44,2.44,0,0,0,109.72,109.19Zm16-16.18c0,1.23.9,1.78,1.53,2.53s1.16.88,1.91.07c.59-.63.75-1,0-1.62a1.11,1.11,0,0,1-.1-1.91c.77-.74,1.2-.2,1.81.26a2.41,2.41,0,0,1,.86,3.38c-.21.42-.24.93-.43,1.36a2.38,2.38,0,0,0,.76,3.31,20.3,20.3,0,0,1,2.38,2.35c.47.51.86.61,1.38.06,1.28-1.32,2.59-2.61,3.89-3.91.26-.25.59-.55.28-.91-.58-.66-1.22-1.27-1.86-1.87a.48.48,0,0,0-.74.1c-.4.6-1.57.8-.83,2,.27.45-.63.89-1,1.29a.65.65,0,0,1-1-.12c-.46-.47-1.09-.85-.81-1.71.42-1.24.76-2.51,1.17-3.76a1.11,1.11,0,0,0-.24-1.31c-1-1-2-2.06-3.06-3a2.23,2.23,0,0,0-3.33-.06,27.77,27.77,0,0,0-2,2A1.9,1.9,0,0,0,125.72,93Z" style="fill:#84bc4b"/><path d="M167.65,121.43a3.54,3.54,0,0,1,.85.21,10,10,0,0,1,4.62,4.51,3.07,3.07,0,0,1-.79,3.52c-2.54,2.83-5.42,5.31-8.1,8-1.92,1.93-3.85,3.84-5.67,5.86-2,2.22-4.1,2.26-6.16.14a17.57,17.57,0,0,1-2.2-2.36c-1.06-1.59-1-3,.29-4.34,4.77-4.84,9.46-9.75,14.38-14.43A3.9,3.9,0,0,1,167.65,121.43Z" style="fill:#fefefe"/><path d="M172.29,131.75c2.51,0,6.36,4,6.23,6.16a3.69,3.69,0,0,1-1.25,2.38c-3.62,3.61-7.23,7.21-10.88,10.78a3.2,3.2,0,0,1-4.87,0c-.82-.81-1.65-1.62-2.45-2.46a3.29,3.29,0,0,1,0-4.64q5.16-5.25,10.37-10.44A5,5,0,0,1,172.29,131.75Z" style="fill:#fefefe"/><path d="M141.64,131.72c0-.28.06-.55.12-.83.29-1.47.55-1.62,1.78-.86,1.53.93,3.14.76,4.77.54a20.7,20.7,0,0,0,9.54-3.53,5.79,5.79,0,0,0,1.78-2.06c.35-.67.19-1-.53-1.23a32.41,32.41,0,0,1-6.62-3c-.65-.34-.83-.61-.22-1.19,1.73-1.66,3.39-3.39,5.14-5a3.16,3.16,0,0,1,4.35-.15,20.32,20.32,0,0,1,3,3,3.16,3.16,0,0,1-.21,4.35c-4.76,4.78-9.53,9.56-14.34,14.28-2,2-3.56,1.91-5.6,0-.7-.66-1.34-1.37-2-2A2.9,2.9,0,0,1,141.64,131.72Z" style="fill:#fefefe"/><path d="M151.92,105.82H152c1.91.1,5.47,3.54,5.64,5.44a3.32,3.32,0,0,1-.92,2.75c-1.78,1.79-3.58,3.55-5.34,5.34a.71.71,0,0,1-1,.14,67.35,67.35,0,0,1-7.25-5.08c-.5-.41-.61-.74-.09-1.24,2.19-2.11,4.33-4.26,6.51-6.38A3.07,3.07,0,0,1,151.92,105.82Z" style="fill:#fefefe"/><path d="M141.13,133.36l-4-2.75c-.16-.11-.36-.22-.28-.45a.43.43,0,0,1,.57-.3,6.13,6.13,0,0,0,3.11.57c.33-.07.3.3.29.52A8,8,0,0,0,141.13,133.36Z" style="fill:#84bc4b"/><path d="M141.72,128.93a3.39,3.39,0,0,1-3.58.36c-.5-.18-.58-.57-.24-.93s.2-1.39,1.15-.92S140.76,128.39,141.72,128.93Z" style="fill:#f6f6f6"/><path d="M174.84,143.92c0-.1.12-.22.23-.12s0,.19,0,.3Z" style="fill:#fefefe"/><path d="M119.11,247.19c-.78,3.37-1.53,6.66-2.29,9.95-.37,1.59-.52,1.63-3,1.48-1.29-.08-1-1.06-1-1.77-.49-4.19-.93-8.38-1.39-12.58-.18-1.66-.35-3.32-.54-5-.06-.59.17-.95.75-1a13.51,13.51,0,0,1,1.8,0,.8.8,0,0,1,.85.81c.11,1.27.29,2.53.39,3.8.21,2.5.38,5,.76,7.55l1.2-5.61c.39-1.83.83-3.65,1.15-5.49.17-1,.79-1.08,1.55-1.09a1.19,1.19,0,0,1,1.35,1.06c.74,3.62,1.5,7.24,2.32,11.22a19.87,19.87,0,0,0,.55-4.18c.25-2.29.37-4.6.54-6.91.06-.79.39-1.27,1.28-1.2.52.05,1,0,1.56.05a.71.71,0,0,1,.69.91l-1.26,10.91c-.28,2.45-.62,4.89-.83,7.35-.08.89-.41,1.16-1.26,1.15-2.72,0-2.23.17-2.8-2.18-.73-3-1.41-6-2.11-9.06C119.34,247.36,119.29,247.34,119.11,247.19Z" style="fill:#fff"/><path d="M135.63,258.6c-.6,0-1.21,0-1.8,0a3.07,3.07,0,0,1-3.09-3c-.07-.87-.13-1.75-.16-2.62,0-.72.28-1.14,1.08-1,.2,0,.4,0,.6,0,1.83,0,1.83,0,1.85,1.79,0,1.38.22,1.53,1.63,1.58,1.12,0,1.57-.33,1.56-1.52,0-2.86,0-2.86-2.66-3.74-.95-.32-1.88-.67-2.84-.93a1.47,1.47,0,0,1-1.22-1.56,44.8,44.8,0,0,1,.17-6.45,3,3,0,0,1,2.58-2.61,14.42,14.42,0,0,1,4.4,0,3.12,3.12,0,0,1,3.07,3.19c0,.44,0,.88,0,1.32,0,2.22-.47,2.59-2.7,2.2-1.06-.18-.83-1-.84-1.69,0-1.65-.91-2.26-2.46-1.67,0,0-.09,0-.11,0-1.22,1-.35,2.3-.58,3.45a.89.89,0,0,0,.7,1.17c1.57.46,3.09,1.08,4.66,1.52a1.63,1.63,0,0,1,1.34,1.92c-.05,1.6,0,3.2,0,4.8,0,2.69-1.27,3.92-4,3.93h-1.19Z" style="fill:#fff"/><path d="M143.74,248.42c0-2.95,0-5.91,0-8.87,0-.93.31-1.3,1.24-1.29,2.6,0,5.19,0,7.79,0,.74,0,1.09.24,1.08,1,0,2.87.26,2.46-2.38,2.49-1.15,0-2.31,0-3.47,0-.69,0-.91.25-.89.91q0,1.62,0,3.24c0,.67.28.93.94.91,1.11,0,2.23,0,3.35,0,.7,0,1,.19,1,.94,0,2.81.23,2.41-2.32,2.42-3,0-3,0-3,2.91,0,2.16,0,2.16,2.13,2.16,1.19,0,2.39,0,3.59,0,.69,0,1,.16,1,.93.07,2.43.1,2.43-2.37,2.43-2.08,0-4.16-.07-6.24,0-1.26.06-1.55-.41-1.52-1.59C143.79,254.18,143.74,251.3,143.74,248.42Z" style="fill:#fff"/><path d="M160.29,248.66c0,3,0,5.91,0,8.87,0,.82-.24,1.12-1.09,1.1-2.67-.06-2.3.21-2.31-2.31,0-5.51,0-11,0-16.53,0-1,.18-1.44,1.31-1.39,2.44.11,2.08-.25,2.1,2.11C160.31,243.23,160.29,246,160.29,248.66Z" style="fill:#fff"/><path d="M128.36,200.37a5.12,5.12,0,0,1,2.85-4.67,5.53,5.53,0,0,1,6.09.49c2.15,1.6,2.79,5.33,1.41,8.09s-3.68,3.32-6.6,2.68C129.74,206.43,128.37,204.12,128.36,200.37Z" style="fill:#f09107"/><path d="M154.61,200.13c-2.06,0-2.06,0-2.06-2.06a4.7,4.7,0,0,1,0-.84c.12-.76-.38-1.67.3-2.25s4.22.05,4.76.54a2.73,2.73,0,0,1,.74,2.86c-.3,1.2-1.23,1.73-3,1.75Z" style="fill:#f09107"/><path d="M93.55,196.39c.87,2.54,1.62,4.75,2.38,7,.17.5-.05.63-.51.62-1.2,0-2.39,0-3.58,0-.76,0-.76-.31-.57-.87C92,201,92.72,198.83,93.55,196.39Z" style="fill:#f09107"/><path d="M178.27,197.51c0-3,0-3,3.22-2.67a2.57,2.57,0,0,1,2.32,3.51,2.25,2.25,0,0,1-2.1,1.68c-1,.1-1.92,0-2.87.07-.52,0-.59-.26-.58-.68C178.28,198.79,178.27,198.15,178.27,197.51Z" style="fill:#f09107"/><path d="M112.28,106.61a1.85,1.85,0,0,1,.45-1.42,12.25,12.25,0,0,1,2.28-2.27,2.07,2.07,0,0,1,3,.14q3.61,3.51,7.12,7.12a2.2,2.2,0,0,1,0,3.3,23,23,0,0,1-1.78,1.78,2.25,2.25,0,0,1-3.41,0c-2.37-2.31-4.69-4.67-7-7A2,2,0,0,1,112.28,106.61Zm10.81,5.48a1.21,1.21,0,0,0-.46-1.1c-1.81-1.81-3.63-3.6-5.41-5.43-.65-.66-1.14-.49-1.72.08s-.78,1.06-.11,1.71c1.85,1.82,3.68,3.67,5.51,5.5.33.33.72.62,1.15.3S123.05,112.46,123.09,112.09Z" style="fill:#474f5a"/><path d="M119,99.88a2.13,2.13,0,0,1,.57-1.64l.16-.17c3-3.3,3.54-3.22,6.79-.23,1.54,1.42,2,2.75,1.12,4.64a10.91,10.91,0,0,0-.52,1.71,2,2,0,0,0,1,2.25.53.53,0,0,0,.72-.22c.33-.46,1.18-.7.88-1.41-.52-1.19.55-1.48,1.08-1.94s.9.27,1.23.6c1.79,1.8,1.75,1.31,0,3-1,1-2.05,2-3,3.06-.48.5-.82.62-1.35,0-1-1.08-2.07-2.12-3.13-3.14a1.26,1.26,0,0,1-.38-1.49c.43-1.28.78-2.59,1.15-3.89.16-.55-1-2.09-1.81-2.56-.56-.3-.91.06-1.27.36-.73.61-.68,1.23.08,1.75,1,.71.48,1.2-.11,1.86s-1.12.62-1.7-.06S118.92,101.1,119,99.88Z" style="fill:#474f5a"/><path d="M109.72,109.19a2.44,2.44,0,0,1,1.88.91c.87.82,1.68,1.71,2.56,2.52a1.54,1.54,0,0,1,.46,1.73c-.35,1.18-.68,2.37-1.06,3.55s.38,1.62,1.08,2,1.06-.47,1.53-.85a.46.46,0,0,0,.07-.73c-.45-.45-.2-.74.13-1.1,1.14-1.23,1.13-1.24,2.36,0a3.33,3.33,0,0,0,.42.42c.86.61.86,1.14,0,1.86-1.28,1.14-2.47,2.4-3.66,3.64-.5.52-.87.54-1.38,0q-1.49-1.56-3.05-3a1.34,1.34,0,0,1-.39-1.51c.37-1.18.71-2.37,1.06-3.55.27-.89-1.15-2.93-2.08-3-.66,0-1,.52-1.3.94s0,.79.33,1.12a1.43,1.43,0,0,1-.59,2.44.64.64,0,0,1-.57,0,3.17,3.17,0,0,1-.87-5.4C108.44,109.36,108.73,109.17,109.72,109.19Z" style="fill:#474f5a"/><path d="M125.72,93a1.9,1.9,0,0,1,.55-1.46,27.77,27.77,0,0,1,2-2,2.23,2.23,0,0,1,3.33.06c1.06,1,2,2,3.06,3a1.11,1.11,0,0,1,.24,1.31c-.41,1.25-.75,2.52-1.17,3.76-.28.86.35,1.24.81,1.71a.65.65,0,0,0,1,.12c.41-.4,1.31-.84,1-1.29-.74-1.21.43-1.41.83-2a.48.48,0,0,1,.74-.1c.64.6,1.28,1.21,1.86,1.87.31.36,0,.66-.28.91-1.3,1.3-2.61,2.59-3.89,3.91-.52.55-.91.45-1.38-.06a20.3,20.3,0,0,0-2.38-2.35,2.38,2.38,0,0,1-.76-3.31c.19-.43.22-.94.43-1.36a2.41,2.41,0,0,0-.86-3.38c-.61-.46-1-1-1.81-.26a1.11,1.11,0,0,0,.1,1.91c.74.58.58,1,0,1.62-.75.81-1.27.72-1.91-.07S125.7,94.24,125.72,93Z" style="fill:#474f5a"/><path d="M123.09,112.09c0,.37-.57.72-1,1.06s-.82,0-1.15-.3c-1.83-1.83-3.66-3.68-5.51-5.5-.67-.65-.46-1.14.11-1.71s1.07-.74,1.72-.08c1.78,1.83,3.6,3.62,5.41,5.43A1.21,1.21,0,0,1,123.09,112.09Z" style="fill:#84bc4b"/></g></g></svg>