<svg width="495" height="545" viewBox="0 0 495 545" fill="none" xmlns="http://www.w3.org/2000/svg">
<g filter="url(#filter0_d_520_357)">
<circle cx="247.275" cy="273.275" r="183.004" transform="rotate(27.8321 247.275 273.275)" fill="#474F5A"/>
</g>
<rect x="31.0001" y="296" width="433" height="90" rx="30" fill="#F19106"/>
<path d="M64.5624 331.592V338.249H75.298V344.438H64.5624V351.657H76.7044V358.08H56.546V325.17H76.7044V331.592H64.5624ZM89.9253 351.891H100.426V358.08H81.9088V325.17H89.9253V351.891ZM112.267 331.592V338.249H123.002V344.438H112.267V351.657H124.408V358.08H104.25V325.17H124.408V331.592H112.267ZM160.507 325.17L148.834 358.08H138.801L127.128 325.17H135.66L143.817 350.016L152.021 325.17H160.507ZM184.344 352.266H172.061L170.092 358.08H161.701L173.608 325.17H182.89L194.798 358.08H186.313L184.344 352.266ZM182.281 346.078L178.202 334.03L174.171 346.078H182.281ZM222.096 325.17V331.592H213.377V358.08H205.36V331.592H196.641V325.17H222.096ZM241.684 358.408C238.59 358.408 235.746 357.689 233.152 356.251C230.589 354.814 228.542 352.813 227.01 350.251C225.51 347.657 224.76 344.75 224.76 341.531C224.76 338.312 225.51 335.421 227.01 332.858C228.542 330.295 230.589 328.295 233.152 326.858C235.746 325.42 238.59 324.701 241.684 324.701C244.778 324.701 247.606 325.42 250.169 326.858C252.763 328.295 254.795 330.295 256.264 332.858C257.764 335.421 258.514 338.312 258.514 341.531C258.514 344.75 257.764 347.657 256.264 350.251C254.763 352.813 252.732 354.814 250.169 356.251C247.606 357.689 244.778 358.408 241.684 358.408ZM241.684 351.094C244.309 351.094 246.403 350.219 247.966 348.469C249.56 346.719 250.357 344.406 250.357 341.531C250.357 338.624 249.56 336.312 247.966 334.593C246.403 332.843 244.309 331.967 241.684 331.967C239.027 331.967 236.902 332.827 235.308 334.546C233.746 336.265 232.964 338.593 232.964 341.531C232.964 344.438 233.746 346.766 235.308 348.516C236.902 350.235 239.027 351.094 241.684 351.094ZM279.757 358.08L272.912 345.656H270.99V358.08H262.974V325.17H276.428C279.022 325.17 281.226 325.623 283.038 326.529C284.882 327.436 286.257 328.686 287.164 330.28C288.07 331.842 288.523 333.593 288.523 335.53C288.523 337.718 287.898 339.671 286.648 341.39C285.429 343.109 283.616 344.328 281.21 345.047L288.805 358.08H279.757ZM270.99 339.984H275.959C277.428 339.984 278.522 339.624 279.241 338.906C279.991 338.187 280.366 337.171 280.366 335.858C280.366 334.608 279.991 333.624 279.241 332.905C278.522 332.186 277.428 331.827 275.959 331.827H270.99V339.984ZM328.571 335.765C328.571 337.671 328.133 339.421 327.258 341.015C326.383 342.578 325.039 343.844 323.227 344.813C321.414 345.781 319.164 346.266 316.476 346.266H311.507V358.08H303.49V325.17H316.476C319.101 325.17 321.32 325.623 323.133 326.529C324.945 327.436 326.305 328.686 327.211 330.28C328.118 331.874 328.571 333.702 328.571 335.765ZM315.866 339.89C317.398 339.89 318.539 339.531 319.289 338.812C320.039 338.093 320.414 337.077 320.414 335.765C320.414 334.452 320.039 333.436 319.289 332.718C318.539 331.999 317.398 331.639 315.866 331.639H311.507V339.89H315.866ZM340.761 325.17V358.08H332.744V325.17H340.761ZM370.245 325.17V331.592H361.525V358.08H353.508V331.592H344.789V325.17H370.245ZM372.908 341.578C372.908 338.327 373.612 335.437 375.018 332.905C376.424 330.342 378.378 328.358 380.878 326.951C383.409 325.514 386.269 324.795 389.457 324.795C393.364 324.795 396.708 325.826 399.489 327.889C402.271 329.952 404.13 332.764 405.068 336.327H396.255C395.598 334.952 394.661 333.905 393.442 333.186C392.254 332.467 390.895 332.108 389.363 332.108C386.894 332.108 384.894 332.968 383.363 334.686C381.831 336.405 381.065 338.703 381.065 341.578C381.065 344.453 381.831 346.75 383.363 348.469C384.894 350.188 386.894 351.048 389.363 351.048C390.895 351.048 392.254 350.688 393.442 349.969C394.661 349.251 395.598 348.204 396.255 346.828H405.068C404.13 350.391 402.271 353.204 399.489 355.267C396.708 357.298 393.364 358.314 389.457 358.314C386.269 358.314 383.409 357.611 380.878 356.204C378.378 354.767 376.424 352.782 375.018 350.251C373.612 347.719 372.908 344.828 372.908 341.578ZM438.48 325.17V358.08H430.464V344.531H417.994V358.08H409.977V325.17H417.994V338.062H430.464V325.17H438.48Z" fill="white"/>
<path d="M204.096 422.862C204.946 422.187 205.334 421.875 205.259 421.925C207.709 419.9 209.634 418.237 211.034 416.937C212.459 415.637 213.659 414.275 214.634 412.85C215.609 411.425 216.096 410.037 216.096 408.687C216.096 407.662 215.859 406.862 215.384 406.287C214.909 405.712 214.196 405.425 213.246 405.425C212.296 405.425 211.546 405.787 210.996 406.512C210.471 407.212 210.209 408.212 210.209 409.512H204.021C204.071 407.387 204.521 405.612 205.371 404.187C206.246 402.762 207.384 401.712 208.784 401.037C210.209 400.362 211.784 400.025 213.509 400.025C216.484 400.025 218.721 400.787 220.221 402.312C221.746 403.837 222.509 405.825 222.509 408.275C222.509 410.95 221.596 413.437 219.771 415.737C217.946 418.012 215.621 420.237 212.796 422.412H222.921V427.625H204.096V422.862ZM225.744 413.937C225.744 409.637 226.569 406.25 228.219 403.775C229.894 401.3 232.582 400.062 236.282 400.062C239.982 400.062 242.657 401.3 244.307 403.775C245.982 406.25 246.819 409.637 246.819 413.937C246.819 418.287 245.982 421.7 244.307 424.175C242.657 426.65 239.982 427.887 236.282 427.887C232.582 427.887 229.894 426.65 228.219 424.175C226.569 421.7 225.744 418.287 225.744 413.937ZM240.519 413.937C240.519 411.412 240.244 409.475 239.694 408.125C239.144 406.75 238.007 406.062 236.282 406.062C234.557 406.062 233.419 406.75 232.869 408.125C232.319 409.475 232.044 411.412 232.044 413.937C232.044 415.637 232.144 417.05 232.344 418.175C232.544 419.275 232.944 420.175 233.544 420.875C234.169 421.55 235.082 421.887 236.282 421.887C237.482 421.887 238.382 421.55 238.982 420.875C239.607 420.175 240.019 419.275 240.219 418.175C240.419 417.05 240.519 415.637 240.519 413.937ZM249.982 422.862C250.832 422.187 251.22 421.875 251.145 421.925C253.595 419.9 255.52 418.237 256.92 416.937C258.345 415.637 259.545 414.275 260.52 412.85C261.495 411.425 261.982 410.037 261.982 408.687C261.982 407.662 261.745 406.862 261.27 406.287C260.795 405.712 260.082 405.425 259.132 405.425C258.182 405.425 257.432 405.787 256.882 406.512C256.357 407.212 256.095 408.212 256.095 409.512H249.907C249.957 407.387 250.407 405.612 251.257 404.187C252.132 402.762 253.27 401.712 254.67 401.037C256.095 400.362 257.67 400.025 259.395 400.025C262.37 400.025 264.607 400.787 266.107 402.312C267.632 403.837 268.395 405.825 268.395 408.275C268.395 410.95 267.482 413.437 265.657 415.737C263.832 418.012 261.507 420.237 258.682 422.412H268.807V427.625H249.982V422.862ZM271.406 422.862C272.256 422.187 272.643 421.875 272.568 421.925C275.018 419.9 276.943 418.237 278.343 416.937C279.768 415.637 280.968 414.275 281.943 412.85C282.918 411.425 283.406 410.037 283.406 408.687C283.406 407.662 283.168 406.862 282.693 406.287C282.218 405.712 281.506 405.425 280.556 405.425C279.606 405.425 278.856 405.787 278.306 406.512C277.781 407.212 277.518 408.212 277.518 409.512H271.331C271.381 407.387 271.831 405.612 272.681 404.187C273.556 402.762 274.693 401.712 276.093 401.037C277.518 400.362 279.093 400.025 280.818 400.025C283.793 400.025 286.031 400.787 287.531 402.312C289.056 403.837 289.818 405.825 289.818 408.275C289.818 410.95 288.906 413.437 287.081 415.737C285.256 418.012 282.931 420.237 280.106 422.412H290.231V427.625H271.406V422.862Z" fill="white"/>
<circle cx="376.5" cy="520.5" r="24.5" fill="#85BD4B"/>
<circle cx="71.5001" cy="105.5" r="24.5" fill="#85BD4B"/>
<g clip-path="url(#clip0_520_357)">
<path d="M357.984 69.0449C330.177 39.2704 299.719 23.009 287.848 25.1954C283.37 26.0202 279.679 27.7541 278.433 32.5769C275.864 42.5194 285.169 59.1925 290.706 67.7831C316.283 107.463 363.303 141.087 382.582 138.019C401.541 135.001 387.238 100.369 357.984 69.0449ZM326.335 73.7465C324.412 75.2135 322.929 77.4284 321.266 79.1789C314.595 86.2019 314.601 85.9233 313.013 84.0707C303.651 73.0609 286.119 51.277 286.078 36.608C286.062 30.8131 293.203 33.1977 296.525 34.5616C305.155 38.1035 311.733 40.5076 321.185 47.1512C335.989 57.5573 372.338 90.9477 381.266 117.212C382.324 120.324 385.251 127.133 382.068 129.691C380.187 131.202 378.054 130.22 376.053 129.634C368.814 127.513 361.605 124.782 351.834 118.664C349.979 117.502 330.175 102.74 331.038 101.906C335.059 98.0224 338.888 93.9403 342.926 90.0765C349.235 84.043 334.996 67.1397 326.335 73.7465Z" fill="#85BD4B"/>
<path d="M309.543 246.152C307.245 248.305 299.194 256.373 299.194 256.373C299.199 256.447 299.206 256.526 299.216 256.607C299.137 256.595 299.06 256.587 298.986 256.583C298.424 257.23 297.756 257.775 297.191 258.42C297.173 258.47 297.14 258.573 297.123 258.624C296.73 258.681 295.404 260.278 294.756 260.801C294.762 260.874 294.769 260.952 294.78 261.034C294.7 261.022 294.623 261.014 294.549 261.009C294.259 261.379 292.55 263.009 292.379 263.176C292.386 263.262 292.393 263.352 292.403 263.444C292.337 263.386 292.273 263.33 292.21 263.279C291.916 263.659 290.554 264.296 290.103 264.257C290.097 264.336 290.084 264.497 290.077 264.577C290.005 264.327 289.588 264.24 289.5 264.517C289.137 264.333 287.671 264.503 286.465 263.733C284.987 262.715 287.735 265.194 281.082 258.63C279.536 256.936 279.205 254.281 281.229 251.491C281.687 251.353 281.3 251.417 291.613 241.132C300.282 232.486 302.058 228.57 309.406 236.914C310.904 238.615 314.171 241.817 309.543 246.152Z" fill="white"/>
<path d="M307.024 250.514C297.883 270.382 302.842 263.335 285.05 279.609C272.033 291.516 273.898 288.882 270.032 296.289C211.24 296.289 212.582 296.276 212.582 296.276C212.609 296.262 226.39 272.73 226.405 272.704C231.696 263.662 230.99 266.565 229.259 259.907C222.955 232.217 220.653 239.483 225.783 230.835C226.559 229.422 238.782 208.188 238.95 208.019C239.606 207.359 253.224 203.323 253.394 203.394C253.663 203.527 253.787 203.82 253.982 204.037C258.921 209.486 272.6 216.869 272.6 216.869C280.73 221.433 281.907 220.126 281.378 221.292C278.509 227.617 265.378 229.296 262.299 229.825C258.559 230.468 258.814 229.513 248.772 223.959C247.461 226.137 245.226 230.044 244.96 230.519C245.942 230.926 248.237 232.513 248.489 232.623C248.648 232.793 255.205 237.396 258.689 242.748C259.99 244.054 264.252 252.069 264.801 255.02C264.801 255.02 265.675 258.651 265.675 258.651C267.572 269.324 264.435 278.587 263.052 280.431C262.84 281.415 261.994 282.115 261.729 283.074C261.974 283.175 262.214 283.293 262.45 283.422C262.885 282.615 263.338 281.814 263.842 281.049C263.827 280.936 263.79 280.814 263.872 280.723C264.222 280.158 265.074 277.988 265.133 277.912C265.121 277.8 265.096 277.682 265.174 277.593C265.623 276.911 266.522 272.903 266.562 272.733C266.58 271.517 267.941 268.126 266.543 258.327C263.881 246.427 258.645 241.667 257.898 240.211C259.561 240.945 259.871 243.421 265.312 242.109C265.239 242.915 262.978 244.885 268.161 250.537C270.058 252.606 273.247 255.265 276.223 254.689C276.416 254.652 278.549 254.051 278.561 254.241C278.835 258.851 279.987 259.671 284.669 264.006C286.016 265.253 288.073 265.789 289.872 265.583C294.849 265.013 301.265 254.987 307.024 250.514Z" fill="white"/>
<path d="M303.495 227.009C302.636 229.825 290.666 239.489 280.015 251.348C277.358 254.307 273.197 254.205 270.889 251.232C269.094 249.232 266.39 247.564 266.139 244.245C266.723 241.246 266.035 242.37 272.768 235.565C272.936 235.396 288.908 219.032 291.137 217.283C293.358 215.539 296.535 215.871 298.545 217.863C301.856 221.143 304.745 222.91 303.495 227.009Z" fill="white"/>
<path d="M290.331 216.312C290.331 216.312 290.708 215.846 281.602 224.93C265.472 241.032 266.203 240.937 263.346 241.304C261.565 241.129 260.437 240.93 258.31 238.736C254.097 234.384 254.073 235.049 253.918 232.465C253.824 230.933 254.204 229.928 255.108 228.556C255.064 228.623 257.916 230.217 258.207 230.34C261.305 231.66 273.462 229.851 279.997 224.489C281.132 223.558 281.436 223 282.372 221.332C282.535 221.089 282.49 220.781 282.561 220.511C281.859 219.402 280.666 219.991 278.64 218.856C275.613 217.663 272.671 215.955 270.101 214.537C269.471 214.19 269.581 214.249 270.858 212.868C279.371 204.447 279.048 204.639 279.918 204.299C283.862 202.76 285.722 205.105 286.823 206.203C289.638 209.012 291.171 210.122 291.413 212.473C291.549 213.805 291.208 215.285 290.331 216.312Z" fill="white"/>
<path d="M278.305 203.655C277.919 204.47 268.343 213.636 268.681 213.451C268.277 213.672 260.347 208.514 256.131 204.954C255.413 204.349 254.863 204.373 256.049 203.239C266.782 192.969 267.152 190.553 271.447 191.733C273.238 192.225 274.413 193.886 275.703 195.116C276.495 195.87 277.395 196.595 278.057 197.47C279.438 199.239 279.59 201.753 278.305 203.655Z" fill="white"/>
<path d="M269.931 182.019C246.899 204.976 250.351 202.027 247.752 202.828C235.912 206.477 238.345 204.35 233.106 214.089C226.124 227.066 225.248 226.614 220.585 231.264C211.546 240.279 177.873 205.68 183.666 196.581C183.911 196.043 234.016 146.17 234.187 146C234.227 145.989 234.307 145.967 234.348 145.956C234.611 146.149 266.18 177.685 266.495 177.999C270.155 181.649 270.371 181.675 269.931 182.019Z" fill="#85BD4B"/>
<path d="M253.973 227.966C253.693 228.33 251.641 229.644 248.947 228.684C246.816 227.925 247.492 228.073 248.979 225.207C249.377 225.202 253.802 227.831 253.973 227.966Z" fill="white"/>
<path d="M253.434 235.435C253.402 235.283 249.375 232.193 249.015 231.954C248.823 231.826 248.519 231.735 248.362 231.569C247.722 230.891 246.308 230.49 246.221 230.077C246.137 229.679 246.632 229.302 246.837 229.019C247.017 229.387 249.265 230.137 249.532 230.193C251.969 230.702 252.54 230.05 252.898 229.945C252.759 229.986 252.31 232.15 252.875 233.984C253.027 234.478 253.326 234.932 253.434 235.435Z" fill="#85BD4B"/>
<path d="M254.616 228.829C254.63 228.842 254.654 228.866 254.665 228.876L254.616 228.829Z" fill="#85BD4B"/>
<path d="M302.375 228.97C302.375 228.97 302.357 228.955 302.325 228.924L302.375 228.97Z" fill="#85BD4B"/>
<path d="M254.45 229.305C254.45 229.305 254.433 229.29 254.401 229.259L254.45 229.305Z" fill="#85BD4B"/>
<path d="M253.905 235.573C253.905 235.573 253.889 235.558 253.856 235.526L253.905 235.573Z" fill="#85BD4B"/>
<path d="M283.378 57.0443C297.778 85.5335 334.729 123.201 366.32 135.921C358.252 136.665 314.693 133.07 272.31 172.82C271.515 173.567 267.287 177.962 266.953 177.486C257.412 167.951 247.851 158.435 238.318 148.893C238.487 149.063 254.399 132.265 264.433 113.55C274.006 95.6936 279.822 74.7927 279.805 53.2253C279.805 52.4565 279.761 51.674 279.803 50.9064C279.937 48.4896 280.935 52.2123 283.378 57.0443Z" fill="#85BD4B"/>
</g>
<defs>
<filter id="filter0_d_520_357" x="14.2344" y="44.2344" width="466.081" height="466.081" filterUnits="userSpaceOnUse" color-interpolation-filters="sRGB">
<feFlood flood-opacity="0" result="BackgroundImageFix"/>
<feColorMatrix in="SourceAlpha" type="matrix" values="0 0 0 0 0 0 0 0 0 0 0 0 0 0 0 0 0 0 127 0" result="hardAlpha"/>
<feOffset dy="4"/>
<feGaussianBlur stdDeviation="25"/>
<feComposite in2="hardAlpha" operator="out"/>
<feColorMatrix type="matrix" values="0 0 0 0 0 0 0 0 0 0 0 0 0 0 0 0 0 0 0.1 0"/>
<feBlend mode="normal" in2="BackgroundImageFix" result="effect1_dropShadow_520_357"/>
<feBlend mode="normal" in="SourceGraphic" in2="effect1_dropShadow_520_357" result="shape"/>
</filter>
<clipPath id="clip0_520_357">
<rect width="227" height="296" fill="white" transform="translate(174)"/>
</clipPath>
</defs>
</svg>
