<svg width="1728" height="1112" viewBox="0 0 1728 1112" fill="none" xmlns="http://www.w3.org/2000/svg">
<path d="M-992 -638V1750H2720V-638H-992ZM851.648 479.936C852.578 479.936 853.488 480.212 854.262 480.729C855.035 481.245 855.638 481.98 855.995 482.839C856.351 483.699 856.444 484.644 856.262 485.557C856.081 486.469 855.633 487.307 854.975 487.965C854.317 488.622 853.479 489.07 852.566 489.252C851.653 489.433 850.707 489.34 849.848 488.984C848.988 488.628 848.253 488.025 847.736 487.252C847.219 486.479 846.944 485.569 846.944 484.639C846.944 483.392 847.439 482.196 848.322 481.314C849.204 480.432 850.4 479.936 851.648 479.936ZM802.649 484.639C802.649 483.733 802.918 482.847 803.423 482.094C803.928 481.34 804.645 480.754 805.484 480.409C806.322 480.064 807.244 479.976 808.133 480.156C809.022 480.336 809.837 480.776 810.475 481.42C811.113 482.064 811.546 482.883 811.717 483.773C811.889 484.664 811.792 485.584 811.439 486.42C811.086 487.255 810.493 487.966 809.735 488.463C808.977 488.961 808.088 489.222 807.181 489.213C805.975 489.202 804.823 488.715 803.974 487.858C803.125 487.002 802.649 485.845 802.649 484.639ZM801.467 503.537C802.283 502.719 803.264 502.085 804.344 501.676C805.424 501.267 806.58 501.094 807.732 501.167C808.885 501.24 810.009 501.558 811.029 502.1C812.049 502.642 812.942 503.396 813.647 504.31C815.447 502.695 817.694 501.662 820.092 501.347C819.575 500.093 819.305 498.751 819.297 497.395C819.299 494.673 820.381 492.063 822.304 490.137C823.739 488.702 825.567 487.725 827.557 487.328C829.546 486.932 831.609 487.133 833.485 487.907C835.36 488.682 836.964 489.994 838.094 491.679C839.224 493.364 839.829 495.345 839.833 497.374C839.83 499.582 839.116 501.731 837.797 503.502C836.478 505.273 834.624 506.573 832.508 507.209C833.683 509.151 834.293 511.382 834.27 513.652C834.273 516.626 833.2 519.502 831.248 521.748C829.297 523.994 826.599 525.458 823.653 525.872C820.706 526.285 817.709 525.619 815.215 523.997C812.721 522.375 810.897 519.905 810.081 517.045C809.201 517.366 808.269 517.526 807.332 517.517C805.721 517.523 804.145 517.05 802.804 516.159C801.464 515.267 800.418 513.997 799.801 512.51C799.184 511.023 799.023 509.386 799.339 507.808C799.655 506.229 800.433 504.78 801.575 503.644L801.467 503.537ZM811.8 553.316C810.746 554.368 809.359 555.023 807.876 555.169C806.393 555.314 804.905 554.942 803.666 554.115C802.427 553.287 801.513 552.056 801.08 550.631C800.647 549.205 800.721 547.674 801.29 546.297C801.859 544.92 802.887 543.783 804.201 543.079C805.514 542.375 807.031 542.148 808.493 542.437C809.954 542.725 811.271 543.51 812.219 544.66C813.167 545.809 813.687 547.252 813.69 548.741C813.692 549.591 813.526 550.432 813.202 551.217C812.878 552.002 812.401 552.715 811.8 553.316ZM827.073 573.201C825.902 573.2 824.757 572.852 823.783 572.2C822.809 571.549 822.05 570.624 821.602 569.542C821.154 568.459 821.037 567.269 821.265 566.12C821.493 564.971 822.057 563.916 822.884 563.087C823.72 562.252 824.786 561.687 825.945 561.462C827.104 561.237 828.304 561.363 829.391 561.825C830.479 562.286 831.403 563.062 832.046 564.052C832.689 565.042 833.022 566.201 833.002 567.382C832.969 568.931 832.329 570.406 831.221 571.49C830.112 572.573 828.624 573.18 827.073 573.18V573.201ZM925.48 558.598C922.365 559.371 918.219 559.758 918.348 561.97C918.601 563.882 919.084 565.757 919.787 567.553C920.059 568.828 919.877 570.157 919.272 571.312C919.214 571.393 919.163 571.479 919.121 571.569C918.37 573.309 919.615 573.867 918.864 575.714C918.815 575.847 918.758 575.976 918.692 576.1C917.329 578.1 916.088 580.18 914.975 582.328C914.758 583.735 914.952 585.174 915.534 586.473C916.145 588.088 916.366 589.824 916.179 591.541C915.993 593.257 915.404 594.905 914.46 596.351C911.861 600.453 907.199 599.315 897.597 599.443C887.995 599.572 885.782 598.134 881.765 607.604V607.905C878.973 614.583 875.578 625.879 873.796 632.085C869.58 629.796 865.857 626.699 862.839 622.971C859.822 619.244 857.568 614.958 856.208 610.359C854.847 605.76 854.406 600.939 854.91 596.17C855.414 591.4 856.853 586.777 859.145 582.564L859.51 581.899C855.34 580.485 851.902 577.475 849.953 573.528C848.003 569.582 847.701 565.022 849.113 560.853C849.399 559.983 849.766 559.142 850.209 558.341C846.813 560.15 842.88 560.68 839.127 559.833C835.373 558.986 832.049 556.818 829.761 553.726C827.472 550.634 826.371 546.822 826.659 542.986C826.946 539.151 828.603 535.546 831.327 532.829C833.4 530.713 836.028 529.225 838.91 528.534C838 526.344 837.58 523.982 837.679 521.613C837.779 519.244 838.396 516.925 839.487 514.819C840.578 512.714 842.117 510.873 843.995 509.424C845.873 507.976 848.045 506.956 850.359 506.436C850.255 505.877 850.205 505.309 850.209 504.74C850.33 502.073 851.475 499.556 853.406 497.712C855.336 495.868 857.904 494.839 860.574 494.839C863.244 494.839 865.811 495.868 867.741 497.712C869.672 499.556 870.817 502.073 870.938 504.74C870.933 505.713 870.796 506.681 870.53 507.617H871.132C871.132 506.887 871.325 506.178 871.454 505.47C872.671 499.37 875.964 493.879 880.773 489.933C885.583 485.986 891.611 483.827 897.833 483.823C898.477 483.779 899.123 483.779 899.767 483.823C901.789 485.651 903.697 487.602 905.481 489.664C907.354 491.794 909.003 494.111 910.4 496.579C912.548 500.874 918.112 515.906 918.155 520.674V521.146C917.811 525.119 915.104 526.88 916.479 530.058L916.78 530.66C916.78 530.66 928.724 551.276 928.981 553.337C929.122 553.914 929.142 554.514 929.039 555.099C928.937 555.684 928.714 556.241 928.385 556.735C928.056 557.23 927.628 557.651 927.128 557.971C926.628 558.292 926.067 558.505 925.48 558.598Z" fill="#85BD4B"/>
</svg>
