<svg width="69" height="4731" viewBox="0 0 69 4731" fill="none" xmlns="http://www.w3.org/2000/svg">
<path d="M26.4996 0C26.4996 98.6667 26.4996 356.6 26.4996 365C26.4996 375.5 39.9996 376.5 41.9996 396.5C51.5996 396.5 64.833 396.5 65.9996 396.5L61.4996 400.5L63.9996 403.5H57.4996L54.9996 400.5H31.9996M24.4996 400.5H31.9996M31.9996 400.5C31.833 402.833 30.0996 407.5 24.4996 407.5C18.8996 407.5 17.1663 402.833 16.9996 400.5C16.9996 398 18.4996 393 24.4996 393C24.4996 388.2 24.4996 382 24.4996 379.5C18.1663 380.167 5.49963 385.3 5.49963 400.5C5.49963 415.7 19.833 421.167 26.9996 422C29.6663 422 35.1996 421.1 35.9996 417.5C36.9996 413 32.4996 408.5 26.9996 411.5C21.4996 415.5 26.9996 444.667 26.9996 457.5L23.9996 1335.5C22.833 1335.67 20.2996 1335.7 19.4996 1334.5C18.4996 1333 18.4996 1324 18.4996 1321C18.5084 1323.5 22.9996 1321 22.9996 1317.5C22.9996 1320.5 29.4996 1323.5 29.4996 1321.5C29.4996 1319.9 28.4996 1333.83 27.9996 1341C25.333 1341.67 18.8996 1342.3 14.4996 1339.5C16.4996 1333.5 3.49963 1326 6.99963 1315C8.33296 1310.5 13.3996 1301.4 22.9996 1301C34.9996 1300.5 41.9996 1312 41.4996 1319C40.9996 1326 36.9996 1330 34.4996 1334C33.4996 1338.5 33.9996 1343.5 33.4996 1345C32.9996 1346.5 16.9996 1348.5 14.9996 1346C14.9996 1350 14.9996 1351.67 14.9996 1352C19.6663 1352.67 29.8996 1353.5 33.4996 1351.5C33.4996 1354 34.4996 1358.5 23.9996 1358.5C23.9996 1361.3 23.9996 1369.33 23.9996 1373L26 2321.5C19.3333 2324.83 5.39997 2331.9 2.99997 2333.5C0.599969 2335.1 1.99997 2336.5 2.99997 2337C3.99996 2337 6.19994 2336.7 6.99994 2335.5C10.4999 2334 24 2326 26 2326.5C27.9999 2327 44.4999 2335 45.4999 2336C46.4999 2337 47.4999 2338.5 46.4999 2339C45.4999 2339.5 28.9999 2347.5 27.4999 2347.5C26 2347.5 26.9999 2348.5 23.9999 2347.5C20.9999 2346.5 16.9999 2343 14.9999 2343C12.9999 2343 11.4999 2344.5 11.4999 2346.5C11.4999 2348.1 11.4999 2354.83 11.4999 2358C11.9999 2359 13.8999 2361.3 17.4999 2362.5C21.0999 2363.7 24.6666 2364 26 2364C29.1666 2363.5 35.8999 2362.2 37.4999 2361C39.4999 2359.5 40.4999 2358 40.4999 2357C40.4999 2356 40.4999 2341 40.4999 2340C40.4999 2339 15.9999 2337 5.99994 2341C3.49994 2343 4.99994 2349 4.99994 2355C12.6666 2369 26 2372.5 26 2421C26 2469.5 26 2493 26 2516.5L27 4040.67C27 4067.67 48.9999 4054.17 48.9999 4056.17C48.9999 4070.33 52.9999 4084.67 31.9999 4095.17C23.9999 4095.17 19.6666 4095.17 15.9999 4095.17V4100.67H12.9999V4103.67H40.9999V4100.67H33.4999C32.4999 4096 30.9999 4085.67 30.9999 4085.67C30.9999 4085.67 35.9999 4083.17 35.9999 4079.67C41.1999 4079.67 42.4999 4076.33 42.4999 4074.67V4064.67H11.4999V4074.17C11.8333 4075.83 13.5999 4079.17 17.9999 4079.17C17.9999 4082.77 21.3333 4085 22.9999 4085.67C22.3333 4092.83 20.9999 4104.17 19.9999 4110.67C18.9999 4117.17 18.4999 4121.67 19.9999 4128.17C21.4999 4134.67 26.9999 4143.77 26.9999 4148.17V4201.17V4695H12L17 4703.5H40.5L37 4711.5H20L25 4720H33.5L29 4726.5V4730.5" stroke="#85BD4B" stroke-width="2"/>
</svg>
