<svg width="494" height="410" viewBox="0 0 494 410" fill="none" xmlns="http://www.w3.org/2000/svg">
<g clip-path="url(#clip0_552_263)">
<path d="M144.798 386.367C146.683 388.192 148.998 389.491 151.519 390.14C154.04 390.788 156.683 390.764 159.193 390.07C165.625 388.21 169.99 382.298 173.865 376.747L185.329 360.329L175.667 362.134C168.719 363.432 161.599 364.794 155.548 368.509C149.497 372.223 144.65 378.853 145.034 386.039" fill="#E6E6E6"/>
<path d="M135.817 408.483C137.512 402.597 139.216 396.631 142.207 391.267C144.864 386.503 148.495 382.323 153.284 379.724C155.825 378.348 158.581 377.435 161.43 377.024C162.172 376.918 162.293 378.095 161.554 378.202C156.622 378.92 152.041 381.215 148.472 384.757C144.516 388.7 141.921 393.785 140.002 399.018C138.84 402.182 137.903 405.423 136.97 408.664C136.942 408.818 136.858 408.954 136.735 409.046C136.612 409.139 136.458 409.179 136.306 409.16C136.154 409.135 136.018 409.05 135.927 408.924C135.836 408.797 135.797 408.639 135.82 408.484L135.817 408.483Z" fill="#F2F2F2"/>
<path d="M322.386 171.43C323.488 171.159 324.634 171.138 325.744 171.368C326.854 171.597 327.901 172.072 328.811 172.759C329.722 173.445 330.473 174.327 331.013 175.341C331.553 176.356 331.868 177.479 331.936 178.631L358.442 186.222L347.627 195.765L324.114 187.093C322.207 187.081 320.371 186.357 318.953 185.057C317.535 183.758 316.634 181.974 316.421 180.043C316.208 178.112 316.698 176.169 317.797 174.582C318.897 172.994 320.53 171.873 322.386 171.43L322.386 171.43Z" fill="#FFE8C6"/>
<path d="M390.5 401.364L382.773 401.363L379.097 371.003L390.501 371.004L390.5 401.364Z" fill="#FFE8C6"/>
<path d="M392.47 408.995L367.557 408.994V408.673C367.558 406.053 368.579 403.54 370.398 401.687C372.216 399.835 374.682 398.794 377.254 398.794H377.255L392.47 398.795L392.47 408.995Z" fill="#2F2E41"/>
<path d="M435.773 401.364L428.046 401.363L424.371 371.003L435.773 371.004L435.773 401.364Z" fill="#FFE8C6"/>
<path d="M437.743 408.994L412.83 408.994V408.672C412.831 406.053 413.852 403.54 415.671 401.687C417.489 399.835 419.955 398.794 422.527 398.794H422.528L437.743 398.795L437.743 408.994Z" fill="#2F2E41"/>
<path d="M384.187 227.108L372.806 307.42L375.641 392.037L392.732 393.424L398.076 317.539L411.68 275.225L419.678 335.543L420.006 392.037L437.654 393.424L443.809 274.651L439.281 222.997L384.187 227.108Z" fill="#2F2E41"/>
<path d="M417.104 119.581C427.048 119.581 435.109 111.368 435.109 101.238C435.109 91.1078 427.048 82.8955 417.104 82.8955C407.161 82.8955 399.1 91.1078 399.1 101.238C399.1 111.368 407.161 119.581 417.104 119.581Z" fill="#FFE8C6"/>
<path d="M406.007 129.558L386.13 231.573C386.13 231.573 419.595 241.359 434.255 232.325C448.915 223.292 442.346 195.406 442.346 195.406L439.661 147.955L434.7 135.956L430.49 126.051L406.007 129.558Z" fill="white"/>
<path d="M400.189 201.971L407.055 127.577L401.564 131.661L382.364 138.014L381.051 190.39L367.62 259.265C367.62 259.265 377.22 278.349 389.117 246.777L400.189 201.971Z" fill="#2F2E41"/>
<path d="M391.604 145.847L382.365 138.014L361.598 183.973L338.425 178.801L337.33 192.744L370.905 206.281L393.785 173.83L391.604 145.847Z" fill="#2F2E41"/>
<path d="M427.55 185.687L430.138 125.141L439.661 132.654L456.669 137.483L454.175 185.687L457.764 260.483L439.933 266.237L434.928 219.04L427.55 185.687Z" fill="#2F2E41"/>
<path d="M428.694 234.426C428.894 233.29 429.335 232.212 429.988 231.269C430.64 230.326 431.488 229.54 432.471 228.966C433.454 228.393 434.548 228.046 435.677 227.95C436.806 227.854 437.941 228.011 439.004 228.411L456.479 206.733L460.71 220.658L443.467 239.109C442.69 240.883 441.301 242.305 439.563 243.105C437.826 243.906 435.86 244.029 434.039 243.452C432.218 242.875 430.669 241.637 429.683 239.974C428.698 238.31 428.346 236.336 428.694 234.426V234.426Z" fill="#FFE8C6"/>
<path d="M445.282 144.204L456.669 137.483L485.32 195.127L457.386 234.645L441.453 221.666L460.8 195.963L443.167 168.356L445.282 144.204Z" fill="#2F2E41"/>
<path d="M434.038 86.5739L434.911 84.7842L430.519 82.5611C430.519 82.5611 425.674 74.5297 416.906 76.7867C408.139 79.0437 404.195 80.3945 404.195 80.3945L399.814 82.6401L402.013 84.8689L398.068 86.2197L400.703 87.5535L397.637 89.3489L399.288 98.5528C399.288 98.5528 402.029 91.572 407.299 94.2397C412.57 96.9074 422.21 92.8607 422.21 92.8607L430.585 109.374C430.585 109.374 432.313 103.585 435.393 105.129C435.393 105.129 443.263 92.3596 434.038 86.5739Z" fill="#2F2E41"/>
<path d="M324.674 113.484H324.558L258.531 142.208L168.192 181.508C167.839 181.659 167.46 181.738 167.077 181.74C166.694 181.742 166.315 181.667 165.96 181.52L72.7569 142.126L5.1074 113.531L5.00407 113.484H4.8889C3.8215 113.486 2.79816 113.918 2.04339 114.687C1.28862 115.456 0.864073 116.499 0.862885 117.586V295.716C0.864075 296.804 1.28862 297.846 2.04339 298.615C2.79815 299.384 3.8215 299.817 4.8889 299.818H324.674C325.741 299.817 326.764 299.384 327.519 298.615C328.274 297.846 328.698 296.804 328.7 295.716V117.586C328.698 116.499 328.274 115.456 327.519 114.687C326.764 113.918 325.741 113.486 324.674 113.484V113.484Z" fill="white"/>
<path d="M324.961 114.657C324.843 114.657 324.729 114.62 324.632 114.552L165.569 1.69461C165.085 1.35275 164.51 1.17006 163.921 1.17108C163.332 1.17211 162.757 1.35679 162.274 1.70033L4.35637 114.55C4.23146 114.639 4.07697 114.674 3.92684 114.647C3.77671 114.62 3.64322 114.534 3.55569 114.407C3.46815 114.28 3.43373 114.122 3.45998 113.969C3.48624 113.816 3.57101 113.68 3.6957 113.591L161.614 0.740749C162.29 0.259885 163.094 0.00138612 163.919 5.55884e-06C164.743 -0.001375 165.549 0.254427 166.226 0.733024L325.29 113.59C325.39 113.661 325.466 113.763 325.505 113.881C325.545 113.999 325.546 114.127 325.51 114.246C325.473 114.365 325.4 114.469 325.301 114.543C325.202 114.617 325.083 114.657 324.961 114.657L324.961 114.657Z" fill="#3F3D56"/>
<path d="M13.3801 118.658L164.077 4.875L315.917 126.754L171.841 213.768L93.6205 195.603L13.3801 118.658Z" fill="#E6E6E6"/>
<path d="M100.223 267.513H25.7756C25.3184 267.514 24.8655 267.424 24.4427 267.246C24.0199 267.069 23.6355 266.809 23.3116 266.48C22.9876 266.152 22.7304 265.761 22.5547 265.331C22.379 264.901 22.2882 264.44 22.2875 263.974C22.2869 263.509 22.3763 263.047 22.5508 262.617C22.7253 262.186 22.9813 261.795 23.3043 261.466C23.6273 261.136 24.0109 260.875 24.4332 260.696C24.8555 260.518 25.3082 260.426 25.7653 260.426H100.223C100.681 260.424 101.134 260.515 101.556 260.692C101.979 260.869 102.364 261.13 102.687 261.458C103.011 261.787 103.269 262.177 103.444 262.607C103.62 263.037 103.711 263.498 103.712 263.964C103.712 264.43 103.623 264.891 103.448 265.322C103.274 265.752 103.018 266.143 102.695 266.473C102.372 266.803 101.988 267.064 101.566 267.242C101.144 267.421 100.691 267.513 100.234 267.513H100.223Z" fill="#F19106"/>
<path d="M52.4857 252.277H25.7755C25.3183 252.279 24.8654 252.188 24.4426 252.011C24.0198 251.834 23.6354 251.574 23.3115 251.245C22.9875 250.916 22.7304 250.526 22.5546 250.096C22.3789 249.666 22.2881 249.205 22.2874 248.739C22.2868 248.273 22.3762 247.812 22.5507 247.382C22.7252 246.951 22.9812 246.56 23.3042 246.23C23.6272 245.901 24.0109 245.639 24.4331 245.461C24.8554 245.282 25.3081 245.19 25.7652 245.19H52.4857C53.4074 245.19 54.2914 245.563 54.9436 246.226C55.5959 246.89 55.963 247.79 55.9643 248.729C55.9657 249.668 55.6012 250.569 54.9509 251.234C54.3006 251.899 53.4177 252.275 52.4961 252.277H52.4857Z" fill="#85BD4B"/>
<path d="M166.196 182.032C165.63 182.033 165.07 181.921 164.546 181.703L71.6066 142.415V19.4386C71.6078 18.3512 72.0324 17.3086 72.7871 16.5397C73.5419 15.7708 74.5652 15.3382 75.6326 15.3369H253.93C254.997 15.3382 256.021 15.7707 256.775 16.5397C257.53 17.3086 257.955 18.3512 257.956 19.4386V142.501L257.781 142.577L167.896 181.684C167.358 181.914 166.78 182.033 166.196 182.032V182.032Z" fill="#85BD4B"/>
<path d="M323.811 113.484H323.696L257.668 142.208L167.329 181.508C166.976 181.659 166.597 181.738 166.214 181.74C165.831 181.742 165.452 181.667 165.097 181.52L71.8941 142.126L4.24461 113.531L4.14128 113.484H4.02605C2.95864 113.486 1.9353 113.918 1.18053 114.687C0.425767 115.456 0.00121762 116.499 3.05176e-05 117.586V295.716C0.00121762 296.804 0.425767 297.846 1.18053 298.615C1.9353 299.384 2.95864 299.817 4.02605 299.818H323.811C324.878 299.817 325.901 299.384 326.656 298.615C327.411 297.846 327.836 296.804 327.837 295.716V117.586C327.836 116.499 327.411 115.456 326.656 114.687C325.901 113.918 324.878 113.486 323.811 113.484ZM326.687 295.716C326.686 296.493 326.383 297.238 325.844 297.788C325.305 298.337 324.573 298.646 323.811 298.646H4.02605C3.26344 298.646 2.53215 298.337 1.9929 297.788C1.45366 297.238 1.15057 296.493 1.15027 295.716V117.586C1.15131 116.828 1.43977 116.101 1.95536 115.555C2.47094 115.009 3.17372 114.687 3.9168 114.656L71.8941 143.391L164.655 182.604C165.659 183.02 166.784 183.014 167.784 182.586L257.668 143.479L323.926 114.656C324.668 114.689 325.369 115.012 325.883 115.557C326.397 116.103 326.685 116.83 326.686 117.586L326.687 295.716Z" fill="#3F3D56"/>
<path d="M151.727 61.3059H88.4602C87.2413 61.3038 86.073 60.8089 85.2119 59.9301C84.3507 59.0512 83.867 57.8601 83.867 56.6183C83.867 55.3765 84.3507 54.1854 85.2119 53.3065C86.073 52.4277 87.2413 51.9328 88.4602 51.9307H151.727C152.946 51.9328 154.114 52.4277 154.975 53.3065C155.837 54.1854 156.32 55.3765 156.32 56.6183C156.32 57.8601 155.837 59.0512 154.975 59.9301C154.114 60.8089 152.946 61.3038 151.727 61.3059V61.3059Z" fill="white"/>
<path d="M118.943 41.3841H88.4602C87.2399 41.3841 86.0696 40.8902 85.2067 40.0111C84.3438 39.132 83.859 37.9397 83.859 36.6964C83.859 35.4532 84.3438 34.2609 85.2067 33.3818C86.0696 32.5027 87.2399 32.0088 88.4602 32.0088H118.943C120.164 32.0088 121.334 32.5027 122.197 33.3818C123.06 34.2609 123.545 35.4532 123.545 36.6964C123.545 37.9397 123.06 39.132 122.197 40.0111C121.334 40.8902 120.164 41.3841 118.943 41.3841V41.3841Z" fill="white"/>
<path d="M212.1 108.183H115.474C114.254 108.183 113.084 107.689 112.221 106.81C111.358 105.931 110.873 104.738 110.873 103.495C110.873 102.252 111.358 101.06 112.221 100.181C113.084 99.3015 114.254 98.8076 115.474 98.8076H212.1C213.32 98.8076 214.491 99.3015 215.353 100.181C216.216 101.06 216.701 102.252 216.701 103.495C216.701 104.738 216.216 105.931 215.353 106.81C214.491 107.689 213.32 108.183 212.1 108.183V108.183Z" fill="white"/>
<path d="M212.1 129.863H115.474C114.869 129.864 114.27 129.743 113.711 129.508C113.152 129.273 112.644 128.928 112.216 128.493C111.787 128.057 111.448 127.54 111.216 126.971C110.984 126.401 110.865 125.791 110.865 125.175C110.865 124.559 110.984 123.948 111.216 123.379C111.448 122.81 111.787 122.293 112.216 121.857C112.644 121.422 113.152 121.077 113.711 120.842C114.27 120.607 114.869 120.486 115.474 120.487H212.1C212.705 120.486 213.304 120.607 213.863 120.842C214.422 121.077 214.93 121.422 215.359 121.857C215.787 122.293 216.126 122.81 216.358 123.379C216.59 123.948 216.709 124.559 216.709 125.175C216.709 125.791 216.59 126.401 216.358 126.971C216.126 127.54 215.787 128.057 215.359 128.493C214.93 128.928 214.422 129.273 213.863 129.508C213.304 129.743 212.705 129.864 212.1 129.863V129.863Z" fill="white"/>
<path d="M493.298 409.735H308.702C308.516 409.735 308.337 409.659 308.206 409.525C308.074 409.391 308 409.209 308 409.02C308 408.83 308.074 408.648 308.206 408.514C308.337 408.38 308.516 408.305 308.702 408.305H493.298C493.484 408.305 493.663 408.38 493.794 408.514C493.926 408.648 494 408.83 494 409.02C494 409.209 493.926 409.391 493.794 409.525C493.663 409.659 493.484 409.735 493.298 409.735Z" fill="#CBCBCB"/>
<path d="M171.132 409.735H103.049C102.863 409.735 102.684 409.659 102.553 409.525C102.421 409.391 102.347 409.209 102.347 409.02C102.347 408.83 102.421 408.648 102.553 408.514C102.684 408.38 102.863 408.305 103.049 408.305H171.132C171.318 408.305 171.497 408.38 171.628 408.514C171.76 408.648 171.834 408.83 171.834 409.02C171.834 409.209 171.76 409.391 171.628 409.525C171.497 409.659 171.318 409.735 171.132 409.735Z" fill="#CBCBCB"/>
<path d="M128.083 387.626C130.683 387.566 133.223 386.824 135.46 385.472C137.697 384.121 139.554 382.205 140.853 379.91C144.126 373.97 143.129 366.642 142.033 359.923L138.798 340.046L133.197 348.267C129.169 354.179 125.064 360.26 123.344 367.24C121.624 374.221 122.777 382.404 128.023 387.224" fill="#E6E6E6"/>
<path d="M137.023 409.759C134.151 404.369 131.229 398.914 129.637 392.961C128.224 387.675 127.905 382.103 129.502 376.819C130.351 374.019 131.673 371.391 133.409 369.054C133.861 368.444 134.763 369.192 134.312 369.799C131.312 373.852 129.653 378.77 129.573 383.845C129.498 389.483 131.177 394.953 133.439 400.041C134.805 403.12 136.384 406.091 137.966 409.059C138.053 409.188 138.088 409.345 138.064 409.499C138.04 409.653 137.96 409.792 137.839 409.888C137.714 409.979 137.558 410.017 137.406 409.993C137.254 409.969 137.117 409.884 137.026 409.758L137.023 409.759Z" fill="#F2F2F2"/>
</g>
<defs>
<clipPath id="clip0_552_263">
<rect width="494" height="410" fill="white"/>
</clipPath>
</defs>
</svg>
