<svg width="344" height="223" viewBox="0 0 344 223" fill="none" xmlns="http://www.w3.org/2000/svg">
<g clip-path="url(#clip0_402_180)">
<path d="M335.833 136.194H323.738C323.479 136.194 323.224 136.137 322.991 136.025C322.759 135.913 322.554 135.75 322.394 135.548C322.235 135.351 322.123 135.121 322.066 134.875C322.009 134.629 322.009 134.373 322.065 134.127C323.201 129.126 323.147 123.928 321.906 118.952C321.81 118.571 321.849 118.169 322.017 117.814C322.185 117.459 322.471 117.174 322.827 117.006C327.879 114.647 332.519 114.708 336.616 117.188C336.831 117.316 337.015 117.489 337.156 117.696C337.297 117.902 337.39 118.137 337.431 118.383C338.3 123.794 338.333 129.305 337.53 134.725C337.473 135.133 337.269 135.507 336.958 135.777C336.646 136.047 336.246 136.195 335.833 136.194Z" fill="#474F5A"/>
<path d="M335.65 128.29H326.401C326.171 128.29 325.951 128.198 325.789 128.036C325.627 127.874 325.536 127.654 325.536 127.425C325.536 127.196 325.627 126.976 325.789 126.814C325.951 126.651 326.171 126.56 326.401 126.56H335.65C335.879 126.56 336.1 126.651 336.262 126.814C336.424 126.976 336.515 127.196 336.515 127.425C336.515 127.654 336.424 127.874 336.262 128.036C336.1 128.198 335.879 128.29 335.65 128.29V128.29Z" fill="white"/>
<path d="M335.65 125.256H326.401C326.171 125.255 325.951 125.164 325.789 125.001C325.627 124.839 325.536 124.619 325.536 124.39C325.536 124.161 325.627 123.941 325.789 123.779C325.951 123.617 326.171 123.525 326.401 123.525H335.65C335.879 123.525 336.1 123.617 336.262 123.779C336.424 123.941 336.515 124.161 336.515 124.39C336.515 124.619 336.424 124.839 336.262 125.001C336.1 125.164 335.879 125.255 335.65 125.256V125.256Z" fill="white"/>
<path d="M93.614 134.985C129.111 134.985 157.887 106.282 157.887 70.8759C157.887 35.4696 129.111 6.76721 93.614 6.76721C58.1168 6.76721 29.3406 35.4696 29.3406 70.8759C29.3406 106.282 58.1168 134.985 93.614 134.985Z" fill="#F2F2F2"/>
<path d="M168.156 133.088C174.877 133.088 180.326 127.653 180.326 120.949C180.326 114.245 174.877 108.81 168.156 108.81C161.435 108.81 155.986 114.245 155.986 120.949C155.986 127.653 161.435 133.088 168.156 133.088Z" fill="#F2F2F2"/>
<path d="M229.387 160.4C232.117 160.4 234.331 158.193 234.331 155.469C234.331 152.745 232.117 150.538 229.387 150.538C226.656 150.538 224.443 152.745 224.443 155.469C224.443 158.193 226.656 160.4 229.387 160.4Z" fill="#85BD4B"/>
<path d="M267.56 174.865C265.476 158.974 255.493 143.367 240.253 138.288C246.355 154.62 246.469 172.577 240.575 188.985C238.279 195.304 235.065 202.094 237.304 208.434C238.697 212.379 242.062 215.382 245.813 217.25C249.565 219.117 253.722 219.992 257.826 220.849L258.637 221.51C265.049 206.814 269.645 190.756 267.56 174.865Z" fill="#85BD4B"/>
<path d="M240.104 138.59C249.023 148.43 254.607 160.824 256.063 174.01C256.357 176.837 256.409 179.73 255.807 182.522C255.2 185.239 253.873 187.744 251.967 189.777C250.227 191.708 248.223 193.482 246.985 195.802C245.679 198.246 245.646 201.015 246.567 203.597C247.694 206.756 249.892 209.323 252.129 211.758C254.613 214.462 257.235 217.232 258.307 220.831C258.436 221.268 259.107 221.041 258.978 220.606C257.113 214.343 250.985 210.819 248.037 205.187C246.661 202.558 246.071 199.501 247.327 196.709C248.425 194.268 250.49 192.437 252.268 190.497C254.135 188.46 255.563 186.228 256.288 183.542C257.03 180.795 257.092 177.894 256.871 175.072C256.322 168.676 254.769 162.407 252.268 156.492C249.451 149.727 245.494 143.492 240.57 138.057C240.265 137.721 239.801 138.256 240.104 138.59H240.104Z" fill="white"/>
<path d="M255.845 169.736C258.029 169.192 259.949 167.892 261.261 166.066C262.573 164.241 263.192 162.01 263.007 159.771C262.968 159.318 262.261 159.357 262.3 159.811C262.476 161.895 261.9 163.973 260.674 165.671C259.449 167.368 257.656 168.573 255.618 169.067C255.176 169.175 255.404 169.844 255.845 169.736Z" fill="white"/>
<path d="M252.978 188.913C249.011 186.585 246.069 182.85 244.74 178.454C244.608 178.019 243.937 178.245 244.068 178.68C245.46 183.252 248.53 187.132 252.664 189.546C253.058 189.776 253.37 189.142 252.978 188.913V188.913Z" fill="white"/>
<path d="M248.798 150.4C247.997 150.786 247.112 150.968 246.223 150.928C245.333 150.889 244.468 150.63 243.704 150.175C243.313 149.94 243.001 150.575 243.39 150.808C244.236 151.307 245.192 151.592 246.174 151.637C247.157 151.683 248.135 151.488 249.025 151.069C249.112 151.037 249.183 150.973 249.224 150.89C249.266 150.806 249.274 150.711 249.247 150.622C249.216 150.533 249.152 150.461 249.068 150.419C248.984 150.377 248.887 150.371 248.798 150.4V150.4Z" fill="white"/>
<path d="M194.084 166.991C194.324 167.144 194.564 167.298 194.804 167.457C198.02 169.537 201.061 171.874 203.898 174.446C204.12 174.641 204.343 174.842 204.559 175.044C211.327 181.311 216.869 188.778 220.904 197.063C222.507 200.362 223.856 203.777 224.939 207.28C226.434 212.117 227.67 217.48 230.594 221.426C230.894 221.841 231.22 222.238 231.57 222.612L257.766 222.445C257.826 222.415 257.885 222.391 257.945 222.361L258.991 222.402C258.948 222.217 258.899 222.027 258.856 221.842C258.831 221.735 258.801 221.628 258.776 221.521C258.758 221.449 258.739 221.378 258.727 221.312C258.721 221.288 258.715 221.265 258.709 221.247C258.696 221.181 258.678 221.122 258.666 221.062C258.396 219.997 258.118 218.932 257.832 217.866C257.832 217.86 257.832 217.86 257.826 217.854C255.628 209.743 252.732 201.743 248.711 194.435C248.589 194.215 248.469 193.99 248.336 193.77C246.505 190.486 244.408 187.357 242.065 184.414C240.778 182.807 239.409 181.266 237.965 179.796C234.227 176.007 229.915 172.828 225.186 170.375C215.759 165.487 204.869 163.661 194.847 166.747C194.591 166.826 194.34 166.906 194.084 166.991Z" fill="#85BD4B"/>
<path d="M194.145 167.322C207.206 169.823 219.145 176.365 228.267 186.02C230.208 188.1 231.996 190.378 233.201 192.969C234.355 195.504 234.809 198.3 234.513 201.068C234.29 203.655 233.761 206.275 234.172 208.871C234.605 211.607 236.25 213.837 238.544 215.345C241.351 217.191 244.655 217.92 247.911 218.522C251.527 219.189 255.292 219.826 258.32 222.056C258.687 222.327 259.086 221.743 258.72 221.473C253.452 217.593 246.431 218.459 240.677 215.732C237.992 214.46 235.676 212.373 234.993 209.39C234.397 206.781 234.94 204.079 235.189 201.462C235.45 198.714 235.243 196.076 234.201 193.495C233.135 190.856 231.432 188.503 229.553 186.382C225.254 181.605 220.23 177.532 214.663 174.312C208.33 170.601 201.407 167.999 194.195 166.617C193.748 166.532 193.701 167.237 194.145 167.322Z" fill="white"/>
<path d="M225.513 182.738C226.929 180.992 227.677 178.8 227.623 176.555C227.568 174.31 226.716 172.157 225.217 170.48C224.912 170.142 224.371 170.598 224.676 170.937C226.075 172.495 226.869 174.501 226.915 176.592C226.961 178.683 226.257 180.722 224.928 182.34C224.64 182.692 225.226 183.088 225.513 182.738Z" fill="white"/>
<path d="M234.8 199.771C230.227 200.295 225.624 199.079 221.909 196.368C221.541 196.099 221.142 196.683 221.509 196.951C225.38 199.766 230.173 201.021 234.931 200.466C235.384 200.412 235.251 199.719 234.8 199.771V199.771Z" fill="white"/>
<path d="M208.215 171.531C207.808 172.321 207.211 172.997 206.478 173.5C205.744 174.002 204.897 174.315 204.012 174.41C203.558 174.458 203.692 175.152 204.143 175.104C205.12 174.995 206.055 174.648 206.867 174.094C207.679 173.541 208.343 172.798 208.8 171.929C208.85 171.851 208.868 171.757 208.851 171.666C208.834 171.575 208.782 171.493 208.707 171.439C208.63 171.386 208.534 171.367 208.442 171.384C208.35 171.401 208.269 171.454 208.215 171.531H208.215Z" fill="white"/>
<path d="M319.728 112.759L316.185 78.556L315.25 64.4793L325.166 62.6909C325.166 62.6909 326.651 72.368 327.95 78.047C329.232 83.6509 326.242 112.008 326.163 112.756C326.891 113.405 327.404 114.26 327.635 115.207C327.866 116.154 327.803 117.148 327.454 118.058C327.106 118.969 326.489 119.752 325.684 120.305C324.88 120.858 323.926 121.154 322.949 121.155C321.972 121.155 321.018 120.86 320.214 120.308C319.409 119.756 318.791 118.973 318.442 118.063C318.092 117.153 318.028 116.158 318.258 115.211C318.488 114.264 319 113.409 319.728 112.759V112.759Z" fill="#FFE8C6"/>
<path d="M279.208 217.777H274.163L271.764 198.37L279.209 198.37L279.208 217.777Z" fill="#FFE8C6"/>
<path d="M280.494 222.654L264.229 222.654V222.448C264.229 220.774 264.896 219.168 266.084 217.984C267.271 216.799 268.881 216.134 270.56 216.134H270.56L273.532 213.886L279.075 216.134L280.495 216.134L280.494 222.654Z" fill="#2F2E41"/>
<path d="M323.666 217.777H318.622L316.222 198.37L323.667 198.37L323.666 217.777Z" fill="#FFE8C6"/>
<path d="M324.952 222.654L308.687 222.654V222.448C308.687 220.774 309.354 219.168 310.542 217.984C311.729 216.799 313.339 216.134 315.018 216.134H315.018L317.99 213.886L323.533 216.134L324.953 216.134L324.952 222.654Z" fill="#2F2E41"/>
<path d="M315.994 113.909L320.236 154.112C320.236 154.112 325.884 194.366 324.824 199.921C323.763 205.475 325.089 206.269 325.089 206.269L315.411 205.581C315.411 205.581 315.676 202.143 314.085 200.556C312.494 198.969 313.289 194.208 313.289 194.208L294.515 128.721L283.112 163.105C283.112 163.105 281.256 200.927 280.991 201.456C280.726 201.985 279.93 209.126 279.93 209.126H270.119C270.119 209.126 271.445 204.894 269.589 203.572C267.732 202.25 266.141 203.307 267.732 200.927C269.323 198.547 269.854 195.637 269.323 194.315C268.793 192.992 268.793 187.702 268.793 187.702C268.793 187.702 269.589 116.289 274.097 113.909C278.604 111.529 315.994 113.909 315.994 113.909Z" fill="#2F2E41"/>
<path d="M295.901 32.5084C301.664 32.5084 306.336 27.8483 306.336 22.0998C306.336 16.3513 301.664 11.6912 295.901 11.6912C290.138 11.6912 285.466 16.3513 285.466 22.0998C285.466 27.8483 290.138 32.5084 295.901 32.5084Z" fill="#FFE8C6"/>
<path d="M326.838 68.1477L316.574 71.819L313.449 72.9362L311.167 43.8684L318.997 48.0106C319.01 48.0203 319.022 48.0319 319.032 48.045C320.388 49.5388 321.523 51.2184 322.402 53.0328C326.696 61.7401 326.838 68.1477 326.838 68.1477Z" fill="#85BD4B"/>
<path d="M256.135 110.303C256.135 110.303 266.566 77.9764 266.749 77.5888C268.115 67.2401 272.045 62.6753 272.634 63.1708L282.776 66.6755C282.776 66.6755 279.759 76.2041 277.717 81.864C275.765 87.2722 262.398 112.242 262.023 112.894C262.426 113.781 262.549 114.77 262.377 115.729C262.204 116.688 261.744 117.572 261.056 118.265C260.369 118.957 259.487 119.425 258.527 119.607C257.567 119.788 256.575 119.675 255.681 119.282C254.787 118.888 254.034 118.234 253.522 117.404C253.009 116.575 252.761 115.61 252.81 114.637C252.859 113.664 253.204 112.728 253.797 111.954C254.391 111.181 255.206 110.605 256.135 110.303H256.135Z" fill="#FFE8C6"/>
<path d="M287.648 45.7404C287.648 45.7404 278.867 41.4478 275.461 49.8786C273.231 55.5644 272.174 58.0444 270.685 63.9664C270.685 63.9664 279.636 65.3059 282.506 70.351L287.648 45.7404Z" fill="#85BD4B"/>
<path d="M319.6 118.291C299.391 122.454 272.609 115.297 272.609 115.297L279.753 84.407L277.213 52.0805C276.903 48.1273 279.161 44.4217 282.672 43.1086L287.522 41.297L291.53 35.5735L302.978 35.9482L307.555 41.957L311.167 43.8682L318.997 48.0105L319.032 48.0276V48.0448L316.574 71.8188L315.092 86.1533C315.092 86.1533 319.593 102.275 318.67 104.413C317.746 106.548 318.549 105.517 318.773 106.658C318.997 107.799 319.683 107.872 319.786 110.12C319.893 112.364 319.6 118.291 319.6 118.291Z" fill="#85BD4B"/>
<path d="M307.221 18.3934C306.397 17.582 307.638 15.4337 307.403 14.3021C307.135 13.0048 305.701 12.9668 305.359 11.6867C304.992 10.3096 303.521 9.55988 302.16 9.12344C298.674 8.01069 294.954 7.84073 291.38 8.63092C289.798 9.01615 288.241 9.49468 286.716 10.064C285.663 10.4335 286.678 9.42795 285.626 9.79747C285.227 9.88606 284.875 10.1187 284.639 10.4507C284.449 10.8075 284.705 11.3783 285.103 11.306C283.818 11.8713 282.533 12.4365 281.247 13.0018C281.968 13.7549 282.689 14.5079 283.41 15.261C282.385 14.9702 281.293 16.1887 281.697 17.1718C281.859 17.4822 282.095 17.7485 282.384 17.9478C282.672 18.1471 283.005 18.2734 283.353 18.3159C284.511 18.5405 283.633 19.6394 284.812 19.618C285.991 19.5966 294.213 17.1858 294.787 18.2137C295.195 18.9457 295.15 19.9153 295.733 20.5184C296.478 21.2899 297.78 21.0078 298.729 20.5055C299.678 20.0032 300.641 19.3128 301.708 19.4332C302.823 19.559 303.666 21.6134 303.941 22.6983C304.215 23.7831 304.042 24.9246 303.867 26.0298C303.638 27.4813 301.34 28.9328 301.111 30.3842C303.66 31.0875 306.396 28.8499 307.403 24.9585C307.303 22.4986 308.978 20.1226 307.221 18.3934Z" fill="#2F2E41"/>
<path d="M144.994 153.574C114.275 153.575 87.5466 130.718 83.598 99.5415L84.3527 99.4463C88.2524 130.238 114.655 152.813 144.995 152.815C147.573 152.815 150.148 152.653 152.705 152.33C186.168 148.114 209.952 117.529 205.725 84.1528L206.479 84.0576C210.759 117.849 186.679 148.814 152.801 153.083C150.211 153.409 147.604 153.574 144.994 153.574Z" fill="#85BD4B"/>
<path d="M146.644 166.262H134.548C134.29 166.263 134.035 166.205 133.802 166.093C133.569 165.981 133.365 165.818 133.204 165.616C133.045 165.42 132.933 165.19 132.877 164.943C132.82 164.697 132.82 164.442 132.876 164.195C134.024 159.143 133.956 153.891 132.678 148.87C132.591 148.523 132.616 148.157 132.749 147.825C132.882 147.494 133.117 147.212 133.42 147.021C137.605 144.435 142.161 144.516 147.351 147.268C147.586 147.392 147.79 147.569 147.947 147.784C148.103 148 148.207 148.248 148.251 148.511C149.111 153.902 149.141 159.393 148.34 164.794C148.283 165.202 148.08 165.575 147.768 165.845C147.456 166.115 147.057 166.263 146.644 166.262V166.262Z" fill="#474F5A"/>
<path d="M91.4981 101.774H79.4026C79.1442 101.775 78.889 101.717 78.6562 101.605C78.4234 101.493 78.219 101.33 78.0584 101.128C77.8997 100.932 77.7877 100.702 77.7308 100.455C77.674 100.209 77.6738 99.9536 77.7302 99.7075C78.8822 94.6375 78.8098 89.367 77.5191 84.3304C77.4374 83.9988 77.4572 83.6504 77.5758 83.3301C77.6943 83.0097 77.9063 82.7321 78.1845 82.533C84.4039 78.0713 89.302 78.2008 92.7427 82.9185C92.8978 83.1335 93.0008 83.3815 93.0437 83.6429C93.963 89.1554 94.0139 94.7773 93.1945 100.306C93.1375 100.714 92.9343 101.087 92.6224 101.357C92.3105 101.627 91.9111 101.775 91.4981 101.774V101.774Z" fill="#85BD4B"/>
<path d="M140.992 154.939H136.832C136.602 154.939 136.382 154.847 136.219 154.685C136.057 154.523 135.966 154.303 135.966 154.074C135.966 153.845 136.057 153.625 136.219 153.463C136.382 153.301 136.602 153.209 136.832 153.209H140.992C141.222 153.209 141.443 153.3 141.606 153.462C141.769 153.624 141.86 153.845 141.86 154.074C141.86 154.304 141.769 154.524 141.606 154.686C141.443 154.848 141.222 154.939 140.992 154.939Z" fill="white"/>
<path d="M146.08 158.359H136.832C136.602 158.358 136.382 158.267 136.219 158.104C136.057 157.942 135.966 157.722 135.966 157.493C135.966 157.264 136.057 157.044 136.219 156.882C136.382 156.72 136.602 156.628 136.832 156.628H146.08C146.31 156.628 146.53 156.72 146.692 156.882C146.854 157.044 146.946 157.264 146.946 157.493C146.946 157.722 146.854 157.942 146.692 158.104C146.53 158.267 146.31 158.358 146.08 158.359Z" fill="white"/>
<path d="M87.7482 89.6928H83.5873C83.3576 89.6923 83.1374 89.6009 82.9751 89.4387C82.8128 89.2765 82.7216 89.0567 82.7216 88.8275C82.7216 88.5983 82.8128 88.3785 82.9751 88.2162C83.1374 88.054 83.3576 87.9626 83.5873 87.9622H87.7482C87.978 87.9626 88.1982 88.054 88.3605 88.2162C88.5228 88.3785 88.6139 88.5983 88.6139 88.8275C88.6139 89.0567 88.5228 89.2765 88.3605 89.4387C88.1982 89.6009 87.978 89.6923 87.7482 89.6928V89.6928Z" fill="white"/>
<path d="M87.7482 92.7275H83.5873C83.3576 92.727 83.1374 92.6356 82.9751 92.4734C82.8128 92.3112 82.7216 92.0913 82.7216 91.8621C82.7216 91.633 82.8128 91.4131 82.9751 91.2509C83.1374 91.0887 83.3576 90.9973 83.5873 90.9968H87.7482C87.978 90.9973 88.1982 91.0887 88.3605 91.2509C88.5228 91.4131 88.6139 91.633 88.6139 91.8621C88.6139 92.0913 88.5228 92.3112 88.3605 92.4734C88.1982 92.6356 87.978 92.727 87.7482 92.7275V92.7275Z" fill="white"/>
<path d="M87.7482 95.7621H83.5873C83.3576 95.7616 83.1374 95.6703 82.9751 95.508C82.8128 95.3458 82.7216 95.126 82.7216 94.8968C82.7216 94.6676 82.8128 94.4478 82.9751 94.2856C83.1374 94.1234 83.3576 94.032 83.5873 94.0315H87.7482C87.978 94.032 88.1982 94.1234 88.3605 94.2856C88.5228 94.4478 88.6139 94.6676 88.6139 94.8968C88.6139 95.126 88.5228 95.3458 88.3605 95.508C88.1982 95.6703 87.978 95.7616 87.7482 95.7621V95.7621Z" fill="white"/>
<path d="M254.289 116.027H215.624C214.588 116.026 213.595 115.615 212.862 114.884C212.129 114.153 211.717 113.162 211.716 112.129V88.3759C211.717 87.3424 212.129 86.3515 212.862 85.6206C213.595 84.8898 214.588 84.4787 215.624 84.4775H254.289C255.325 84.4787 256.319 84.8898 257.051 85.6206C257.784 86.3515 258.196 87.3424 258.197 88.3759V112.129C258.196 113.162 257.784 114.153 257.051 114.884C256.319 115.615 255.325 116.026 254.289 116.027V116.027Z" fill="#E6E6E6"/>
<path d="M238.927 112.968H218.342C217.372 112.967 216.441 112.582 215.755 111.897C215.069 111.213 214.683 110.285 214.682 109.317V91.1881C214.683 90.2201 215.069 89.2921 215.755 88.6076C216.441 87.9232 217.372 87.5382 218.342 87.5371H251.571C252.542 87.5382 253.472 87.9232 254.158 88.6076C254.845 89.2921 255.231 90.2201 255.232 91.1881V96.705C255.227 101.017 253.507 105.15 250.451 108.199C247.394 111.248 243.25 112.963 238.927 112.968V112.968Z" fill="white"/>
<path d="M248.256 97.4639H221.657C221.427 97.4639 221.206 97.3728 221.044 97.2105C220.881 97.0482 220.789 96.8282 220.789 96.5987C220.789 96.3692 220.881 96.1491 221.044 95.9868C221.206 95.8246 221.427 95.7334 221.657 95.7334H248.256C248.486 95.7334 248.707 95.8246 248.87 95.9868C249.033 96.1491 249.124 96.3692 249.124 96.5987C249.124 96.8282 249.033 97.0482 248.87 97.2105C248.707 97.3728 248.486 97.4639 248.256 97.4639V97.4639Z" fill="#474F5A"/>
<path d="M225.818 100.883H221.657C221.427 100.883 221.207 100.791 221.045 100.629C220.882 100.467 220.791 100.247 220.791 100.018C220.791 99.7887 220.882 99.5689 221.045 99.4067C221.207 99.2444 221.427 99.1531 221.657 99.1526H225.818C226.048 99.1531 226.268 99.2444 226.43 99.4067C226.592 99.5689 226.683 99.7887 226.683 100.018C226.683 100.247 226.592 100.467 226.43 100.629C226.268 100.791 226.048 100.883 225.818 100.883V100.883Z" fill="#474F5A"/>
<path d="M233.187 104.302H221.657C221.427 104.302 221.206 104.211 221.044 104.049C220.881 103.886 220.789 103.666 220.789 103.437C220.789 103.207 220.881 102.987 221.044 102.825C221.206 102.663 221.427 102.572 221.657 102.572H233.187C233.417 102.572 233.638 102.663 233.801 102.825C233.963 102.987 234.055 103.207 234.055 103.437C234.055 103.666 233.963 103.886 233.801 104.049C233.638 104.211 233.417 104.302 233.187 104.302V104.302Z" fill="#474F5A"/>
<path d="M210.367 92.1628C214.884 92.1628 218.546 88.5102 218.546 84.0046C218.546 79.499 214.884 75.8464 210.367 75.8464C205.849 75.8464 202.187 79.499 202.187 84.0046C202.187 88.5102 205.849 92.1628 210.367 92.1628Z" fill="#85BD4B"/>
<path d="M117.779 21.9448C118.32 19.2035 119.398 16.5954 120.95 14.2695C122.502 11.9436 124.498 9.94532 126.824 8.38882C131.522 5.24535 137.279 4.09212 142.83 5.18284C145.578 5.7229 148.193 6.79761 150.525 8.34561C152.857 9.89361 154.86 11.8846 156.421 14.2048C157.981 16.5251 159.068 19.1292 159.62 21.8685C160.171 24.6078 160.176 27.4286 159.635 30.1699L158.888 30.0232C159.943 24.6845 158.828 19.1465 155.789 14.6277C152.75 10.1088 148.035 6.97926 142.683 5.92744C137.33 4.87561 131.778 5.98768 127.248 9.01901C122.717 12.0503 119.58 16.7526 118.525 22.0914L117.779 21.9448Z" fill="#85BD4B"/>
<path d="M125.879 35.3676L113.793 35.8669C113.535 35.8781 113.278 35.8308 113.041 35.7287C112.803 35.6265 112.592 35.4721 112.424 35.277C112.257 35.087 112.135 34.8618 112.068 34.6182C112.001 34.3747 111.991 34.1192 112.037 33.8709C112.964 28.8269 112.694 23.6363 111.248 18.7152C111.136 18.3388 111.159 17.9355 111.312 17.574C111.465 17.2124 111.739 16.915 112.087 16.7325C117.037 14.1673 121.675 14.0372 125.872 16.3454C126.092 16.4646 126.283 16.6302 126.433 16.8307C126.582 17.0312 126.685 17.2617 126.736 17.5062C127.828 22.8761 128.09 28.3812 127.513 33.8302C127.473 34.2402 127.285 34.6218 126.985 34.9045C126.684 35.1872 126.291 35.3517 125.879 35.3676Z" fill="#474F5A"/>
<path d="M125.367 27.4782L116.127 27.8599C116.013 27.8647 115.899 27.8471 115.792 27.808C115.685 27.769 115.587 27.7093 115.503 27.6323C115.419 27.5553 115.351 27.4626 115.303 27.3595C115.255 27.2563 115.228 27.1448 115.223 27.0312C115.218 26.9176 115.236 26.8042 115.276 26.6974C115.315 26.5907 115.375 26.4927 115.452 26.4091C115.529 26.3255 115.622 26.2578 115.726 26.2101C115.829 26.1623 115.941 26.1354 116.055 26.1308L125.295 25.749C125.409 25.7443 125.523 25.762 125.63 25.8011C125.737 25.8402 125.835 25.9 125.919 25.9769C126.003 26.0539 126.07 26.1466 126.118 26.2497C126.166 26.3528 126.193 26.4643 126.198 26.5778C126.203 26.6913 126.185 26.8047 126.146 26.9114C126.107 27.0181 126.047 27.116 125.969 27.1996C125.892 27.2832 125.799 27.3509 125.696 27.3987C125.593 27.4465 125.481 27.4735 125.367 27.4782V27.4782Z" fill="white"/>
<path d="M125.241 24.446L116.001 24.8277C115.771 24.8372 115.547 24.7552 115.377 24.5998C115.208 24.4444 115.108 24.2282 115.098 23.9989C115.089 23.7696 115.171 23.546 115.327 23.3771C115.482 23.2082 115.699 23.108 115.929 23.0985L125.169 22.7168C125.399 22.7073 125.624 22.7893 125.793 22.9447C125.962 23.1001 126.063 23.3163 126.072 23.5456C126.082 23.7749 125.999 23.9986 125.844 24.1674C125.688 24.3363 125.471 24.4365 125.241 24.446V24.446Z" fill="white"/>
<path d="M204.968 31.5497H166.303C165.267 31.5485 164.274 31.1374 163.541 30.4066C162.808 29.6757 162.396 28.6848 162.395 27.6513V3.89841C162.396 2.86485 162.808 1.87395 163.541 1.14311C164.274 0.412272 165.267 0.0011717 166.303 0H204.968C206.004 0.00116768 206.998 0.412266 207.73 1.14311C208.463 1.87395 208.875 2.86484 208.876 3.89841V27.6513C208.875 28.6848 208.463 29.6757 207.73 30.4066C206.998 31.1374 206.004 31.5485 204.968 31.5497V31.5497Z" fill="#E6E6E6"/>
<path d="M189.606 28.4901H169.021C168.051 28.489 167.12 28.1041 166.434 27.4196C165.748 26.7352 165.362 25.8071 165.361 24.8391V6.71042C165.362 5.74243 165.748 4.81442 166.434 4.12996C167.12 3.44551 168.051 3.06052 169.021 3.05945H202.25C203.221 3.06052 204.151 3.44552 204.837 4.12998C205.524 4.81444 205.91 5.74245 205.911 6.71042V12.2274C205.906 16.539 204.186 20.6727 201.13 23.7215C198.073 26.7703 193.929 28.4853 189.606 28.4901V28.4901Z" fill="white"/>
<path d="M198.935 12.9864H172.336C172.106 12.9864 171.885 12.8953 171.722 12.733C171.56 12.5707 171.468 12.3506 171.468 12.1211C171.468 11.8917 171.56 11.6716 171.722 11.5093C171.885 11.347 172.106 11.2559 172.336 11.2559H198.935C199.165 11.2559 199.386 11.347 199.549 11.5093C199.711 11.6716 199.803 11.8917 199.803 12.1211C199.803 12.3506 199.711 12.5707 199.549 12.733C199.386 12.8953 199.165 12.9864 198.935 12.9864Z" fill="#474F5A"/>
<path d="M176.497 16.4054H172.336C172.106 16.405 171.886 16.3136 171.724 16.1514C171.561 15.9891 171.47 15.7693 171.47 15.5401C171.47 15.3109 171.561 15.0911 171.724 14.9289C171.886 14.7667 172.106 14.6753 172.336 14.6748H176.497C176.726 14.6753 176.947 14.7667 177.109 14.9289C177.271 15.0911 177.362 15.3109 177.362 15.5401C177.362 15.7693 177.271 15.9891 177.109 16.1514C176.947 16.3136 176.726 16.405 176.497 16.4054Z" fill="#474F5A"/>
<path d="M183.866 19.8246H172.336C172.106 19.8246 171.885 19.7335 171.722 19.5712C171.56 19.4089 171.468 19.1888 171.468 18.9593C171.468 18.7298 171.56 18.5097 171.722 18.3474C171.885 18.1852 172.106 18.094 172.336 18.094H183.866C184.096 18.0945 184.316 18.1859 184.478 18.3481C184.641 18.5103 184.732 18.7301 184.732 18.9593C184.732 19.1885 184.641 19.4083 184.478 19.5705C184.316 19.7328 184.096 19.8242 183.866 19.8246V19.8246Z" fill="#474F5A"/>
<path d="M166.99 35.6616C169.375 31.835 168.198 26.8047 164.362 24.426C160.525 22.0473 155.482 23.2211 153.097 27.0477C150.712 30.8743 151.889 35.9046 155.726 38.2833C159.562 40.6619 164.605 39.4882 166.99 35.6616Z" fill="#85BD4B"/>
<path d="M343.65 223H231.278C231.185 223 231.096 222.963 231.031 222.898C230.965 222.832 230.928 222.744 230.928 222.651C230.928 222.559 230.965 222.47 231.031 222.405C231.096 222.339 231.185 222.302 231.278 222.302H343.65C343.743 222.302 343.832 222.339 343.898 222.405C343.963 222.47 344 222.559 344 222.651C344 222.744 343.963 222.832 343.898 222.898C343.832 222.963 343.743 223 343.65 223V223Z" fill="#85BD4B"/>
<path d="M51.0872 94.9982C47.7315 86.1499 48.0372 76.3343 51.9372 67.7108C55.8371 59.0874 63.0118 52.3623 71.8828 49.0152C80.7539 45.6681 90.5947 45.9731 99.2403 49.863C107.886 53.7529 114.628 60.9092 117.984 69.7576L117.272 70.0262C115.646 65.7381 113.189 61.8115 110.041 58.4706C106.894 55.1297 103.117 52.4399 98.9275 50.5548C94.7377 48.6697 90.2167 47.6261 85.6225 47.4837C81.0284 47.3414 76.4511 48.1029 72.1521 49.725C67.853 51.3471 63.9164 53.7978 60.5669 56.9374C57.2174 60.0769 54.5207 63.8437 52.6307 68.0228C50.7408 72.2019 49.6945 76.7113 49.5518 81.2937C49.409 85.8761 50.1726 90.4416 51.7988 94.7296L51.0872 94.9982Z" fill="#85BD4B"/>
<path d="M82.3706 59.6674H70.2751C70.0167 59.668 69.7615 59.6102 69.5287 59.4983C69.2959 59.3864 69.0915 59.2234 68.9308 59.0216C68.7721 58.8248 68.6601 58.5948 68.6033 58.3487C68.5465 58.1026 68.5463 57.8469 68.6027 57.6007C69.7477 52.56 69.6829 47.3208 68.4137 42.3098C68.3236 41.9552 68.3512 41.581 68.4923 41.2434C68.6334 40.9057 68.8804 40.6227 69.1962 40.4368C73.5776 37.8929 78.2566 37.9705 83.1026 40.6681C83.332 40.7929 83.5298 40.9683 83.681 41.181C83.8321 41.3936 83.9326 41.6378 83.9747 41.8951C84.8372 47.2933 84.8683 52.7912 84.067 58.1988C84.01 58.6068 83.8068 58.9804 83.4949 59.2504C83.183 59.5204 82.7836 59.6686 82.3706 59.6674V59.6674Z" fill="#474F5A"/>
<path d="M76.7191 47.9652H72.5582C72.3285 47.9648 72.1083 47.8734 71.946 47.7112C71.7837 47.5489 71.6925 47.3291 71.6925 47.0999C71.6925 46.8708 71.7837 46.6509 71.946 46.4887C72.1083 46.3265 72.3285 46.2351 72.5582 46.2346H76.7191C76.9489 46.2351 77.1691 46.3265 77.3314 46.4887C77.4937 46.6509 77.5848 46.8708 77.5848 47.0999C77.5848 47.3291 77.4937 47.5489 77.3314 47.7112C77.1691 47.8734 76.9489 47.9648 76.7191 47.9652Z" fill="white"/>
<path d="M81.8066 51.3842H72.5582C72.3281 51.3842 72.1075 51.293 71.9448 51.1308C71.7821 50.9685 71.6907 50.7484 71.6907 50.5189C71.6907 50.2894 71.7821 50.0693 71.9448 49.907C72.1075 49.7447 72.3281 49.6536 72.5582 49.6536H81.8066C82.0363 49.654 82.2565 49.7454 82.4188 49.9077C82.5811 50.0699 82.6723 50.2897 82.6723 50.5189C82.6723 50.7481 82.5811 50.9679 82.4188 51.1301C82.2565 51.2923 82.0363 51.3837 81.8066 51.3842V51.3842Z" fill="white"/>
<path d="M42.5732 94.5204H3.9084C2.87218 94.5192 1.87874 94.1081 1.14603 93.3773C0.413318 92.6464 0.00116866 91.6555 0 90.622V66.8691C0.00116866 65.8355 0.413318 64.8446 1.14603 64.1138C1.87874 63.383 2.87218 62.9719 3.9084 62.9707H42.5732C43.6094 62.9719 44.6029 63.383 45.3356 64.1138C46.0683 64.8446 46.4805 65.8355 46.4816 66.8691V90.622C46.4805 91.6556 46.0683 92.6465 45.3356 93.3773C44.6029 94.1081 43.6094 94.5192 42.5732 94.5204V94.5204Z" fill="#E6E6E6"/>
<path d="M27.2111 91.4607H6.6263C5.65582 91.4596 4.7254 91.0746 4.03915 90.3902C3.3529 89.7057 2.96688 88.7777 2.96576 87.8097V69.681C2.96688 68.713 3.3529 67.785 4.03915 67.1005C4.7254 66.4161 5.65582 66.0311 6.6263 66.03H39.8554C40.8259 66.0311 41.7563 66.4161 42.4425 67.1006C43.1287 67.785 43.5147 68.713 43.5158 69.681V75.1979C43.5109 79.5096 41.7915 83.6433 38.7348 86.6921C35.6781 89.7409 31.5338 91.4559 27.2111 91.4607Z" fill="white"/>
<path d="M36.5405 75.9571H9.94105C9.71097 75.9571 9.49032 75.866 9.32763 75.7037C9.16494 75.5414 9.07355 75.3213 9.07355 75.0918C9.07355 74.8624 9.16494 74.6423 9.32763 74.48C9.49032 74.3177 9.71097 74.2266 9.94105 74.2266H36.5405C36.7706 74.2266 36.9912 74.3177 37.1539 74.48C37.3166 74.6423 37.408 74.8624 37.408 75.0918C37.408 75.3213 37.3166 75.5414 37.1539 75.7037C36.9912 75.866 36.7706 75.9571 36.5405 75.9571Z" fill="#474F5A"/>
<path d="M14.1019 79.3762H9.94104C9.71127 79.3757 9.49107 79.2843 9.32877 79.1221C9.16647 78.9598 9.07532 78.74 9.07532 78.5108C9.07532 78.2817 9.16647 78.0618 9.32877 77.8996C9.49107 77.7374 9.71127 77.646 9.94104 77.6455H14.1019C14.3317 77.646 14.5519 77.7374 14.7142 77.8996C14.8765 78.0618 14.9676 78.2817 14.9676 78.5108C14.9676 78.74 14.8765 78.9598 14.7142 79.1221C14.5519 79.2843 14.3317 79.3757 14.1019 79.3762V79.3762Z" fill="#474F5A"/>
<path d="M21.4713 82.7953H9.94104C9.71127 82.7949 9.49107 82.7035 9.32877 82.5413C9.16647 82.379 9.07532 82.1592 9.07532 81.93C9.07532 81.7008 9.16647 81.481 9.32877 81.3188C9.49107 81.1566 9.71127 81.0652 9.94104 81.0647H21.4713C21.7014 81.0647 21.922 81.1559 22.0847 81.3181C22.2474 81.4804 22.3388 81.7005 22.3388 81.93C22.3388 82.1595 22.2474 82.3796 22.0847 82.5419C21.922 82.7042 21.7014 82.7953 21.4713 82.7953V82.7953Z" fill="#474F5A"/>
<path d="M57.8395 97.8735C60.2243 94.0469 59.0475 89.0166 55.2111 86.6379C51.3747 84.2593 46.3314 85.433 43.9467 89.2596C41.5619 93.0862 42.7387 98.1165 46.5751 100.495C50.4115 102.874 55.4548 101.7 57.8395 97.8735Z" fill="#85BD4B"/>
<path d="M123.825 82.4278H111.729C111.471 82.4283 111.216 82.3705 110.983 82.2586C110.75 82.1468 110.546 81.9838 110.385 81.7819C110.227 81.5851 110.115 81.3551 110.058 81.109C110.001 80.8629 110.001 80.6072 110.057 80.361C111.2 75.3292 111.138 70.0995 109.875 65.0963C109.785 64.7367 109.815 64.3578 109.961 64.017C110.107 63.6762 110.36 63.3922 110.683 63.2079C116.558 59.8531 121.211 59.9457 124.906 63.4911C125.165 63.744 125.336 64.0733 125.393 64.4304C126.291 69.9003 126.334 75.4759 125.521 80.9591C125.464 81.3671 125.261 81.7407 124.949 82.0107C124.637 82.2808 124.238 82.4289 123.825 82.4278V82.4278Z" fill="#85BD4B"/>
<path d="M118.934 71.1049H114.773C114.543 71.1044 114.323 71.013 114.161 70.8508C113.999 70.6886 113.908 70.4688 113.908 70.2396C113.908 70.0104 113.999 69.7906 114.161 69.6284C114.323 69.4661 114.543 69.3747 114.773 69.3743H118.934C119.164 69.3747 119.384 69.4661 119.546 69.6284C119.709 69.7906 119.8 70.0104 119.8 70.2396C119.8 70.4688 119.709 70.6886 119.546 70.8508C119.384 71.013 119.164 71.1044 118.934 71.1049Z" fill="white"/>
<path d="M124.022 74.5241H114.773C114.543 74.5241 114.322 74.4329 114.16 74.2706C113.997 74.1084 113.906 73.8883 113.906 73.6588C113.906 73.4293 113.997 73.2092 114.16 73.0469C114.322 72.8846 114.543 72.7935 114.773 72.7935H124.022C124.251 72.7939 124.472 72.8853 124.634 73.0476C124.796 73.2098 124.887 73.4296 124.887 73.6588C124.887 73.888 124.796 74.1078 124.634 74.27C124.472 74.4322 124.251 74.5236 124.022 74.5241V74.5241Z" fill="white"/>
</g>
<defs>
<clipPath id="clip0_402_180">
<rect width="344" height="223" fill="white"/>
</clipPath>
</defs>
</svg>
