<svg width="975" height="230" viewBox="0 0 975 230" fill="none" xmlns="http://www.w3.org/2000/svg">
<g clip-path="url(#clip0_82_83)">
<path d="M311.08 101.19C308.067 101.229 305.078 100.647 302.3 99.4801C299.688 98.3701 297.357 96.6889 295.48 94.5601C293.501 92.2824 292.002 89.6297 291.07 86.7601C289.974 83.3939 289.444 79.8696 289.5 76.3301C289.442 72.8036 289.973 69.2921 291.07 65.9401C291.993 63.1116 293.495 60.5063 295.48 58.2901C297.376 56.2265 299.705 54.6078 302.3 53.5501C307.949 51.3632 314.211 51.3632 319.86 53.5501C322.461 54.6153 324.791 56.2485 326.68 58.3301C328.656 60.5676 330.157 63.1841 331.09 66.0201C332.179 69.3464 332.71 72.8303 332.66 76.3301C332.711 79.8693 332.18 83.3928 331.09 86.7601C330.15 89.6262 328.651 92.2774 326.68 94.5601C324.8 96.6864 322.47 98.3671 319.86 99.4801C317.081 100.645 314.093 101.227 311.08 101.19ZM311.08 91.9301C312.621 91.9628 314.144 91.5936 315.5 90.859C316.855 90.1243 317.996 89.0494 318.81 87.7401C320.703 84.9468 321.65 81.1434 321.65 76.3301C321.65 71.5168 320.703 67.8001 318.81 65.1801C317.936 63.942 316.778 62.9319 315.433 62.2346C314.088 61.5374 312.595 61.1734 311.08 61.1734C309.565 61.1734 308.072 61.5374 306.727 62.2346C305.381 62.9319 304.223 63.942 303.35 65.1801C301.463 67.8468 300.517 71.5634 300.51 76.3301C300.503 81.0968 301.45 84.9001 303.35 87.7401C304.163 89.0501 305.304 90.1255 306.659 90.8603C308.015 91.5951 309.538 91.9638 311.08 91.9301Z" fill="#85BD4B"/>
<path d="M337.98 87.48L334.33 81.07L342.13 76.69V52.78H352.85V71.74L364.37 65.39L368.01 71.81L352.85 80.05V91.27H371.66V100.31H342.13V85L337.98 87.48Z" fill="#85BD4B"/>
<path d="M399.14 101.19C396.124 101.229 393.132 100.647 390.35 99.4801C387.741 98.3688 385.414 96.6877 383.54 94.5601C381.561 92.2824 380.062 89.6297 379.13 86.7601C378.035 83.3939 377.504 79.8696 377.56 76.3301C377.502 72.8036 378.033 69.2921 379.13 65.9401C380.053 63.1116 381.555 60.5063 383.54 58.2901C385.433 56.2277 387.758 54.6091 390.35 53.5501C396.003 51.3635 402.267 51.3635 407.92 53.5501C410.521 54.6153 412.851 56.2485 414.74 58.3301C416.716 60.5677 418.217 63.1841 419.15 66.0201C420.236 69.347 420.763 72.8309 420.71 76.3301C420.764 79.8687 420.237 83.3922 419.15 86.7601C418.21 89.6262 416.711 92.2774 414.74 94.5601C412.86 96.6864 410.531 98.3671 407.92 99.4801C405.141 100.645 402.153 101.227 399.14 101.19ZM399.14 91.9301C400.68 91.964 402.202 91.5953 403.556 90.8605C404.91 90.1256 406.049 89.05 406.86 87.7401C408.76 84.9468 409.71 81.1434 409.71 76.3301C409.71 71.5168 408.76 67.8001 406.86 65.1801C405.988 63.9421 404.83 62.9318 403.486 62.2345C402.142 61.5372 400.649 61.1732 399.135 61.1732C397.62 61.1732 396.128 61.5372 394.784 62.2345C393.439 62.9318 392.282 63.9421 391.41 65.1801C389.523 67.8468 388.577 71.5634 388.57 76.3301C388.563 81.0968 389.51 84.9001 391.41 87.7401C392.223 89.0501 393.364 90.1255 394.719 90.8603C396.075 91.5951 397.598 91.9638 399.14 91.9301Z" fill="#85BD4B"/>
<path d="M444.26 100.32V52.79H455.26L467.65 76.41L472.32 86.9H472.61L471.77 78.45C471.458 75.4935 471.298 72.523 471.29 69.55V52.79H481.5V100.32H470.5L458.11 76.62L453.45 66.27H453.15C453.4 68.9 453.67 71.72 453.99 74.73C454.304 77.6362 454.464 80.5569 454.47 83.48V100.32H444.26Z" fill="#85BD4B"/>
<path d="M486.68 100.32L501.56 52.79H514.46L529.33 100.32H517.97L515.05 89.02H500.55L497.63 100.32H486.68ZM503.89 76.26L502.72 80.63H512.85L511.76 76.26C511.093 73.88 510.427 71.3534 509.76 68.68C509.093 66.0067 508.463 63.43 507.87 60.95H507.58C506.99 63.48 506.4 66.07 505.79 68.71C505.18 71.35 504.54 73.88 503.86 76.26" fill="#85BD4B"/>
<path d="M553.24 101.19C547.073 101.19 542.36 99.3667 539.1 95.72C535.84 92.0734 534.21 86.2667 534.21 78.3V52.79H544.97V79.39C544.97 84.0567 545.677 87.3134 547.09 89.16C547.809 90.0832 548.742 90.8176 549.808 91.3002C550.874 91.7827 552.042 91.9989 553.21 91.93C554.389 91.9935 555.566 91.7753 556.644 91.2936C557.723 90.812 558.67 90.0806 559.41 89.16C560.857 87.32 561.583 84.0634 561.59 79.39V52.79H571.97V78.3C571.97 86.3 570.377 92.1067 567.19 95.72C564.003 99.3334 559.337 101.157 553.19 101.19" fill="#85BD4B"/>
<path d="M582.98 100.31V52.78H593.7V72.25H593.99L608.13 52.78H619.94L605.58 71.74L622.57 100.31H610.83L599.24 80.27L593.7 87.56V100.31H582.98Z" fill="#85BD4B"/>
<path d="M647.06 101.19C644.044 101.229 641.052 100.647 638.27 99.4801C635.661 98.3688 633.334 96.6877 631.46 94.5601C629.481 92.2824 627.982 89.6297 627.05 86.7601C625.954 83.3939 625.424 79.8696 625.48 76.3301C625.422 72.8036 625.953 69.2921 627.05 65.9401C627.973 63.1116 629.475 60.5063 631.46 58.2901C633.353 56.2277 635.678 54.6091 638.27 53.5501C643.922 51.3635 650.187 51.3635 655.84 53.5501C658.441 54.6153 660.771 56.2485 662.66 58.3301C664.636 60.5677 666.137 63.1841 667.07 66.0201C668.159 69.3464 668.69 72.8303 668.64 76.3301C668.691 79.8693 668.16 83.3928 667.07 86.7601C666.13 89.6262 664.631 92.2774 662.66 94.5601C660.78 96.6864 658.45 98.3671 655.84 99.4801C653.061 100.645 650.073 101.227 647.06 101.19ZM647.06 91.9301C648.601 91.9628 650.124 91.5937 651.48 90.859C652.835 90.1243 653.976 89.0494 654.79 87.7401C656.677 84.9468 657.623 81.1434 657.63 76.3301C657.636 71.5168 656.69 67.8001 654.79 65.1801C653.916 63.942 652.758 62.9319 651.413 62.2346C650.068 61.5374 648.575 61.1734 647.06 61.1734C645.545 61.1734 644.052 61.5374 642.706 62.2346C641.361 62.9319 640.203 63.942 639.33 65.1801C637.443 67.8468 636.497 71.5634 636.49 76.3301C636.483 81.0968 637.43 84.9001 639.33 87.7401C640.143 89.0501 641.284 90.1255 642.639 90.8603C643.995 91.5951 645.518 91.9638 647.06 91.9301Z" fill="#85BD4B"/>
<path d="M681.83 100.32L672.97 52.79H683.97L687.25 75.02C687.537 77.5 687.85 79.99 688.19 82.49C688.53 85 688.85 87.49 689.19 90.04H689.48C689.97 87.51 690.48 85.04 690.91 82.49C691.34 79.94 691.84 77.49 692.33 75.02L697.43 52.79H706.54L711.64 75.02C712.13 77.45 712.64 79.92 713.07 82.42C713.5 84.92 714 87.42 714.49 90.04H714.78C715.12 87.46 715.453 84.9334 715.78 82.46C716.107 79.9867 716.44 77.5067 716.78 75.02L720.06 52.79H730.34L721.88 100.32H708.36L703.7 78.74C703.307 76.8867 702.953 75.0267 702.64 73.16C702.32 71.29 702.05 69.48 701.8 67.73H701.51C701.223 69.4834 700.92 71.2934 700.6 73.16C700.28 75.0267 699.927 76.8867 699.54 78.74L695.1 100.32H681.83Z" fill="#85BD4B"/>
<path d="M736.87 100.31V52.78H766.61V61.82H747.58V71.37H763.76V80.34H747.58V91.27H767.34V100.31H736.87Z" fill="#85BD4B"/>
<path d="M261.51 165.99C258.335 165.98 255.188 165.397 252.22 164.27C249.151 163.127 246.344 161.376 243.97 159.12L250.1 151.75C251.798 153.21 253.702 154.413 255.75 155.32C257.654 156.213 259.727 156.687 261.83 156.71C263.586 156.84 265.338 156.406 266.83 155.47C267.355 155.087 267.779 154.581 268.064 153.998C268.35 153.414 268.489 152.77 268.47 152.12C268.486 151.455 268.32 150.798 267.99 150.22C267.64 149.651 267.169 149.166 266.61 148.8C265.917 148.345 265.184 147.953 264.42 147.63L261.61 146.43L255.42 143.81C254.174 143.308 252.987 142.671 251.88 141.91C250.746 141.136 249.718 140.218 248.82 139.18C247.897 138.097 247.169 136.862 246.67 135.53C246.112 134.027 245.841 132.433 245.87 130.83C245.859 128.926 246.284 127.045 247.11 125.33C247.941 123.591 249.134 122.05 250.61 120.81C252.192 119.487 254.006 118.47 255.96 117.81C258.155 117.061 260.461 116.692 262.78 116.72C265.59 116.726 268.373 117.269 270.98 118.32C273.647 119.37 276.067 120.96 278.09 122.99L272.62 129.77C271.197 128.632 269.631 127.687 267.96 126.96C266.317 126.285 264.556 125.945 262.78 125.96C261.229 125.876 259.69 126.271 258.37 127.09C257.847 127.433 257.422 127.905 257.135 128.46C256.848 129.015 256.708 129.635 256.73 130.26C256.708 130.923 256.901 131.575 257.28 132.12C257.692 132.678 258.213 133.147 258.81 133.5C259.539 133.954 260.305 134.345 261.1 134.67C261.98 135.03 262.93 135.43 263.95 135.87L270.07 138.35C272.738 139.343 275.109 140.998 276.96 143.16C278.722 145.478 279.611 148.342 279.47 151.25C279.483 153.208 279.069 155.146 278.257 156.928C277.445 158.71 276.255 160.294 274.77 161.57C273.103 162.981 271.187 164.066 269.12 164.77C266.683 165.612 264.118 166.021 261.54 165.98" fill="#85BD4B"/>
<path d="M296.79 165.11V126.62H283.75V117.58H320.63V126.62H307.58V165.11H296.79Z" fill="#85BD4B"/>
<path d="M346.8 165.99C340.633 165.99 335.92 164.167 332.66 160.52C329.4 156.873 327.77 151.073 327.77 143.12V117.58H338.56V144.19C338.56 148.86 339.27 152.11 340.68 153.96C341.399 154.883 342.332 155.618 343.398 156.1C344.464 156.583 345.632 156.799 346.8 156.73C347.979 156.793 349.156 156.575 350.234 156.094C351.313 155.612 352.261 154.881 353 153.96C354.45 152.11 355.18 148.86 355.18 144.19V117.58H365.53V143.12C365.53 151.12 363.94 156.927 360.76 160.54C357.58 164.153 352.913 165.977 346.76 166.01" fill="#85BD4B"/>
<path d="M376.54 165.12V117.58H389.97C393.305 117.538 396.627 118.007 399.82 118.97C402.604 119.818 405.166 121.273 407.32 123.23C409.482 125.257 411.131 127.77 412.13 130.56C413.313 133.952 413.876 137.529 413.79 141.12C413.866 144.738 413.297 148.341 412.11 151.76C411.161 154.542 409.577 157.065 407.484 159.129C405.391 161.193 402.845 162.741 400.05 163.65C396.982 164.654 393.768 165.144 390.54 165.1L376.54 165.12ZM387.26 156.45H389.26C391.137 156.473 393.006 156.203 394.8 155.65C396.399 155.143 397.851 154.254 399.03 153.06C400.279 151.717 401.212 150.111 401.76 148.36C402.479 146.023 402.817 143.585 402.76 141.14C402.816 138.731 402.479 136.33 401.76 134.03C401.22 132.308 400.285 130.737 399.03 129.44C397.843 128.29 396.39 127.451 394.8 127C392.998 126.491 391.132 126.246 389.26 126.27H387.26V156.45Z" fill="#85BD4B"/>
<path d="M422.83 165.11V117.58H452.57V126.62H433.55V136.17H449.73V145.14H433.55V156.07H453.3V165.11H422.83Z" fill="#85BD4B"/>
<path d="M462.78 165.12V117.58H473.78L486.18 141.2L490.84 151.7H491.13C490.89 149.17 490.61 146.36 490.3 143.24C489.988 140.287 489.828 137.32 489.82 134.35V117.58H500.03V165.12H489.03L476.63 141.42L471.97 131.12H471.68C471.92 133.74 472.2 136.56 472.52 139.58C472.826 142.483 472.983 145.401 472.99 148.32V165.12H462.78Z" fill="#85BD4B"/>
<path d="M520.51 165.11V126.62H507.46V117.58H544.35V126.62H531.3V165.11H520.51Z" fill="#85BD4B"/>
<path d="M571.1 165.99C568.086 166.031 565.096 165.445 562.32 164.27C559.709 163.157 557.38 161.476 555.5 159.35C553.521 157.073 552.021 154.42 551.09 151.55C548.996 144.771 548.996 137.519 551.09 130.74C552.015 127.912 553.516 125.307 555.5 123.09C557.393 121.023 559.723 119.404 562.32 118.35C567.969 116.163 574.231 116.163 579.88 118.35C582.482 119.409 584.813 121.039 586.7 123.12C588.681 125.354 590.182 127.971 591.11 130.81C592.202 134.136 592.733 137.62 592.68 141.12C592.736 144.656 592.206 148.177 591.11 151.54C590.183 154.412 588.683 157.065 586.7 159.34C584.823 161.469 582.492 163.15 579.88 164.26C577.104 165.435 574.114 166.021 571.1 165.98V165.99ZM571.1 156.72C572.641 156.752 574.164 156.382 575.519 155.647C576.874 154.913 578.015 153.839 578.83 152.53C580.717 149.73 581.663 145.927 581.67 141.12C581.677 136.313 580.73 132.597 578.83 129.97C577.957 128.732 576.798 127.722 575.453 127.024C574.108 126.327 572.615 125.963 571.1 125.963C569.585 125.963 568.092 126.327 566.747 127.024C565.401 127.722 564.243 128.732 563.37 129.97C561.483 132.637 560.537 136.353 560.53 141.12C560.523 145.887 561.47 149.69 563.37 152.53C564.185 153.839 565.326 154.913 566.681 155.647C568.036 156.382 569.559 156.752 571.1 156.72ZM570.37 115.53L565.56 110.12L578.03 99.9099L583.71 106.84L570.37 115.53Z" fill="#85BD4B"/>
<path d="M605.87 165.12L597.05 117.59H608.05L611.33 139.83C611.617 142.31 611.95 144.8 612.33 147.3C612.67 149.8 612.98 152.3 613.27 154.84H613.57C614.05 152.32 614.57 149.84 614.99 147.3C615.41 144.76 615.92 142.3 616.41 139.83L621.51 117.59H630.62L635.73 139.83C636.21 142.26 636.73 144.72 637.15 147.23C637.57 149.74 638.08 152.23 638.57 154.84H638.86C639.2 152.267 639.533 149.74 639.86 147.26C640.17 144.78 640.5 142.31 640.86 139.83L644.14 117.59H654.42L645.89 165.12H632.41L627.74 143.55C627.347 141.697 626.993 139.837 626.68 137.97C626.367 136.103 626.09 134.293 625.85 132.54H625.55C625.257 134.293 624.953 136.103 624.64 137.97C624.33 139.84 623.97 141.7 623.64 143.55L619.14 165.12H605.87Z" fill="#85BD4B"/>
<path d="M679.72 165.12L670.89 117.59H681.89L685.17 139.83C685.457 142.31 685.773 144.8 686.12 147.3C686.46 149.8 686.78 152.3 687.12 154.84H687.41C687.89 152.32 688.41 149.84 688.83 147.3C689.25 144.76 689.77 142.3 690.25 139.83L695.36 117.59H704.47L709.57 139.83C710.05 142.26 710.57 144.72 710.99 147.23C711.41 149.74 711.93 152.23 712.41 154.84H712.7C713.04 152.267 713.373 149.74 713.7 147.26C714.01 144.78 714.34 142.31 714.7 139.83L717.98 117.59H728.26L719.74 165.12H706.25L701.58 143.55C701.193 141.697 700.843 139.837 700.53 137.97C700.217 136.103 699.937 134.293 699.69 132.54H699.4C699.11 134.29 698.8 136.1 698.49 137.97C698.18 139.84 697.82 141.7 697.43 143.55L692.97 165.12H679.72Z" fill="#85BD4B"/>
<path d="M749.26 165.99C746.082 165.979 742.932 165.397 739.96 164.27C736.886 163.135 734.073 161.39 731.69 159.14L737.81 151.77C739.51 153.228 741.413 154.431 743.46 155.34C745.368 156.232 747.444 156.706 749.55 156.73C751.306 156.863 753.059 156.428 754.55 155.49C755.075 155.107 755.499 154.602 755.784 154.018C756.07 153.434 756.209 152.79 756.19 152.14C756.205 151.476 756.043 150.82 755.72 150.24C755.366 149.67 754.892 149.186 754.33 148.82C753.641 148.363 752.911 147.971 752.15 147.65L749.34 146.45L743.14 143.83C741.898 143.326 740.715 142.688 739.61 141.93C738.476 141.156 737.448 140.238 736.55 139.2C735.627 138.117 734.899 136.882 734.4 135.55C733.839 134.048 733.564 132.453 733.59 130.85C733.584 128.947 734.008 127.067 734.83 125.35C735.668 123.615 736.86 122.075 738.33 120.83C739.917 119.509 741.734 118.492 743.69 117.83C745.885 117.081 748.191 116.712 750.51 116.74C753.32 116.746 756.103 117.289 758.71 118.34C761.374 119.39 763.791 120.98 765.81 123.01L760.35 129.79C758.924 128.651 757.354 127.707 755.68 126.98C754.041 126.305 752.283 125.965 750.51 125.98C748.959 125.897 747.42 126.291 746.1 127.11C745.575 127.451 745.148 127.922 744.861 128.478C744.573 129.034 744.435 129.655 744.46 130.28C744.435 130.931 744.613 131.574 744.97 132.12C745.387 132.673 745.907 133.142 746.5 133.5C747.234 133.952 748.003 134.343 748.8 134.67L751.64 135.87L757.77 138.35C760.436 139.345 762.807 141 764.66 143.16C766.422 145.478 767.311 148.342 767.17 151.25C767.183 153.208 766.769 155.146 765.957 156.928C765.145 158.71 763.955 160.294 762.47 161.57C760.802 162.979 758.886 164.064 756.82 164.77C754.383 165.611 751.818 166.021 749.24 165.98" fill="#85BD4B"/>
<path d="M775.28 165.11V117.58H805.02V126.62H786V136.17H802.18V145.14H786V156.07H805.75V165.11H775.28Z" fill="#85BD4B"/>
<path d="M825.95 117.58H815.23V165.11H825.95V117.58Z" fill="#85BD4B"/>
<path d="M246.97 229.91V182.38H260.39C263.722 182.334 267.041 182.803 270.23 183.77C273.017 184.618 275.582 186.073 277.74 188.03C279.901 190.058 281.549 192.57 282.55 195.36C283.733 198.755 284.299 202.335 284.22 205.93C284.294 209.547 283.728 213.149 282.55 216.57C281.554 219.386 279.933 221.94 277.81 224.04C275.726 226.038 273.221 227.545 270.48 228.45C267.413 229.463 264.199 229.956 260.97 229.91H246.97ZM257.69 221.24H259.69C261.568 221.265 263.438 220.991 265.23 220.43C266.83 219.93 268.283 219.044 269.46 217.85C270.719 216.51 271.653 214.898 272.19 213.14C272.91 210.806 273.248 208.372 273.19 205.93C273.247 203.521 272.909 201.12 272.19 198.82C271.657 197.095 270.721 195.522 269.46 194.23C268.273 193.078 266.82 192.237 265.23 191.78C263.427 191.28 261.561 191.037 259.69 191.06H257.69V221.24Z" fill="#474F5A"/>
<path d="M293.29 229.91V182.38H323.04V191.42H304.01V200.97H320.19V209.93H304.01V220.87H323.76V229.91H293.29Z" fill="#474F5A"/>
<path d="M347.75 230.79C344.572 230.774 341.423 230.192 338.45 229.07C335.373 227.935 332.56 226.186 330.18 223.93L336.3 216.57C338.006 218.025 339.916 219.221 341.97 220.12C343.877 221.013 345.954 221.487 348.06 221.51C349.816 221.638 351.567 221.204 353.06 220.27C353.585 219.887 354.009 219.382 354.294 218.798C354.58 218.214 354.719 217.57 354.7 216.92C354.716 216.256 354.553 215.6 354.23 215.02C353.876 214.45 353.402 213.966 352.84 213.6C352.149 213.147 351.419 212.756 350.66 212.43L347.85 211.23L341.65 208.6C340.407 208.103 339.223 207.469 338.12 206.71C336.981 205.939 335.949 205.021 335.05 203.98C334.134 202.894 333.41 201.66 332.91 200.33C332.349 198.828 332.074 197.234 332.1 195.63C332.094 193.727 332.518 191.847 333.34 190.13C334.172 188.392 335.365 186.851 336.84 185.61C338.426 184.287 340.243 183.27 342.2 182.61C344.391 181.861 346.694 181.492 349.01 181.52C351.823 181.526 354.61 182.069 357.22 183.12C359.882 184.172 362.299 185.762 364.32 187.79L358.86 194.57C357.434 193.431 355.864 192.487 354.19 191.76C352.549 191.08 350.786 190.74 349.01 190.76C347.458 190.682 345.92 191.08 344.6 191.9C344.072 192.249 343.644 192.729 343.358 193.294C343.072 193.858 342.938 194.488 342.97 195.12C342.956 195.782 343.148 196.432 343.52 196.98C343.937 197.533 344.457 198.002 345.05 198.36C345.785 198.81 346.554 199.201 347.35 199.53L350.19 200.73L356.27 203.12C358.941 204.106 361.313 205.763 363.16 207.93C364.929 210.244 365.822 213.11 365.68 216.02C365.694 217.977 365.28 219.913 364.469 221.694C363.657 223.475 362.466 225.057 360.98 226.33C359.315 227.746 357.398 228.835 355.33 229.54C352.891 230.375 350.327 230.785 347.75 230.75" fill="#474F5A"/>
<path d="M384.49 182.38H373.77V229.91H384.49V182.38Z" fill="#474F5A"/>
<path d="M416.71 230.79C413.591 230.811 410.493 230.279 407.56 229.22C404.792 228.221 402.269 226.642 400.16 224.59C397.993 222.432 396.315 219.833 395.24 216.97C392.833 210.153 392.833 202.717 395.24 195.9C396.357 192.977 398.058 190.313 400.24 188.07C402.337 185.94 404.858 184.274 407.64 183.18C410.506 182.055 413.561 181.488 416.64 181.51C419.714 181.427 422.764 182.075 425.54 183.4C427.775 184.498 429.818 185.95 431.59 187.7L425.97 194.56C424.792 193.514 423.497 192.607 422.11 191.86C420.527 191.078 418.775 190.7 417.01 190.76C415.273 190.744 413.553 191.106 411.97 191.82C410.432 192.514 409.066 193.538 407.97 194.82C406.794 196.234 405.913 197.87 405.38 199.63C404.745 201.706 404.438 203.869 404.47 206.04C404.47 210.953 405.577 214.757 407.79 217.45C410.003 220.143 413.337 221.477 417.79 221.45C418.749 221.453 419.704 221.329 420.63 221.08C421.455 220.89 422.227 220.517 422.89 219.99V211.82H415.02V203.12H432.37V224.99C430.461 226.752 428.235 228.137 425.81 229.07C422.913 230.223 419.817 230.794 416.7 230.75" fill="#474F5A"/>
<path d="M442.22 229.91V182.38H453.22L465.61 206L470.27 216.5H470.57C470.323 213.967 470.043 211.147 469.73 208.04C469.418 205.087 469.258 202.119 469.25 199.15V182.38H479.47V229.91H468.47L456.07 206.22L451.4 195.87H451.11C451.36 198.49 451.63 201.31 451.95 204.32C452.261 207.226 452.418 210.147 452.42 213.07V229.91H442.22Z" fill="#474F5A"/>
<path d="M514.53 229.91V191.42H501.48V182.38H538.37V191.42H525.32V229.91H514.53Z" fill="#474F5A"/>
<path d="M545.81 229.91V182.38H556.52V200.68H572.92V182.38H583.71V229.91H572.92V210.08H556.52V229.91H545.81Z" fill="#474F5A"/>
<path d="M605.66 182.38H594.94V229.91H605.66V182.38Z" fill="#474F5A"/>
<path d="M616.88 229.91V182.38H627.88L640.27 206L644.93 216.5H645.23C644.983 213.967 644.703 211.147 644.39 208.04C644.097 205.076 643.957 202.098 643.97 199.12V182.38H654.18V229.91H643.18L630.73 206.22L626.06 195.87H625.77C626.02 198.49 626.29 201.31 626.61 204.32C626.921 207.226 627.078 210.147 627.08 213.07V229.91H616.88Z" fill="#474F5A"/>
<path d="M665.36 229.91V182.38H676.07V201.84H676.36L690.5 182.38H702.32L687.95 201.33L704.94 229.91H693.2L681.61 209.86L676.07 217.15V229.91H665.36Z" fill="#474F5A"/>
<path d="M720.83 182.38H710.11V229.91H720.83V182.38Z" fill="#474F5A"/>
<path d="M732.05 229.91V182.38H743.05L755.44 206L760.11 216.5H760.4C760.16 213.967 759.88 211.147 759.56 208.04C759.24 204.933 759.083 201.97 759.09 199.15V182.38H769.29V229.91H758.29L745.89 206.22L741.23 195.87H740.97C741.21 198.49 741.49 201.307 741.81 204.32C742.116 207.227 742.273 210.147 742.28 213.07V229.91H732.05Z" fill="#474F5A"/>
<path d="M801.52 230.79C798.404 230.81 795.31 230.279 792.38 229.22C789.612 228.221 787.089 226.642 784.98 224.59C782.813 222.432 781.135 219.833 780.06 216.97C777.654 210.153 777.654 202.717 780.06 195.9C781.177 192.977 782.878 190.313 785.06 188.07C787.157 185.94 789.678 184.274 792.46 183.18C795.326 182.055 798.381 181.488 801.46 181.51C804.534 181.427 807.584 182.075 810.36 183.4C812.577 184.503 814.603 185.955 816.36 187.7L810.74 194.56C809.562 193.514 808.267 192.607 806.88 191.86C805.297 191.078 803.545 190.7 801.78 190.76C800.033 190.74 798.303 191.102 796.71 191.82C795.171 192.511 793.804 193.536 792.71 194.82C791.534 196.234 790.653 197.87 790.12 199.63C789.485 201.706 789.178 203.869 789.21 206.04C789.21 210.953 790.317 214.757 792.53 217.45C794.743 220.143 798.077 221.477 802.53 221.45C803.489 221.453 804.444 221.329 805.37 221.08C806.195 220.89 806.967 220.517 807.63 219.99V211.82H799.76V203.12H817.11V224.99C815.199 226.75 812.974 228.134 810.55 229.07C807.65 230.223 804.551 230.794 801.43 230.75" fill="#474F5A"/>
<path d="M841.62 229.91V182.38H852.33V200.68H868.74V182.38H879.52V229.91H868.74V210.08H852.33V229.91H841.62Z" fill="#474F5A"/>
<path d="M909.48 230.79C903.313 230.79 898.6 228.967 895.34 225.32C892.08 221.673 890.453 215.867 890.46 207.9V182.38H901.25V208.99C901.25 213.657 901.953 216.913 903.36 218.76C904.081 219.681 905.014 220.414 906.08 220.896C907.145 221.379 908.312 221.596 909.48 221.53C910.659 221.592 911.836 221.373 912.913 220.891C913.991 220.41 914.939 219.679 915.68 218.76C917.14 216.913 917.87 213.657 917.87 208.99V182.38H928.22V207.9C928.22 215.9 926.627 221.707 923.44 225.32C920.253 228.933 915.587 230.757 909.44 230.79" fill="#474F5A"/>
<path d="M939.23 229.91V182.38H955.48C957.788 182.364 960.094 182.548 962.37 182.93C964.318 183.236 966.194 183.889 967.91 184.86C969.443 185.736 970.725 186.994 971.63 188.51C972.588 190.246 973.054 192.209 972.98 194.19C972.976 195.275 972.828 196.354 972.54 197.4C972.256 198.449 971.84 199.457 971.3 200.4C970.771 201.31 970.122 202.144 969.37 202.88C968.63 203.592 967.747 204.137 966.78 204.48V204.77C967.959 205.047 969.089 205.502 970.13 206.12C971.153 206.729 972.066 207.507 972.83 208.42C973.634 209.377 974.251 210.476 974.65 211.66C975.111 213.032 975.334 214.473 975.31 215.92C975.369 218.096 974.881 220.252 973.89 222.19C972.952 223.929 971.607 225.415 969.97 226.52C968.179 227.71 966.192 228.573 964.1 229.07C961.74 229.645 959.319 229.927 956.89 229.91H939.23ZM949.97 201.41H954.97C957.6 201.41 959.5 200.9 960.69 199.88C961.278 199.378 961.745 198.749 962.055 198.041C962.365 197.332 962.511 196.563 962.48 195.79C962.549 195.033 962.418 194.271 962.098 193.581C961.778 192.89 961.282 192.297 960.66 191.86C958.929 190.962 956.985 190.557 955.04 190.69H949.97V201.41ZM949.97 221.6H955.97C961.85 221.6 964.79 219.463 964.79 215.19C964.864 214.315 964.701 213.436 964.317 212.645C963.934 211.855 963.344 211.183 962.61 210.7C961.15 209.8 958.937 209.35 955.97 209.35H949.97V221.6Z" fill="#474F5A"/>
<path d="M73.2 7.2C73.2 8.62403 73.6222 10.0161 74.4134 11.2001C75.2045 12.3841 76.329 13.307 77.6446 13.8519C78.9603 14.3969 80.4079 14.5395 81.8046 14.2617C83.2013 13.9838 84.4842 13.2981 85.4911 12.2912C86.4981 11.2842 87.1838 10.0013 87.4616 8.60465C87.7394 7.20799 87.5968 5.76031 87.0519 4.44468C86.5069 3.12905 85.5841 2.00457 84.4001 1.21342C83.216 0.422273 81.824 0 80.3999 0C78.4904 0 76.659 0.758569 75.3088 2.10883C73.9585 3.45909 73.2 5.29044 73.2 7.2Z" fill="#474F5A"/>
<path d="M193.31 120.33C188.55 121.53 182.2 122.11 182.39 125.49C182.58 128.87 184.58 134.02 184.58 134.02C185.011 135.973 184.731 138.015 183.79 139.78C183.715 139.913 183.648 140.049 183.59 140.19C182.41 142.83 184.32 143.69 183.19 146.52C183.11 146.72 183.02 146.93 182.92 147.13C181.57 149.91 178.72 152.76 177.24 156.64C176.61 158.28 177.35 160.41 178.09 162.99C179.22 166.99 180.35 171.99 176.46 178.1C172.46 184.37 165.33 182.64 150.65 182.83C135.97 183.02 132.59 180.83 126.44 195.33L126.26 195.78C121.98 206 116.8 223.3 114.06 232.78C107.526 229.228 101.767 224.407 97.1206 218.6C92.4741 212.793 89.0334 206.117 87.0002 198.963C84.9671 191.81 84.3824 184.322 85.2804 176.939C86.1784 169.557 88.5411 162.428 92.2299 155.97C87.6466 154.401 83.6071 151.555 80.5871 147.767C77.5672 143.979 75.6926 139.407 75.184 134.589C74.6754 129.771 75.5541 124.908 77.7166 120.573C79.879 116.238 83.2352 112.611 87.3899 110.12C81.5696 105.129 77.3681 98.5168 75.3213 91.1277C73.2745 83.7386 73.4753 75.9072 75.898 68.6327C78.3207 61.3581 82.8555 54.9702 88.9239 50.2837C94.9923 45.5973 102.319 42.8248 109.97 42.3199C110.09 41.1999 110.26 40.1099 110.48 39.0299C112.34 29.6913 117.382 21.2869 124.745 15.2493C132.109 9.21172 141.338 5.91459 150.86 5.91993C151.86 5.91993 152.86 5.96993 153.8 6.03993C156.899 8.82934 159.818 11.812 162.54 14.9699C165.413 18.2151 167.94 21.7508 170.08 25.5199C173.46 32.0099 181.86 55.1199 181.97 62.4099C181.986 62.6463 181.986 62.8835 181.97 63.1199C181.47 69.1899 177.32 71.9099 179.42 76.7499C179.56 77.0399 179.71 77.3599 179.88 77.6699C179.88 77.6699 198.15 109.22 198.54 112.39C198.93 115.56 198.15 119.14 193.38 120.33" fill="#85BD4B"/>
<path d="M12.44 115.17C10.4836 115.172 8.57045 114.594 6.94273 113.508C5.31502 112.422 4.04583 110.879 3.29575 109.072C2.54566 107.265 2.34838 105.276 2.72886 103.357C3.10934 101.437 4.05048 99.6743 5.43322 98.2902C6.81596 96.906 8.57817 95.9631 10.4969 95.5807C12.4157 95.1982 14.4047 95.3935 16.2125 96.1418C18.0202 96.89 19.5654 98.1576 20.6526 99.7843C21.7397 101.411 22.32 103.323 22.32 105.28C22.32 107.901 21.2794 110.415 19.4269 112.27C17.5743 114.124 15.0613 115.167 12.44 115.17Z" fill="#85BD4B"/>
<path d="M33.74 133.66C33.74 135.452 34.2714 137.204 35.2669 138.694C36.2624 140.183 37.6774 141.345 39.3329 142.03C40.9884 142.716 42.81 142.896 44.5675 142.546C46.325 142.196 47.9393 141.334 49.2064 140.066C50.4734 138.799 51.3363 137.185 51.6859 135.428C52.0355 133.67 51.8561 131.848 51.1703 130.193C50.4846 128.537 49.3234 127.123 47.8335 126.127C46.3435 125.131 44.5919 124.6 42.8 124.6C40.3971 124.6 38.0927 125.555 36.3936 127.254C34.6945 128.953 33.74 131.257 33.74 133.66Z" fill="#F19106"/>
<path d="M30.75 26.73C30.75 29.8352 31.6708 32.8706 33.3959 35.4525C35.1211 38.0343 37.5731 40.0466 40.4419 41.2349C43.3107 42.4232 46.4674 42.7341 49.5129 42.1284C52.5584 41.5226 55.3559 40.0273 57.5516 37.8316C59.7473 35.6359 61.2425 32.8384 61.8483 29.7929C62.4541 26.7474 62.1432 23.5907 60.9549 20.7219C59.7666 17.8531 57.7543 15.4011 55.1725 13.676C52.5906 11.9508 49.5552 11.03 46.45 11.03C42.2861 11.03 38.2927 12.6841 35.3484 15.6285C32.4041 18.5728 30.75 22.5661 30.75 26.73Z" fill="#85BD4B"/>
<path d="M5.38989 7.19995C5.38989 8.58442 5.80044 9.9378 6.5696 11.0889C7.33877 12.2401 8.43202 13.1373 9.71111 13.6671C10.9902 14.1969 12.3977 14.3355 13.7555 14.0654C15.1134 13.7954 16.3607 13.1287 17.3396 12.1497C18.3186 11.1707 18.9853 9.92345 19.2554 8.56558C19.5255 7.20772 19.3869 5.80025 18.857 4.52117C18.3272 3.24208 17.43 2.14883 16.2789 1.37966C15.1277 0.610494 13.7744 0.199951 12.3899 0.199951C10.5374 0.213043 8.76454 0.954746 7.45461 2.26467C6.14469 3.5746 5.40298 5.34748 5.38989 7.19995Z" fill="#F19106"/>
<path d="M-0.0300293 44.91C-0.0300221 47.3691 0.69882 49.7731 2.06442 51.8182C3.43003 53.8633 5.37112 55.4577 7.64249 56.4002C9.91385 57.3426 12.4136 57.5907 14.8259 57.1131C17.2382 56.6356 19.4548 55.4537 21.1958 53.717C22.9367 51.9802 24.1239 49.7664 24.6073 47.3553C25.0907 44.9441 24.8486 42.4438 23.9116 40.1702C22.9747 37.8966 21.3849 35.9516 19.3431 34.5811C17.3013 33.2106 14.8991 32.4759 12.44 32.47C10.8038 32.4661 9.18293 32.7849 7.67018 33.4083C6.15742 34.0317 4.7825 34.9474 3.62416 36.103C2.46582 37.2585 1.54681 38.6312 0.919771 40.1425C0.292728 41.6537 -0.0300341 43.2738 -0.0300293 44.91Z" fill="#474F5A"/>
<path d="M15.8899 51.41C15.8899 55.1422 16.9966 58.7905 19.0701 61.8937C21.1435 64.9968 24.0906 67.4154 27.5387 68.8437C30.9867 70.2719 34.7808 70.6456 38.4412 69.9175C42.1017 69.1894 45.464 67.3922 48.103 64.7531C50.742 62.1141 52.5392 58.7518 53.2673 55.0914C53.9954 51.431 53.6217 47.6368 52.1935 44.1888C50.7653 40.7408 48.3467 37.7937 45.2435 35.7202C42.1404 33.6467 38.492 32.54 34.7599 32.54C29.7553 32.54 24.9556 34.5281 21.4168 38.0669C17.878 41.6057 15.8899 46.4054 15.8899 51.41Z" fill="#85BD4B"/>
<path d="M78.02 37.9901C78.024 41.1245 78.9572 44.1874 80.7016 46.7915C82.4461 49.3956 84.9235 51.424 87.8206 52.6203C90.7178 53.8166 93.9046 54.127 96.9781 53.5124C100.052 52.8977 102.874 51.3856 105.088 49.1671C107.303 46.9487 108.809 44.1235 109.418 41.0488C110.027 37.9741 109.71 34.7879 108.509 31.893C107.307 28.9982 105.274 26.5246 102.666 24.7851C100.059 23.0455 96.9944 22.1181 93.86 22.1201C91.779 22.1201 89.7184 22.5302 87.796 23.3268C85.8736 24.1235 84.1269 25.2911 82.6559 26.7631C81.1849 28.235 80.0183 29.9824 79.2229 31.9053C78.4274 33.8283 78.0187 35.8891 78.02 37.9701" fill="#474F5A"/>
<path d="M41.8999 98.2499C41.8979 103.108 43.3367 107.857 46.0342 111.897C48.7316 115.938 52.5667 119.087 57.0543 120.948C61.5418 122.808 66.4804 123.296 71.2452 122.349C76.01 121.403 80.3871 119.064 83.8229 115.63C87.2587 112.196 89.5988 107.819 90.5473 103.055C91.4957 98.2906 91.0099 93.3519 89.1513 88.8636C87.2927 84.3752 84.1448 80.5389 80.1057 77.8398C76.0667 75.1406 71.3178 73.7 66.4599 73.7C59.9479 73.7 53.7025 76.2861 49.0969 80.8899C44.4913 85.4936 41.9026 91.738 41.8999 98.2499Z" fill="#474F5A"/>
<path d="M58.79 64.79C58.7881 69.6974 60.2415 74.4951 62.9664 78.5764C65.6914 82.6577 69.5655 85.8392 74.0987 87.7186C78.632 89.5979 83.6208 90.0907 88.4341 89.1345C93.2474 88.1783 97.6691 85.8162 101.14 82.3468C104.611 78.8775 106.974 74.4568 107.933 69.6439C108.891 64.8309 108.4 59.8419 106.522 55.3079C104.645 50.7739 101.465 46.8985 97.3848 44.1719C93.3046 41.4453 88.5074 39.99 83.6 39.99C77.0217 39.99 70.7127 42.6025 66.0603 47.2531C61.4078 51.9038 58.7927 58.2117 58.79 64.79Z" fill="#85BD4B"/>
<path d="M247 100.31V52.78H257.72V72.25H258.01L272.15 52.78H283.96L269.6 71.74L286.59 100.31H274.85L263.26 80.27L257.72 87.56V100.31H247Z" fill="#85BD4B"/>
</g>
<defs>
<clipPath id="clip0_82_83">
<rect width="975.31" height="232.82" fill="white"/>
</clipPath>
</defs>
</svg>
