<svg width="199" height="230" viewBox="0 0 199 230" fill="none" xmlns="http://www.w3.org/2000/svg">
<g clip-path="url(#clip0_39_11)">
<path d="M73.2 7.2C73.2 8.62403 73.6222 10.0161 74.4134 11.2001C75.2045 12.3841 76.329 13.307 77.6446 13.8519C78.9603 14.3969 80.4079 14.5395 81.8046 14.2617C83.2013 13.9838 84.4842 13.2981 85.4911 12.2912C86.4981 11.2842 87.1838 10.0013 87.4616 8.60465C87.7394 7.20799 87.5968 5.76031 87.0519 4.44468C86.5069 3.12905 85.5841 2.00457 84.4001 1.21342C83.216 0.422273 81.824 0 80.4 0C78.4904 0 76.659 0.758569 75.3088 2.10883C73.9585 3.45909 73.2 5.29044 73.2 7.2Z" fill="#474F5A"/>
<path d="M193.31 120.33C188.55 121.53 182.2 122.11 182.39 125.49C182.58 128.87 184.58 134.02 184.58 134.02C185.012 135.973 184.731 138.015 183.79 139.78C183.715 139.913 183.648 140.049 183.59 140.19C182.41 142.83 184.32 143.69 183.19 146.52C183.11 146.72 183.02 146.93 182.92 147.13C181.57 149.91 178.72 152.76 177.24 156.64C176.61 158.28 177.35 160.41 178.09 162.99C179.22 166.99 180.35 171.99 176.46 178.1C172.46 184.37 165.33 182.64 150.65 182.83C135.97 183.02 132.59 180.83 126.44 195.33L126.26 195.78C121.98 206 116.8 223.3 114.06 232.78C107.53 229.227 101.775 224.408 97.1309 218.603C92.4869 212.799 89.0478 206.126 87.0149 198.976C84.982 191.826 84.3961 184.342 85.2915 176.962C86.187 169.583 88.5459 162.456 92.2299 156C87.6284 154.44 83.5702 151.595 80.5359 147.8C77.5016 144.006 75.6182 139.421 75.109 134.589C74.5997 129.758 75.4858 124.881 77.6623 120.537C79.8389 116.193 83.2147 112.564 87.3899 110.08C81.5822 105.084 77.393 98.4722 75.3558 91.0871C73.3185 83.702 73.5256 75.8776 75.9504 68.6106C78.3753 61.3435 82.9082 54.9626 88.972 50.2806C95.0357 45.5986 102.356 42.8274 110 42.3199C110.12 41.1999 110.29 40.1099 110.51 39.0299C112.369 29.6964 117.407 21.2959 124.764 15.2588C132.121 9.22182 141.343 5.92152 150.86 5.91992C151.86 5.91992 152.86 5.91992 153.8 6.03992C156.9 8.83899 159.819 11.8317 162.54 14.9999C165.413 18.2451 167.94 21.7808 170.08 25.5499C173.46 32.0399 181.86 55.0999 181.92 62.4399C181.936 62.6763 181.936 62.9135 181.92 63.1499C181.42 69.2199 177.27 71.9399 179.37 76.7799C179.51 77.0699 179.66 77.3899 179.83 77.6999C179.83 77.6999 198.1 109.25 198.49 112.42C198.88 115.59 198.1 119.17 193.33 120.36" fill="#85BD4B"/>
<path d="M12.4398 115.17C10.4838 115.17 8.57162 114.59 6.94522 113.503C5.31882 112.416 4.05119 110.872 3.30264 109.065C2.55409 107.257 2.35823 105.269 2.73984 103.35C3.12145 101.432 4.06338 99.6698 5.44652 98.2866C6.82966 96.9035 8.59189 95.9615 10.5104 95.5799C12.4288 95.1983 14.4174 95.3942 16.2245 96.1427C18.0317 96.8913 19.5763 98.1589 20.663 99.7853C21.7498 101.412 22.3298 103.324 22.3298 105.28C22.3298 106.579 22.074 107.865 21.577 109.065C21.08 110.265 20.3515 111.355 19.4331 112.273C18.5147 113.192 17.4245 113.92 16.2245 114.417C15.0246 114.914 13.7386 115.17 12.4398 115.17Z" fill="#85BD4B"/>
<path d="M33.74 133.66C33.74 135.452 34.2713 137.204 35.2669 138.694C36.2624 140.183 37.6774 141.345 39.3329 142.03C40.9884 142.716 42.81 142.896 44.5675 142.546C46.325 142.196 47.9393 141.334 49.2064 140.066C50.4734 138.799 51.3363 137.185 51.6859 135.428C52.0355 133.67 51.8561 131.848 51.1703 130.193C50.4846 128.537 49.3234 127.123 47.8335 126.127C46.3435 125.131 44.5919 124.6 42.8 124.6C40.3971 124.6 38.0927 125.555 36.3936 127.254C34.6945 128.953 33.74 131.257 33.74 133.66Z" fill="#F19106"/>
<path d="M30.75 26.73C30.7559 29.8339 31.6818 32.8664 33.4105 35.4443C35.1392 38.0222 37.5933 40.0298 40.4626 41.2135C43.3319 42.3972 46.4877 42.7038 49.5313 42.0947C52.5748 41.4855 55.3695 39.9878 57.5621 37.791C59.7548 35.5941 61.2471 32.7966 61.8505 29.7519C62.4538 26.7072 62.1412 23.552 60.952 20.685C59.7628 17.8179 57.7505 15.3677 55.1693 13.6439C52.5881 11.92 49.5539 11 46.45 11C42.2861 11 38.2927 12.6541 35.3484 15.5984C32.4041 18.5427 30.75 22.5361 30.75 26.7" fill="#85BD4B"/>
<path d="M5.39014 7.19995C5.39017 8.58228 5.79948 9.93366 6.56647 11.0837C7.33345 12.2337 8.42376 13.1309 9.69993 13.6622C10.9761 14.1934 12.381 14.335 13.7375 14.0689C15.094 13.8028 16.3413 13.1411 17.3222 12.1671C18.3032 11.1931 18.9738 9.95053 19.2495 8.59598C19.5252 7.24142 19.3937 5.83555 18.8715 4.55563C18.3494 3.27571 17.46 2.17904 16.3154 1.40389C15.1709 0.628745 13.8224 0.209825 12.4401 0.199951C10.5836 0.199951 8.80314 0.937449 7.49039 2.2502C6.17763 3.56296 5.44014 5.34344 5.44014 7.19995" fill="#F19106"/>
<path d="M0 44.91C0 47.3704 0.729593 49.7755 2.09652 51.8213C3.46344 53.867 5.40631 55.4615 7.67942 56.403C9.95253 57.3446 12.4538 57.5909 14.8669 57.1109C17.28 56.6309 19.4966 55.4461 21.2364 53.7064C22.9762 51.9666 24.161 49.75 24.641 47.3369C25.121 44.9238 24.8746 42.4225 23.9331 40.1494C22.9915 37.8763 21.397 35.9334 19.3513 34.5665C17.3055 33.1996 14.9004 32.47 12.44 32.47C9.14071 32.47 5.97654 33.7806 3.64359 36.1136C1.31064 38.4465 0 41.6107 0 44.91" fill="#474F5A"/>
<path d="M15.8899 51.41C15.8899 55.1422 16.9966 58.7905 19.0701 61.8937C21.1435 64.9968 24.0906 67.4154 27.5387 68.8436C30.9867 70.2719 34.7808 70.6456 38.4412 69.9175C42.1017 69.1894 45.464 67.3922 48.103 64.7531C50.742 62.1141 52.5392 58.7518 53.2673 55.0914C53.9954 51.431 53.6217 47.6368 52.1935 44.1888C50.7653 40.7408 48.3467 37.7937 45.2435 35.7202C42.1403 33.6467 38.492 32.54 34.7599 32.54C29.7553 32.54 24.9556 34.5281 21.4168 38.0669C17.878 41.6057 15.8899 46.4054 15.8899 51.41Z" fill="#85BD4B"/>
<path d="M78 37.9999C78.002 41.1339 78.933 44.1969 80.6754 46.8019C82.4178 49.4069 84.8933 51.4369 87.7891 52.6353C90.6849 53.8337 93.871 54.1468 96.9446 53.5349C100.018 52.923 102.842 51.4136 105.058 49.1975C107.274 46.9815 108.783 44.1582 109.395 41.0845C110.007 38.0109 109.694 34.8248 108.495 31.929C107.297 29.0332 105.267 26.5577 102.662 24.8153C100.057 23.0729 96.994 22.1419 93.86 22.1399C91.7765 22.1373 89.713 22.5457 87.7875 23.3418C85.8621 24.1379 84.1127 25.3061 82.6394 26.7793C81.1662 28.2526 79.998 30.002 79.2019 31.9274C78.4058 33.8528 77.9974 35.9164 78 37.9999Z" fill="#474F5A"/>
<path d="M41.8999 98.2499C41.8999 103.107 43.3403 107.856 46.039 111.895C48.7377 115.934 52.5734 119.082 57.0612 120.94C61.5489 122.799 66.4871 123.286 71.2513 122.338C76.0155 121.39 80.3917 119.051 83.8264 115.616C87.2612 112.182 89.6003 107.806 90.548 103.041C91.4956 98.2772 91.0093 93.339 89.1504 88.8512C87.2915 84.3635 84.1436 80.5277 80.1047 77.829C76.0658 75.1304 71.3174 73.6899 66.4599 73.6899C59.947 73.6926 53.7016 76.281 49.0963 80.8863C44.491 85.4916 41.9026 91.737 41.8999 98.2499Z" fill="#474F5A"/>
<path d="M58.79 64.79C58.7861 69.6978 60.2378 74.4965 62.9616 78.5791C65.6853 82.6618 69.5587 85.8448 74.0918 87.7257C78.6249 89.6066 83.614 90.1008 88.428 89.1457C93.242 88.1907 97.6645 85.8293 101.136 82.3604C104.608 78.8914 106.973 74.4708 107.932 69.6576C108.891 64.8443 108.401 59.8549 106.523 55.3202C104.646 50.7856 101.466 46.9097 97.3858 44.1826C93.3054 41.4556 88.5079 40 83.6 40C80.3424 39.9987 77.1165 40.6392 74.1064 41.8849C71.0964 43.1306 68.3613 44.9572 66.0573 47.2602C63.7534 49.5632 61.9257 52.2976 60.6788 55.3071C59.4318 58.3167 58.79 61.5424 58.79 64.8" fill="#85BD4B"/>
</g>
<defs>
<clipPath id="clip0_39_11">
<rect width="198.56" height="232.82" fill="white"/>
</clipPath>
</defs>
</svg>
