<?xml version="1.0" encoding="utf-8"?>
<!-- Generator: Adobe Illustrator 24.3.0, SVG Export Plug-In . SVG Version: 6.00 Build 0)  -->
<svg version="1.1" id="Warstwa_1" xmlns="http://www.w3.org/2000/svg" xmlns:xlink="http://www.w3.org/1999/xlink" x="0px" y="0px"
	 viewBox="0 0 1023.9 230.8" style="enable-background:new 0 0 1023.9 230.8;" xml:space="preserve">
<style type="text/css">
	.st0{fill:#85BD4B;}
	.st1{fill:#474F5A;}
	.st2{fill:#F19106;}
	.st3{fill:#84BD4B;}
	.st4{fill-rule:evenodd;clip-rule:evenodd;fill:#84BD4B;}
	.st5{fill-rule:evenodd;clip-rule:evenodd;fill:#474F5A;}
</style>
<g id="Warstwa_1-2">
	<path class="st0" d="M359.7,101.2c-3,0-6-0.5-8.8-1.7c-2.6-1.1-4.9-2.8-6.8-4.9c-2-2.3-3.5-4.9-4.4-7.8c-1.1-3.4-1.6-6.9-1.6-10.4
		c-0.1-3.5,0.5-7,1.6-10.4c0.9-2.8,2.4-5.4,4.4-7.7c1.9-2.1,4.2-3.7,6.8-4.7c5.7-2.2,11.9-2.2,17.6,0c2.6,1.1,4.9,2.7,6.8,4.8
		c2,2.2,3.5,4.8,4.4,7.7c1.1,3.3,1.6,6.8,1.6,10.3c0.1,3.5-0.5,7.1-1.6,10.4c-0.9,2.9-2.4,5.5-4.4,7.8c-1.9,2.1-4.2,3.8-6.8,4.9
		C365.7,100.6,362.7,101.2,359.7,101.2 M359.7,91.9c3.1,0.1,6.1-1.5,7.7-4.2c1.9-2.8,2.9-6.6,2.9-11.4s-0.9-8.5-2.9-11.2
		c-3-4.3-8.9-5.3-13.2-2.3c-0.9,0.6-1.7,1.4-2.3,2.3c-1.9,2.7-2.8,6.4-2.8,11.2s0.9,8.6,2.8,11.4C353.6,90.4,356.5,92,359.7,91.9"/>
	<polygon class="st0" points="386.6,87.5 382.9,81.1 390.7,76.7 390.7,52.8 401.4,52.8 401.4,71.7 413,65.4 416.6,71.8 401.4,80.1 
		401.4,91.3 420.2,91.3 420.2,100.3 390.7,100.3 390.7,85 	"/>
	<path class="st0" d="M447.7,101.2c-3,0-6-0.5-8.8-1.7c-2.6-1.1-4.9-2.8-6.8-4.9c-2-2.3-3.5-4.9-4.4-7.8c-1.1-3.4-1.6-6.9-1.6-10.4
		c-0.1-3.5,0.5-7,1.6-10.4c0.9-2.8,2.4-5.4,4.4-7.7c1.9-2.1,4.2-3.7,6.8-4.7c5.7-2.2,11.9-2.2,17.6,0c2.6,1.1,4.9,2.7,6.8,4.8
		c2,2.2,3.5,4.8,4.4,7.7c1.1,3.3,1.6,6.8,1.6,10.3c0.1,3.5-0.5,7.1-1.6,10.4c-0.9,2.9-2.4,5.5-4.4,7.8c-1.9,2.1-4.2,3.8-6.8,4.9
		C453.7,100.6,450.7,101.2,447.7,101.2 M447.7,91.9c3.1,0.1,6.1-1.5,7.7-4.2c1.9-2.8,2.8-6.6,2.9-11.4c0-4.8-1-8.5-2.9-11.2
		c-3-4.3-8.9-5.3-13.2-2.3c-0.9,0.6-1.7,1.4-2.3,2.3c-1.9,2.7-2.8,6.4-2.8,11.2c0,4.8,1,8.6,2.8,11.4
		C441.7,90.4,444.6,92,447.7,91.9"/>
	<path class="st0" d="M492.9,100.3V52.8h11l12.4,23.6l4.7,10.5h0.3c-0.2-2.5-0.5-5.4-0.8-8.5c-0.3-3-0.5-5.9-0.5-8.9V52.8h10.2v47.5
		h-11l-12.4-23.7L502,66.3h-0.3c0.2,2.6,0.5,5.4,0.8,8.5c0.3,2.9,0.5,5.8,0.5,8.7v16.8H492.9z"/>
	<path class="st0" d="M535.3,100.3l14.9-47.5H563l14.9,47.5h-11.4L563.6,89h-14.5l-2.9,11.3L535.3,100.3z M552.5,76.3l-1.2,4.4h10.1
		l-1.1-4.4c-0.7-2.4-1.3-4.9-2-7.6c-0.6-2.7-1.3-5.2-1.9-7.7h-0.3l-1.8,7.8C553.8,71.4,553.1,73.9,552.5,76.3"/>
	<path class="st0" d="M601.8,101.2c-6.2,0-10.9-1.8-14.1-5.5c-3.3-3.6-4.9-9.5-4.9-17.4V52.8h10.8v26.6c0,4.7,0.7,7.9,2.1,9.8
		c1.5,1.9,3.8,2.9,6.1,2.8c2.4,0.1,4.7-0.9,6.2-2.8c1.5-1.8,2.2-5.1,2.2-9.8V52.8h10.3v25.5c0,8-1.6,13.8-4.8,17.4
		C612.6,99.3,607.9,101.2,601.8,101.2"/>
	<polygon class="st0" points="631.6,100.3 631.6,52.8 642.3,52.8 642.3,72.2 642.6,72.2 656.7,52.8 668.5,52.8 654.2,71.7 
		671.2,100.3 659.4,100.3 647.8,80.3 642.3,87.6 642.3,100.3 	"/>
	<path class="st0" d="M695.7,101.2c-3,0-6-0.5-8.8-1.7c-2.6-1.1-4.9-2.8-6.8-4.9c-2-2.3-3.5-4.9-4.4-7.8c-1.1-3.4-1.6-6.9-1.6-10.4
		c-0.1-3.5,0.5-7,1.6-10.4c0.9-2.8,2.4-5.4,4.4-7.7c1.9-2.1,4.2-3.7,6.8-4.7c5.7-2.2,11.9-2.2,17.6,0c2.6,1.1,4.9,2.7,6.8,4.8
		c2,2.2,3.5,4.8,4.4,7.7c1.1,3.3,1.6,6.8,1.6,10.3c0.1,3.5-0.5,7.1-1.6,10.4c-0.9,2.9-2.4,5.5-4.4,7.8c-1.9,2.1-4.2,3.8-6.8,4.9
		C701.7,100.6,698.7,101.2,695.7,101.2 M695.6,91.9c3.1,0.1,6.1-1.5,7.7-4.2c1.9-2.8,2.8-6.6,2.8-11.4s-0.9-8.5-2.8-11.2
		c-3-4.3-8.9-5.3-13.2-2.3c-0.9,0.6-1.7,1.4-2.3,2.3c-1.9,2.7-2.8,6.4-2.8,11.2c0,4.8,1,8.6,2.8,11.4
		C689.6,90.4,692.5,92,695.6,91.9"/>
	<path class="st0" d="M730.4,100.3l-8.8-47.5h11l3.3,22.2c0.3,2.5,0.6,5,1,7.5c0.3,2.5,0.7,5,1,7.5h0.3c0.5-2.5,1-5,1.4-7.5
		s0.9-5,1.4-7.5l5-22.2h9.1l5.1,22.2c0.5,2.4,1,4.9,1.4,7.4s0.9,5,1.4,7.6h0.3c0.3-2.6,0.7-5.1,1-7.6c0.3-2.5,0.6-5,1-7.4l3.3-22.2
		h10.3l-8.5,47.5H757l-4.7-21.6c-0.4-1.8-0.8-3.7-1.1-5.6s-0.6-3.7-0.8-5.4h-0.3c-0.3,1.8-0.6,3.6-0.9,5.4s-0.7,3.7-1.1,5.6
		l-4.5,21.6L730.4,100.3z"/>
	<polygon class="st0" points="785.5,100.3 785.5,52.8 815.2,52.8 815.2,61.8 796.2,61.8 796.2,71.4 812.3,71.4 812.3,80.3 
		796.2,80.3 796.2,91.3 815.9,91.3 815.9,100.3 	"/>
	<path class="st0" d="M310.1,166c-3.2,0-6.3-0.6-9.3-1.7c-3.1-1.1-5.9-2.9-8.3-5.1l6.1-7.4c1.7,1.5,3.6,2.7,5.6,3.6
		c1.9,0.9,4,1.4,6.1,1.4c1.8,0.1,3.5-0.3,5-1.2c1.1-0.8,1.7-2,1.6-3.4c0-0.7-0.1-1.3-0.5-1.9c-0.3-0.6-0.8-1.1-1.4-1.4
		c-0.7-0.5-1.4-0.9-2.2-1.2l-2.8-1.2l-6.2-2.6c-1.2-0.5-2.4-1.1-3.5-1.9c-1.1-0.8-2.2-1.7-3.1-2.7c-0.9-1.1-1.7-2.3-2.1-3.6
		c-0.6-1.5-0.8-3.1-0.8-4.7c0-1.9,0.4-3.8,1.2-5.5c0.8-1.7,2-3.3,3.5-4.5c1.6-1.3,3.4-2.3,5.4-3c2.2-0.7,4.5-1.1,6.8-1.1
		c2.8,0,5.6,0.5,8.2,1.6c2.7,1,5.1,2.6,7.1,4.7l-5.5,6.8c-1.4-1.1-3-2.1-4.7-2.8c-1.6-0.7-3.4-1-5.2-1c-1.6-0.1-3.1,0.3-4.4,1.1
		c-1.1,0.7-1.7,1.9-1.6,3.2c0,0.7,0.2,1.3,0.5,1.9c0.4,0.6,0.9,1,1.5,1.4c0.7,0.4,1.5,0.8,2.3,1.2c0.9,0.4,1.8,0.8,2.8,1.2l6.1,2.5
		c2.7,1,5,2.6,6.9,4.8c1.8,2.3,2.7,5.2,2.5,8.1c0,4-1.7,7.7-4.7,10.3c-1.7,1.4-3.6,2.5-5.6,3.2C315.3,165.6,312.7,166,310.1,166"/>
	<polygon class="st0" points="345.4,165.1 345.4,126.6 332.3,126.6 332.3,117.6 369.2,117.6 369.2,126.6 356.2,126.6 356.2,165.1 	
		"/>
	<path class="st0" d="M395.4,166c-6.2,0-10.9-1.8-14.1-5.5c-3.2-3.6-4.9-9.4-4.9-17.4v-25.5h10.8v26.6c0,4.7,0.7,7.9,2.1,9.8
		c1.5,1.9,3.8,2.9,6.1,2.8c2.4,0.1,4.7-0.9,6.2-2.8c1.5-1.9,2.2-5.1,2.2-9.8v-26.6h10.4v25.5c0,8-1.6,13.8-4.8,17.4
		C406.2,164.1,401.5,166,395.4,166"/>
	<path class="st0" d="M425.1,165.1v-47.5h13.4c3.3,0,6.7,0.4,9.8,1.4c2.8,0.8,5.4,2.3,7.5,4.3c2.2,2,3.8,4.5,4.8,7.3
		c1.2,3.4,1.8,7,1.7,10.6c0.1,3.6-0.5,7.2-1.7,10.6c-1,2.8-2.6,5.4-4.7,7.5c-2.1,2-4.6,3.5-7.3,4.4c-3.1,1-6.3,1.5-9.5,1.5
		L425.1,165.1z M435.8,156.4h2c1.9,0,3.7-0.2,5.5-0.8c1.6-0.5,3-1.4,4.2-2.6c1.3-1.3,2.2-3,2.7-4.7c0.7-2.3,1.1-4.8,1-7.2
		c0.1-2.4-0.3-4.8-1-7.1c-0.5-1.7-1.5-3.3-2.7-4.6c-1.2-1.2-2.6-2-4.2-2.4c-1.8-0.5-3.7-0.7-5.5-0.7h-2V156.4z"/>
	<polygon class="st0" points="471.4,165.1 471.4,117.6 501.2,117.6 501.2,126.6 482.1,126.6 482.1,136.2 498.3,136.2 498.3,145.1 
		482.1,145.1 482.1,156.1 501.9,156.1 501.9,165.1 	"/>
	<path class="st0" d="M511.4,165.1v-47.5h11l12.4,23.6l4.7,10.5h0.3c-0.2-2.5-0.5-5.4-0.8-8.5c-0.3-3.1-0.5-6.1-0.5-8.9v-16.8h10.2
		v47.5h-11l-12.4-23.7l-4.7-10.4h-0.3c0.2,2.6,0.5,5.4,0.8,8.4c0.3,2.9,0.5,5.8,0.5,8.8v16.8L511.4,165.1z"/>
	<polygon class="st0" points="569.1,165.1 569.1,126.6 556,126.6 556,117.6 592.9,117.6 592.9,126.6 579.9,126.6 579.9,165.1 	"/>
	<path class="st0" d="M619.7,166c-3,0-6-0.5-8.8-1.7c-2.6-1.1-4.9-2.8-6.8-4.9c-2-2.3-3.5-4.9-4.4-7.8c-2.1-6.8-2.1-14,0-20.8
		c0.9-2.8,2.4-5.4,4.4-7.7c1.9-2.1,4.2-3.7,6.8-4.7c5.7-2.2,11.9-2.2,17.6,0c2.6,1.1,4.9,2.7,6.8,4.8c2,2.2,3.5,4.9,4.4,7.7
		c1.1,3.3,1.6,6.8,1.6,10.3c0.1,3.5-0.5,7.1-1.6,10.4c-0.9,2.9-2.4,5.5-4.4,7.8c-1.9,2.1-4.2,3.8-6.8,4.9
		C625.7,165.5,622.7,166,619.7,166 M619.7,156.8c3.1,0.1,6.1-1.5,7.7-4.2c1.9-2.8,2.8-6.6,2.8-11.4c0-4.8-1-8.5-2.8-11.2
		c-3-4.3-8.9-5.3-13.2-2.2c-0.9,0.6-1.6,1.4-2.2,2.2c-1.9,2.7-2.8,6.4-2.8,11.2s1,8.6,2.8,11.4C613.7,155.2,616.6,156.8,619.7,156.8
		 M619,115.5l-4.8-5.4l12.5-10.2l5.7,6.9L619,115.5z"/>
	<path class="st0" d="M654.5,165.1l-8.8-47.5h11l3.3,22.2c0.3,2.5,0.6,5,1,7.5s0.7,5,0.9,7.5h0.3c0.5-2.5,1-5,1.4-7.5s0.9-5,1.4-7.5
		l5.1-22.2h9.1l5.1,22.2c0.5,2.4,1,4.9,1.4,7.4s0.9,5,1.4,7.6h0.3c0.3-2.6,0.7-5.1,1-7.6c0.3-2.5,0.7-5,1-7.4l3.3-22.2H703
		l-8.5,47.5H681l-4.7-21.6c-0.4-1.8-0.7-3.7-1.1-5.6c-0.3-1.9-0.6-3.7-0.8-5.4h-0.3c-0.3,1.7-0.6,3.6-0.9,5.4s-0.7,3.7-1.1,5.6
		l-4.4,21.6L654.5,165.1z"/>
	<path class="st0" d="M728.3,165.1l-8.8-47.5h11l3.3,22.2c0.3,2.5,0.6,5,1,7.5c0.3,2.5,0.7,5,1,7.5h0.3c0.5-2.5,1-5,1.4-7.5
		s0.9-5,1.4-7.5l5.1-22.2h9.1l5.1,22.2c0.5,2.4,1,4.9,1.4,7.4s0.9,5,1.4,7.6h0.3c0.3-2.6,0.7-5.1,1-7.6c0.3-2.5,0.7-5,1-7.4
		l3.3-22.2h10.3l-8.5,47.5h-13.5l-4.7-21.6c-0.4-1.8-0.7-3.7-1-5.6c-0.3-1.9-0.6-3.7-0.8-5.4H748c-0.3,1.7-0.6,3.6-0.9,5.4
		s-0.7,3.7-1,5.6l-4.5,21.6L728.3,165.1z"/>
	<path class="st0" d="M797.8,166c-3.2,0-6.3-0.6-9.3-1.7c-3.1-1.1-5.9-2.9-8.3-5.1l6.1-7.4c1.7,1.5,3.6,2.7,5.7,3.6
		c1.9,0.9,4,1.4,6.1,1.4c1.8,0.1,3.5-0.3,5-1.2c1.1-0.8,1.7-2,1.6-3.4c0-0.7-0.1-1.3-0.5-1.9c-0.4-0.6-0.8-1.1-1.4-1.4
		c-0.7-0.5-1.4-0.9-2.2-1.2l-2.8-1.2l-6.2-2.6c-1.2-0.5-2.4-1.1-3.5-1.9c-1.1-0.8-2.2-1.7-3.1-2.7c-0.9-1.1-1.6-2.3-2.1-3.6
		c-0.6-1.5-0.8-3.1-0.8-4.7c0-1.9,0.4-3.8,1.2-5.5c0.8-1.7,2-3.3,3.5-4.5c1.6-1.3,3.4-2.3,5.4-3c2.2-0.7,4.5-1.1,6.8-1.1
		c2.8,0,5.6,0.5,8.2,1.6c2.7,1,5.1,2.6,7.1,4.7l-5.5,6.8c-1.4-1.1-3-2.1-4.7-2.8c-1.6-0.7-3.4-1-5.2-1c-1.6-0.1-3.1,0.3-4.4,1.1
		c-1.1,0.7-1.7,1.9-1.6,3.2c0,0.7,0.2,1.3,0.5,1.9c0.4,0.6,0.9,1,1.5,1.4c0.7,0.4,1.5,0.8,2.3,1.2l2.8,1.2l6.1,2.5
		c2.7,1,5,2.6,6.9,4.8c1.8,2.3,2.7,5.2,2.5,8.1c0,4-1.7,7.7-4.7,10.3c-1.7,1.4-3.6,2.5-5.7,3.2C803,165.6,800.4,166,797.8,166"/>
	<polygon class="st0" points="823.9,165.1 823.9,117.6 853.6,117.6 853.6,126.6 834.6,126.6 834.6,136.2 850.8,136.2 850.8,145.1 
		834.6,145.1 834.6,156.1 854.3,156.1 854.3,165.1 	"/>
	<rect x="863.8" y="117.6" class="st0" width="10.7" height="47.5"/>
	<path class="st1" d="M295.6,229.9v-47.5H309c3.3,0,6.7,0.4,9.9,1.4c2.8,0.9,5.3,2.3,7.5,4.3c2.2,2,3.8,4.5,4.8,7.3
		c1.2,3.4,1.7,7,1.7,10.6c0.1,3.6-0.5,7.2-1.7,10.6c-1,2.8-2.6,5.4-4.7,7.5c-2.1,2-4.6,3.5-7.3,4.4c-3.1,1-6.3,1.5-9.5,1.5
		L295.6,229.9z M306.3,221.2h2c1.9,0,3.7-0.2,5.5-0.8c1.6-0.5,3.1-1.4,4.2-2.6c1.2-1.3,2.2-2.9,2.7-4.7c0.7-2.3,1.1-4.8,1-7.2
		c0.1-2.4-0.3-4.8-1-7.1c-0.5-1.7-1.5-3.3-2.7-4.6c-1.2-1.2-2.6-2-4.2-2.4c-1.8-0.5-3.7-0.7-5.5-0.7h-2V221.2z"/>
	<polygon class="st1" points="341.9,229.9 341.9,182.4 371.6,182.4 371.6,191.4 352.6,191.4 352.6,201 368.8,201 368.8,209.9 
		352.6,209.9 352.6,220.9 372.4,220.9 372.4,229.9 	"/>
	<path class="st1" d="M396.3,230.8c-3.2,0-6.3-0.6-9.3-1.7c-3.1-1.1-5.9-2.9-8.3-5.1l6.1-7.4c1.7,1.5,3.6,2.7,5.6,3.6
		c1.9,0.9,4,1.4,6.1,1.4c1.8,0.1,3.5-0.3,5-1.2c1.1-0.8,1.7-2,1.6-3.4c0-0.7-0.1-1.3-0.5-1.9c-0.4-0.6-0.8-1.1-1.4-1.4
		c-0.7-0.5-1.4-0.9-2.2-1.2l-2.8-1.2l-6.2-2.6c-1.2-0.5-2.4-1.1-3.5-1.9c-1.1-0.8-2.2-1.7-3.1-2.7c-0.9-1.1-1.6-2.3-2.1-3.6
		c-0.6-1.5-0.8-3.1-0.8-4.7c0-1.9,0.4-3.8,1.2-5.5c0.8-1.7,2-3.3,3.5-4.5c1.6-1.3,3.4-2.3,5.4-3c2.2-0.8,4.5-1.1,6.8-1.1
		c2.8,0,5.6,0.6,8.2,1.6c2.7,1,5.1,2.6,7.1,4.7l-5.5,6.8c-1.4-1.1-3-2.1-4.7-2.8c-1.6-0.7-3.4-1-5.2-1c-1.6-0.1-3.1,0.3-4.4,1.1
		c-1.1,0.7-1.7,1.9-1.6,3.2c0,0.7,0.2,1.3,0.5,1.9c0.4,0.6,0.9,1,1.5,1.4c0.7,0.5,1.5,0.8,2.3,1.2l2.8,1.2l6.1,2.5
		c2.7,1,5,2.7,6.9,4.8c1.8,2.3,2.7,5.2,2.5,8.1c0,4-1.7,7.7-4.7,10.3c-1.7,1.4-3.6,2.5-5.6,3.2C401.5,230.4,398.9,230.8,396.3,230.8
		"/>
	<rect x="422.4" y="182.4" class="st1" width="10.7" height="47.5"/>
	<path class="st1" d="M465.3,230.8c-3.1,0-6.2-0.5-9.1-1.6c-2.8-1-5.3-2.6-7.4-4.6c-2.2-2.2-3.8-4.8-4.9-7.6
		c-2.4-6.8-2.4-14.3,0-21.1c1.1-2.9,2.8-5.6,5-7.8c2.1-2.1,4.6-3.8,7.4-4.9c2.9-1.1,5.9-1.7,9-1.7c3.1-0.1,6.1,0.6,8.9,1.9
		c2.2,1.1,4.3,2.5,6,4.3l-5.6,6.9c-1.2-1-2.5-1.9-3.9-2.7c-1.6-0.8-3.3-1.2-5.1-1.1c-1.7,0-3.5,0.3-5.1,1.1c-1.5,0.7-2.9,1.7-4,3
		c-1.2,1.4-2.1,3.1-2.6,4.8c-0.6,2.1-0.9,4.2-0.9,6.4c0,4.9,1.1,8.7,3.3,11.4c2.2,2.7,5.5,4,10,4c1,0,1.9-0.1,2.8-0.4
		c0.8-0.2,1.6-0.6,2.3-1.1v-8.1h-7.9v-8.8H481V225c-1.9,1.8-4.1,3.2-6.6,4.1C471.5,230.2,468.4,230.8,465.3,230.8"/>
	<path class="st1" d="M490.8,229.9v-47.5h11l12.4,23.6l4.7,10.5h0.3c-0.2-2.5-0.5-5.3-0.8-8.4c-0.3-3-0.5-5.9-0.5-8.9v-16.8h10.2
		v47.5h-11l-12.4-23.7l-4.7-10.4h-0.3c0.2,2.6,0.5,5.4,0.8,8.5c0.3,2.9,0.5,5.8,0.5,8.8v16.8H490.8z"/>
	<polygon class="st1" points="563.1,229.9 563.1,191.4 550.1,191.4 550.1,182.4 587,182.4 587,191.4 573.9,191.4 573.9,229.9 	"/>
	<polygon class="st1" points="594.4,229.9 594.4,182.4 605.1,182.4 605.1,200.7 621.5,200.7 621.5,182.4 632.3,182.4 632.3,229.9 
		621.5,229.9 621.5,210.1 605.1,210.1 605.1,229.9 	"/>
	<rect x="643.5" y="182.4" class="st1" width="10.7" height="47.5"/>
	<path class="st1" d="M665.5,229.9v-47.5h11l12.4,23.6l4.7,10.5h0.3c-0.2-2.5-0.5-5.3-0.8-8.4c-0.3-3.1-0.5-6.1-0.5-8.9v-16.8h10.2
		v47.5h-11l-12.4-23.7l-4.7-10.4h-0.3c0.2,2.6,0.5,5.4,0.8,8.5c0.3,2.9,0.5,5.8,0.5,8.8v16.8H665.5z"/>
	<polygon class="st1" points="713.9,229.9 713.9,182.4 724.7,182.4 724.7,201.8 725,201.8 739.1,182.4 750.9,182.4 736.5,201.3 
		753.5,229.9 741.8,229.9 730.2,209.9 724.7,217.1 724.7,229.9 	"/>
	<rect x="758.7" y="182.4" class="st1" width="10.7" height="47.5"/>
	<path class="st1" d="M780.6,229.9v-47.5h11L804,206l4.7,10.5h0.3c-0.2-2.5-0.5-5.3-0.8-8.4c-0.3-3-0.5-5.9-0.5-8.9v-16.8h10.2v47.5
		h-11l-12.4-23.7l-4.7-10.4h-0.3c0.2,2.6,0.5,5.4,0.8,8.5c0.3,2.9,0.5,5.8,0.5,8.8v16.8H780.6z"/>
	<path class="st1" d="M850.1,230.8c-3.1,0-6.2-0.5-9.2-1.6c-2.8-1-5.3-2.6-7.4-4.6c-2.2-2.2-3.8-4.8-4.9-7.6
		c-2.4-6.8-2.4-14.3,0-21.1c1.1-2.9,2.8-5.6,5-7.8c2.1-2.1,4.6-3.8,7.4-4.9c2.9-1.1,5.9-1.7,9-1.7c3.1-0.1,6.1,0.6,8.9,1.9
		c2.2,1.1,4.3,2.5,6,4.3l-5.6,6.9c-1.2-1-2.5-1.9-3.9-2.7c-1.6-0.8-3.3-1.2-5.1-1.1c-1.7,0-3.5,0.3-5.1,1.1c-1.5,0.7-2.9,1.7-4,3
		c-1.2,1.4-2.1,3.1-2.6,4.8c-0.6,2.1-0.9,4.2-0.9,6.4c0,4.9,1.1,8.7,3.3,11.4c2.2,2.7,5.5,4,10,4c1,0,1.9-0.1,2.8-0.4
		c0.8-0.2,1.6-0.6,2.3-1.1v-8.1h-7.9v-8.8h17.3V225c-1.9,1.8-4.1,3.2-6.6,4.1C856.3,230.2,853.2,230.8,850.1,230.8"/>
	<polygon class="st1" points="890.2,229.9 890.2,182.4 900.9,182.4 900.9,200.7 917.3,200.7 917.3,182.4 928.1,182.4 928.1,229.9 
		917.3,229.9 917.3,210.1 900.9,210.1 900.9,229.9 	"/>
	<path class="st1" d="M958.1,230.8c-6.2,0-10.9-1.8-14.1-5.5c-3.3-3.6-4.9-9.4-4.9-17.4v-25.5h10.8V209c0,4.7,0.7,7.9,2.1,9.8
		c1.5,1.9,3.7,2.9,6.1,2.8c2.4,0.1,4.7-0.9,6.2-2.8c1.5-1.8,2.2-5.1,2.2-9.8v-26.6h10.4v25.5c0,8-1.6,13.8-4.8,17.4
		C968.8,228.9,964.2,230.8,958.1,230.8"/>
	<path class="st1" d="M987.8,229.9v-47.5h16.3c2.3,0,4.6,0.2,6.9,0.6c1.9,0.3,3.8,1,5.5,1.9c1.5,0.9,2.8,2.1,3.7,3.6
		c1,1.7,1.4,3.7,1.3,5.7c0,1.1-0.1,2.2-0.4,3.2c-0.3,1-0.7,2.1-1.2,3c-0.5,0.9-1.2,1.7-1.9,2.5c-0.7,0.7-1.6,1.3-2.6,1.6v0.3
		c1.2,0.3,2.3,0.7,3.3,1.4c1,0.6,1.9,1.4,2.7,2.3c0.8,1,1.4,2.1,1.8,3.2c0.5,1.4,0.7,2.8,0.7,4.3c0.1,2.2-0.4,4.3-1.4,6.3
		c-0.9,1.7-2.3,3.2-3.9,4.3c-1.8,1.2-3.8,2.1-5.9,2.6c-2.4,0.6-4.8,0.9-7.2,0.8L987.8,229.9z M998.5,201.4h5c2.6,0,4.5-0.5,5.7-1.5
		c1.2-1,1.8-2.5,1.8-4.1c0.1-1.5-0.6-3-1.8-3.9c-1.7-0.9-3.7-1.3-5.6-1.2h-5.1L998.5,201.4z M998.5,221.6h6c5.9,0,8.8-2.1,8.8-6.4
		c0.2-1.8-0.7-3.5-2.2-4.5c-1.5-0.9-3.7-1.3-6.6-1.4h-6V221.6z"/>
	<rect class="st2" width="35.6" height="35.6"/>
	<rect x="6.7" y="60.3" class="st3" width="57.9" height="57.9"/>
	<path class="st4" d="M246.1,121.3c-9-9.3-25.7-25.3-24.2-36c4.4-31.8-13.5-54.4-43.7-70.7c-16-8.6-36.3-13.1-56-11.7V2.7H64.6v57.6
		h56.7v57.9H64.6v57.6h57.2v54.4H179c0,0,5.6-15.2,10.3-21c5.8-7.2,26-3.6,36.3-5.6c21.3-4,6.2-22.2,6.6-25.4
		c0.5-4.5,10.2-5.1,6.6-11.6c-1.3-2.3-2.5-2.2-5.4-4.8c14.8-9-1.3-11.2,1.9-21.9C236.5,135.6,254.5,129.9,246.1,121.3"/>
	<polygon class="st5" points="121.3,118.2 64.6,118.2 64.6,175.8 121.8,175.8 	"/>
	<polygon class="st0" points="295.6,100.3 295.6,52.8 306.3,52.8 306.3,72.2 306.6,72.2 320.7,52.8 332.5,52.8 318.2,71.7 
		335.2,100.3 323.4,100.3 311.9,80.3 306.3,87.6 306.3,100.3 	"/>
</g>
</svg>
