<svg xmlns="http://www.w3.org/2000/svg" viewBox="0 0 248.32 230.24"><g id="Warstwa_2" data-name="Warstwa 2"><g id="Warstwa_1-2" data-name="Warstwa 1"><g id="Warstwa_1-2-2" data-name="Warstwa 1-2"><rect width="35.58" height="35.58" style="fill:#f19106"/><rect x="6.72" y="60.3" width="57.9" height="57.9" style="fill:#84bd4b"/><path d="M246.06,121.33c-9-9.28-25.69-25.3-24.2-36,4.42-31.83-13.54-54.4-43.67-70.65-16-8.64-36.3-13.09-56-11.68V2.7H64.62V60.3h56.72v57.9H64.62v57.6h57.21v54.44H179s5.61-15.22,10.26-21c5.83-7.24,26-3.61,36.34-5.57,21.26-4,6.24-22.16,6.57-25.41.46-4.49,10.2-5.07,6.56-11.57-1.27-2.28-2.48-2.17-5.39-4.8,14.8-9-1.28-11.16,1.9-21.95,1.28-4.36,19.26-10,10.85-18.61" style="fill:#84bd4b;fill-rule:evenodd"/><polygon points="121.34 118.2 64.62 118.2 64.62 175.8 121.83 175.8 121.34 118.2" style="fill:#474f5a;fill-rule:evenodd"/></g></g></g></svg>