<svg width="199" height="230" viewBox="0 0 199 230" fill="none" xmlns="http://www.w3.org/2000/svg">
<g clip-path="url(#clip0_39_37)">
<mask id="path-1-inside-1_39_37" fill="white">
<path d="M73.2 7.2C73.2 8.62403 73.6222 10.0161 74.4134 11.2001C75.2045 12.3841 76.329 13.307 77.6446 13.8519C78.9603 14.3969 80.4079 14.5395 81.8046 14.2617C83.2013 13.9838 84.4842 13.2981 85.4911 12.2912C86.4981 11.2842 87.1838 10.0013 87.4616 8.60465C87.7394 7.20799 87.5968 5.76031 87.0519 4.44468C86.5069 3.12905 85.5841 2.00457 84.4001 1.21342C83.216 0.422273 81.824 0 80.4 0C78.4904 0 76.659 0.758569 75.3088 2.10883C73.9585 3.45909 73.2 5.29044 73.2 7.2Z"/>
</mask>
<path d="M73.2 7.2C73.2 8.62403 73.6222 10.0161 74.4134 11.2001C75.2045 12.3841 76.329 13.307 77.6446 13.8519C78.9603 14.3969 80.4079 14.5395 81.8046 14.2617C83.2013 13.9838 84.4842 13.2981 85.4911 12.2912C86.4981 11.2842 87.1838 10.0013 87.4616 8.60465C87.7394 7.20799 87.5968 5.76031 87.0519 4.44468C86.5069 3.12905 85.5841 2.00457 84.4001 1.21342C83.216 0.422273 81.824 0 80.4 0C78.4904 0 76.659 0.758569 75.3088 2.10883C73.9585 3.45909 73.2 5.29044 73.2 7.2Z" fill="white"/>
<path d="M80.4 0V-1V0ZM72.2 7.2C72.2 8.82181 72.6809 10.4072 73.5819 11.7557L75.2448 10.6445C74.5636 9.62495 74.2 8.42624 74.2 7.2H72.2ZM73.5819 11.7557C74.4829 13.1042 75.7636 14.1552 77.2619 14.7758L78.0273 12.9281C76.8944 12.4588 75.9261 11.6641 75.2448 10.6445L73.5819 11.7557ZM77.2619 14.7758C78.7603 15.3965 80.409 15.5588 81.9997 15.2424L81.6095 13.2809C80.4068 13.5201 79.1602 13.3973 78.0273 12.9281L77.2619 14.7758ZM81.9997 15.2424C83.5903 14.926 85.0514 14.1451 86.1982 12.9983L84.784 11.5841C83.9169 12.4511 82.8122 13.0416 81.6095 13.2809L81.9997 15.2424ZM86.1982 12.9983C87.345 11.8515 88.126 10.3904 88.4424 8.79974L86.4808 8.40956C86.2416 9.61224 85.6511 10.717 84.784 11.5841L86.1982 12.9983ZM88.4424 8.79974C88.7588 7.2091 88.5964 5.56035 87.9758 4.062L86.128 4.82736C86.5973 5.96026 86.7201 7.20688 86.4808 8.40956L88.4424 8.79974ZM87.9758 4.062C87.3551 2.56364 86.3041 1.28298 84.9556 0.381949L83.8445 2.04489C84.8641 2.72615 85.6587 3.69446 86.128 4.82736L87.9758 4.062ZM84.9556 0.381949C83.6072 -0.519078 82.0218 -1 80.4 -1V1C81.6262 1 82.8249 1.36362 83.8445 2.04489L84.9556 0.381949ZM80.4 -1C78.2252 -1 76.1395 -0.136074 74.6017 1.40172L76.0159 2.81594C77.1786 1.65321 78.7556 1 80.4 1V-1ZM74.6017 1.40172C73.0639 2.93952 72.2 5.02522 72.2 7.2H74.2C74.2 5.55566 74.8532 3.97866 76.0159 2.81594L74.6017 1.40172Z" fill="#85BD4B" mask="url(#path-1-inside-1_39_37)"/>
<mask id="path-3-inside-2_39_37" fill="white">
<path d="M193.31 120.33C188.55 121.53 182.2 122.11 182.39 125.49C182.58 128.87 184.58 134.02 184.58 134.02C185.012 135.973 184.731 138.015 183.79 139.78C183.715 139.913 183.648 140.049 183.59 140.19C182.41 142.83 184.32 143.69 183.19 146.52C183.11 146.72 183.02 146.93 182.92 147.13C181.57 149.91 178.72 152.76 177.24 156.64C176.61 158.28 177.35 160.41 178.09 162.99C179.22 166.99 180.35 171.99 176.46 178.1C172.46 184.37 165.33 182.64 150.65 182.83C135.97 183.02 132.59 180.83 126.44 195.33L126.26 195.78C121.98 206 116.8 223.3 114.06 232.78C107.53 229.227 101.775 224.408 97.1309 218.603C92.4869 212.799 89.0478 206.126 87.0149 198.976C84.982 191.826 84.3961 184.342 85.2915 176.962C86.187 169.583 88.5459 162.456 92.2299 156C87.6284 154.44 83.5702 151.595 80.5359 147.8C77.5016 144.006 75.6182 139.421 75.109 134.589C74.5997 129.758 75.4858 124.881 77.6623 120.537C79.8389 116.193 83.2147 112.564 87.3899 110.08C81.5822 105.084 77.393 98.4722 75.3558 91.0871C73.3185 83.702 73.5256 75.8776 75.9504 68.6106C78.3753 61.3435 82.9082 54.9626 88.972 50.2806C95.0357 45.5986 102.356 42.8274 110 42.3199C110.12 41.1999 110.29 40.1099 110.51 39.0299C112.369 29.6964 117.407 21.2959 124.764 15.2588C132.121 9.22182 141.343 5.92152 150.86 5.91992C151.86 5.91992 152.86 5.91992 153.8 6.03992C156.9 8.83899 159.819 11.8317 162.54 14.9999C165.413 18.2451 167.94 21.7808 170.08 25.5499C173.46 32.0399 181.86 55.0999 181.92 62.4399C181.936 62.6763 181.936 62.9135 181.92 63.1499C181.42 69.2199 177.27 71.9399 179.37 76.7799C179.51 77.0699 179.66 77.3899 179.83 77.6999C179.83 77.6999 198.1 109.25 198.49 112.42C198.88 115.59 198.1 119.17 193.33 120.36"/>
</mask>
<path d="M193.31 120.33C188.55 121.53 182.2 122.11 182.39 125.49C182.58 128.87 184.58 134.02 184.58 134.02C185.012 135.973 184.731 138.015 183.79 139.78C183.715 139.913 183.648 140.049 183.59 140.19C182.41 142.83 184.32 143.69 183.19 146.52C183.11 146.72 183.02 146.93 182.92 147.13C181.57 149.91 178.72 152.76 177.24 156.64C176.61 158.28 177.35 160.41 178.09 162.99C179.22 166.99 180.35 171.99 176.46 178.1C172.46 184.37 165.33 182.64 150.65 182.83C135.97 183.02 132.59 180.83 126.44 195.33L126.26 195.78C121.98 206 116.8 223.3 114.06 232.78C107.53 229.227 101.775 224.408 97.1309 218.603C92.4869 212.799 89.0478 206.126 87.0149 198.976C84.982 191.826 84.3961 184.342 85.2915 176.962C86.187 169.583 88.5459 162.456 92.2299 156C87.6284 154.44 83.5702 151.595 80.5359 147.8C77.5016 144.006 75.6182 139.421 75.109 134.589C74.5997 129.758 75.4858 124.881 77.6623 120.537C79.8389 116.193 83.2147 112.564 87.3899 110.08C81.5822 105.084 77.393 98.4722 75.3558 91.0871C73.3185 83.702 73.5256 75.8776 75.9504 68.6106C78.3753 61.3435 82.9082 54.9626 88.972 50.2806C95.0357 45.5986 102.356 42.8274 110 42.3199C110.12 41.1999 110.29 40.1099 110.51 39.0299C112.369 29.6964 117.407 21.2959 124.764 15.2588C132.121 9.22182 141.343 5.92152 150.86 5.91992C151.86 5.91992 152.86 5.91992 153.8 6.03992C156.9 8.83899 159.819 11.8317 162.54 14.9999C165.413 18.2451 167.94 21.7808 170.08 25.5499C173.46 32.0399 181.86 55.0999 181.92 62.4399C181.936 62.6763 181.936 62.9135 181.92 63.1499C181.42 69.2199 177.27 71.9399 179.37 76.7799C179.51 77.0699 179.66 77.3899 179.83 77.6999C179.83 77.6999 198.1 109.25 198.49 112.42C198.88 115.59 198.1 119.17 193.33 120.36" fill="white"/>
<path d="M184.58 134.02L185.556 133.804L185.54 133.729L185.512 133.658L184.58 134.02ZM183.79 139.78L184.661 140.271L184.667 140.261L184.672 140.251L183.79 139.78ZM183.59 140.19L184.503 140.598L184.508 140.586L184.513 140.574L183.59 140.19ZM183.19 146.52L184.118 146.891L184.119 146.891L183.19 146.52ZM182.92 147.13L182.025 146.683L182.02 146.693L182.92 147.13ZM177.24 156.64L178.173 156.999L178.174 156.996L177.24 156.64ZM178.09 162.99L179.052 162.718L179.051 162.714L178.09 162.99ZM176.46 178.1L177.303 178.638L177.303 178.637L176.46 178.1ZM126.44 195.33L125.519 194.939L125.515 194.949L125.511 194.959L126.44 195.33ZM126.26 195.78L127.182 196.166L127.185 196.159L127.188 196.151L126.26 195.78ZM114.06 232.78L113.582 233.658L114.675 234.253L115.021 233.058L114.06 232.78ZM92.2299 156L93.0985 156.496L93.6996 155.442L92.5509 155.053L92.2299 156ZM87.3899 110.08L87.9013 110.939L89.0959 110.228L88.0421 109.322L87.3899 110.08ZM110 42.3199L110.066 43.3177L110.905 43.2621L110.994 42.4265L110 42.3199ZM110.51 39.0299L111.49 39.2295L111.491 39.2253L110.51 39.0299ZM150.86 5.91992V4.91992H150.86L150.86 5.91992ZM153.8 6.03992L154.47 5.29775L154.238 5.08767L153.927 5.04797L153.8 6.03992ZM162.54 14.9999L161.781 15.6515L161.786 15.6572L161.791 15.6628L162.54 14.9999ZM170.08 25.5499L170.967 25.088L170.958 25.0719L170.95 25.0562L170.08 25.5499ZM181.92 62.4399L180.92 62.4481L180.92 62.4772L180.922 62.5063L181.92 62.4399ZM181.92 63.1499L182.917 63.232L182.917 63.2242L182.918 63.2163L181.92 63.1499ZM179.37 76.7799L178.453 77.178L178.461 77.1965L178.469 77.2147L179.37 76.7799ZM179.83 77.6999L178.953 78.1808L178.959 78.191L178.965 78.201L179.83 77.6999ZM193.065 119.36C191.896 119.655 190.638 119.91 189.355 120.19C188.091 120.467 186.812 120.767 185.678 121.143C184.558 121.516 183.488 121.992 182.698 122.666C181.87 123.371 181.323 124.325 181.392 125.546L183.388 125.434C183.362 124.965 183.537 124.578 183.996 124.187C184.491 123.764 185.27 123.387 186.309 123.041C187.334 122.701 188.523 122.419 189.782 122.144C191.023 121.873 192.344 121.605 193.554 121.3L193.065 119.36ZM181.392 125.546C181.494 127.364 182.073 129.594 182.6 131.315C182.867 132.188 183.128 132.951 183.322 133.497C183.419 133.771 183.5 133.99 183.557 134.142C183.585 134.218 183.608 134.277 183.623 134.317C183.631 134.338 183.637 134.353 183.641 134.364C183.643 134.37 183.645 134.374 183.646 134.377C183.646 134.378 183.647 134.379 183.647 134.38C183.647 134.381 183.647 134.381 183.648 134.381C183.648 134.381 183.648 134.382 183.648 134.382C183.648 134.382 183.648 134.382 184.58 134.02C185.512 133.658 185.512 133.658 185.512 133.658C185.512 133.658 185.512 133.658 185.512 133.658C185.512 133.658 185.512 133.658 185.512 133.658C185.512 133.657 185.512 133.657 185.511 133.656C185.51 133.654 185.509 133.65 185.507 133.646C185.504 133.637 185.499 133.623 185.492 133.605C185.478 133.569 185.457 133.514 185.43 133.442C185.377 133.299 185.3 133.09 185.207 132.827C185.02 132.302 184.769 131.567 184.512 130.73C183.992 129.031 183.476 126.996 183.388 125.434L181.392 125.546ZM183.603 134.236C183.984 135.956 183.737 137.755 182.908 139.309L184.672 140.251C185.726 138.276 186.039 135.99 185.556 133.804L183.603 134.236ZM182.919 139.289C182.825 139.456 182.741 139.629 182.667 139.805L184.513 140.574C184.556 140.47 184.606 140.369 184.661 140.271L182.919 139.289ZM182.677 139.782C182.329 140.561 182.194 141.245 182.189 141.886C182.183 142.506 182.3 143.051 182.393 143.489C182.57 144.335 182.714 145.016 182.261 146.149L184.119 146.891C184.796 145.194 184.55 144.029 184.35 143.078C184.253 142.618 184.185 142.276 184.188 141.904C184.192 141.552 184.261 141.139 184.503 140.598L182.677 139.782ZM182.261 146.149C182.187 146.334 182.109 146.516 182.026 146.683L183.814 147.577C183.931 147.343 184.033 147.106 184.118 146.891L182.261 146.149ZM182.02 146.693C181.389 147.994 180.408 149.307 179.306 150.904C178.231 152.462 177.09 154.226 176.306 156.284L178.174 156.996C178.869 155.174 179.894 153.573 180.952 152.04C181.982 150.547 183.101 149.046 183.819 147.567L182.02 146.693ZM176.306 156.281C175.893 157.358 175.957 158.519 176.168 159.647C176.378 160.767 176.77 162.016 177.129 163.266L179.051 162.714C178.67 161.384 178.321 160.277 178.134 159.278C177.948 158.286 177.957 157.562 178.173 156.999L176.306 156.281ZM177.128 163.262C178.235 167.18 179.271 171.822 175.616 177.563L177.303 178.637C181.428 172.158 180.205 166.8 179.052 162.718L177.128 163.262ZM175.617 177.562C174.709 178.986 173.647 179.924 172.361 180.561C171.055 181.207 169.466 181.567 167.469 181.749C165.469 181.931 163.126 181.93 160.327 181.893C157.542 181.855 154.324 181.782 150.637 181.83L150.663 183.83C154.316 183.783 157.494 183.855 160.3 183.892C163.091 183.93 165.533 183.934 167.651 183.741C169.771 183.548 171.633 183.153 173.247 182.354C174.881 181.545 176.211 180.349 177.303 178.638L175.617 177.562ZM150.637 181.83C148.814 181.854 147.165 181.84 145.656 181.827C144.151 181.814 142.775 181.8 141.519 181.824C139.018 181.873 136.886 182.071 134.996 182.777C131.121 184.225 128.6 187.675 125.519 194.939L127.361 195.72C130.429 188.485 132.674 185.78 135.696 184.65C137.255 184.068 139.105 183.871 141.558 183.824C142.78 183.8 144.124 183.813 145.638 183.827C147.148 183.84 148.816 183.854 150.663 183.83L150.637 181.83ZM125.511 194.959L125.331 195.409L127.188 196.151L127.368 195.701L125.511 194.959ZM125.338 195.394C121.031 205.676 115.836 223.032 113.099 232.502L115.021 233.058C117.764 223.568 122.928 206.324 127.182 196.166L125.338 195.394ZM114.538 231.902C108.125 228.413 102.473 223.679 97.9117 217.979L96.35 219.228C101.077 225.136 106.935 230.042 113.582 233.658L114.538 231.902ZM97.9117 217.979C93.3509 212.278 89.9733 205.725 87.9768 198.703L86.053 199.249C88.1223 206.528 91.623 213.32 96.35 219.228L97.9117 217.979ZM87.9768 198.703C85.9802 191.68 85.4048 184.33 86.2843 177.083L84.2988 176.842C83.3873 184.353 83.9837 191.971 86.053 199.249L87.9768 198.703ZM86.2843 177.083C87.1637 169.835 89.4803 162.836 93.0985 156.496L91.3614 155.504C87.6114 162.076 85.2103 169.33 84.2988 176.842L86.2843 177.083ZM92.5509 155.053C88.1304 153.555 84.2318 150.821 81.3169 147.176L79.7549 148.425C82.9086 152.369 87.1264 155.326 91.909 156.947L92.5509 155.053ZM81.3169 147.176C78.4019 143.531 76.5927 139.126 76.1034 134.485L74.1145 134.694C74.6438 139.716 76.6012 144.481 79.7549 148.425L81.3169 147.176ZM76.1034 134.485C75.6142 129.843 76.4655 125.158 78.5564 120.985L76.7683 120.089C74.5061 124.604 73.5852 129.672 74.1145 134.694L76.1034 134.485ZM78.5564 120.985C80.6473 116.812 83.8903 113.326 87.9013 110.939L86.8786 109.221C82.539 111.803 79.0304 115.575 76.7683 120.089L78.5564 120.985ZM88.0421 109.322C82.3849 104.455 78.3042 98.0149 76.3198 90.8212L74.3918 91.353C76.4818 98.9295 80.7796 105.712 86.7378 110.838L88.0421 109.322ZM76.3198 90.8212C74.3353 83.6275 74.537 76.0059 76.899 68.9271L75.0018 68.2941C72.5141 75.7494 72.3018 83.7766 74.3918 91.353L76.3198 90.8212ZM76.899 68.9271C79.261 61.8484 83.6765 55.6328 89.5831 51.0722L88.3608 49.4891C82.1399 54.2924 77.4895 60.8387 75.0018 68.2941L76.899 68.9271ZM89.5831 51.0722C95.4897 46.5115 102.62 43.8121 110.066 43.3177L109.934 41.3221C102.091 41.8428 94.5817 44.6858 88.3608 49.4891L89.5831 51.0722ZM110.994 42.4265C111.111 41.3379 111.276 40.279 111.49 39.2295L109.53 38.8303C109.304 39.9409 109.129 41.0619 109.006 42.2134L110.994 42.4265ZM111.491 39.2253C113.305 30.1186 118.22 21.9222 125.398 16.0319L124.129 14.4858C116.593 20.6695 111.434 29.2742 109.529 38.8345L111.491 39.2253ZM125.398 16.0319C132.576 10.1416 141.574 6.92148 150.86 6.91992L150.86 4.91992C141.112 4.92156 131.665 8.30206 124.129 14.4858L125.398 16.0319ZM150.86 6.91992C151.873 6.91992 152.808 6.92137 153.673 7.03187L153.927 5.04797C152.912 4.91847 151.847 4.91992 150.86 4.91992V6.91992ZM153.13 6.7821C156.198 9.55286 159.088 12.5153 161.781 15.6515L163.299 14.3484C160.55 11.1481 157.601 8.12513 154.47 5.29775L153.13 6.7821ZM161.791 15.6628C164.618 18.8559 167.105 22.335 169.21 26.0437L170.95 25.0562C168.775 21.2267 166.208 17.6342 163.289 14.337L161.791 15.6628ZM169.193 26.0118C170.846 29.1858 173.771 36.5133 176.297 43.996C177.558 47.7284 178.711 51.4771 179.552 54.7414C180.399 58.0323 180.906 60.7462 180.92 62.4481L182.92 62.4317C182.904 60.4637 182.338 57.5425 181.488 54.2425C180.632 50.9158 179.462 47.1177 178.192 43.3563C175.659 35.8515 172.694 28.4041 170.967 25.088L169.193 26.0118ZM180.922 62.5063C180.935 62.6985 180.935 62.8914 180.922 63.0836L182.918 63.2163C182.936 62.9357 182.936 62.6542 182.918 62.3736L180.922 62.5063ZM180.923 63.0678C180.69 65.9056 179.62 67.9118 178.745 70.047C177.872 72.1767 177.241 74.3853 178.453 77.178L180.287 76.3819C179.399 74.3345 179.793 72.7632 180.595 70.8054C181.395 68.8531 182.65 66.4642 182.917 63.232L180.923 63.0678ZM178.469 77.2147C178.602 77.4901 178.767 77.8417 178.953 78.1808L180.707 77.2191C180.553 76.9382 180.418 76.6497 180.27 76.3452L178.469 77.2147ZM179.83 77.6999C178.965 78.201 178.965 78.2011 178.965 78.2014C178.965 78.2016 178.965 78.202 178.965 78.2024C178.966 78.2034 178.967 78.2048 178.968 78.2067C178.97 78.2105 178.973 78.2161 178.978 78.2237C178.986 78.2388 178.999 78.2614 179.017 78.2912C179.051 78.3508 179.102 78.4394 179.169 78.5552C179.303 78.7867 179.499 79.1267 179.749 79.5608C180.249 80.4289 180.964 81.6728 181.823 83.1754C183.54 86.1809 185.834 90.2203 188.14 94.358C190.447 98.4972 192.761 102.728 194.522 106.118C195.403 107.815 196.141 109.291 196.668 110.436C196.932 111.009 197.138 111.489 197.282 111.865C197.436 112.268 197.489 112.476 197.497 112.542L199.482 112.298C199.442 111.967 199.306 111.558 199.15 111.15C198.984 110.716 198.757 110.193 198.485 109.6C197.938 108.412 197.184 106.904 196.297 105.197C194.523 101.78 192.197 97.5289 189.887 93.3844C187.577 89.2383 185.279 85.1921 183.559 82.1829C182.699 80.6782 181.983 79.4324 181.482 78.5628C181.232 78.1279 181.035 77.7871 180.901 77.5549C180.834 77.4388 180.783 77.3498 180.748 77.2899C180.731 77.2599 180.718 77.2372 180.709 77.2219C180.704 77.2143 180.701 77.2085 180.699 77.2047C180.698 77.2027 180.697 77.2013 180.696 77.2003C180.696 77.1998 180.696 77.1994 180.696 77.1992C180.695 77.1989 180.695 77.1988 179.83 77.6999ZM197.497 112.542C197.679 114.021 197.571 115.481 196.956 116.674C196.363 117.824 195.233 118.855 193.088 119.39L193.572 121.33C196.197 120.675 197.842 119.32 198.734 117.591C199.604 115.904 199.691 113.989 199.482 112.298L197.497 112.542Z" fill="#85BD4B" mask="url(#path-3-inside-2_39_37)"/>
<mask id="path-5-inside-3_39_37" fill="white">
<path d="M12.4401 115.17C10.484 115.17 8.57187 114.59 6.94546 113.503C5.31906 112.416 4.05144 110.872 3.30288 109.065C2.55433 107.257 2.35848 105.269 2.74009 103.35C3.12169 101.432 4.06363 99.6698 5.44677 98.2866C6.82991 96.9035 8.59214 95.9615 10.5106 95.5799C12.4291 95.1983 14.4176 95.3942 16.2248 96.1427C18.032 96.8913 19.5766 98.1589 20.6633 99.7853C21.75 101.412 22.3301 103.324 22.3301 105.28C22.3301 106.579 22.0742 107.865 21.5772 109.065C21.0802 110.265 20.3517 111.355 19.4333 112.273C18.515 113.192 17.4247 113.92 16.2248 114.417C15.0249 114.914 13.7388 115.17 12.4401 115.17Z"/>
</mask>
<path d="M12.4401 115.17C10.484 115.17 8.57187 114.59 6.94546 113.503C5.31906 112.416 4.05144 110.872 3.30288 109.065C2.55433 107.257 2.35848 105.269 2.74009 103.35C3.12169 101.432 4.06363 99.6698 5.44677 98.2866C6.82991 96.9035 8.59214 95.9615 10.5106 95.5799C12.4291 95.1983 14.4176 95.3942 16.2248 96.1427C18.032 96.8913 19.5766 98.1589 20.6633 99.7853C21.75 101.412 22.3301 103.324 22.3301 105.28C22.3301 106.579 22.0742 107.865 21.5772 109.065C21.0802 110.265 20.3517 111.355 19.4333 112.273C18.515 113.192 17.4247 113.92 16.2248 114.417C15.0249 114.914 13.7388 115.17 12.4401 115.17Z" fill="white"/>
<path d="M22.3301 105.28H23.3301H22.3301ZM12.4401 114.17C10.6818 114.17 8.96299 113.649 7.50103 112.672L6.38989 114.335C8.18075 115.531 10.2862 116.17 12.4401 116.17V114.17ZM7.50103 112.672C6.03908 111.695 4.89963 110.306 4.22676 108.682L2.37901 109.447C3.20324 111.437 4.59904 113.138 6.38989 114.335L7.50103 112.672ZM4.22676 108.682C3.5539 107.058 3.37785 105.27 3.72087 103.546L1.7593 103.155C1.33911 105.268 1.55477 107.457 2.37901 109.447L4.22676 108.682ZM3.72087 103.546C4.06389 101.821 4.91059 100.237 6.15387 98.9937L4.73966 97.5795C3.21667 99.1025 2.17949 101.043 1.7593 103.155L3.72087 103.546ZM6.15387 98.9937C7.39716 97.7504 8.98121 96.9037 10.7057 96.5607L10.3155 94.5991C8.20307 95.0193 6.26265 96.0565 4.73966 97.5795L6.15387 98.9937ZM10.7057 96.5607C12.4302 96.2177 14.2177 96.3937 15.8421 97.0666L16.6075 95.2188C14.6176 94.3946 12.428 94.179 10.3155 94.5991L10.7057 96.5607ZM15.8421 97.0666C17.4665 97.7395 18.855 98.8789 19.8318 100.341L21.4948 99.2297C20.2981 97.4389 18.5974 96.0431 16.6075 95.2188L15.8421 97.0666ZM19.8318 100.341C20.8087 101.803 21.3301 103.522 21.3301 105.28H23.3301C23.3301 103.126 22.6914 101.021 21.4948 99.2297L19.8318 100.341ZM21.3301 105.28C21.3301 106.447 21.1001 107.603 20.6533 108.682L22.5011 109.447C23.0484 108.126 23.3301 106.71 23.3301 105.28H21.3301ZM20.6533 108.682C20.2066 109.761 19.5517 110.741 18.7262 111.566L20.1404 112.98C21.1517 111.969 21.9538 110.769 22.5011 109.447L20.6533 108.682ZM18.7262 111.566C17.9007 112.392 16.9207 113.046 15.8421 113.493L16.6075 115.341C17.9287 114.794 19.1292 113.992 20.1404 112.98L18.7262 111.566ZM15.8421 113.493C14.7635 113.94 13.6075 114.17 12.4401 114.17V116.17C13.8701 116.17 15.2862 115.888 16.6075 115.341L15.8421 113.493Z" fill="#85BD4B" mask="url(#path-5-inside-3_39_37)"/>
<mask id="path-7-inside-4_39_37" fill="white">
<path d="M33.74 133.66C33.74 135.452 34.2713 137.204 35.2669 138.694C36.2624 140.183 37.6774 141.345 39.3329 142.03C40.9884 142.716 42.81 142.896 44.5675 142.546C46.325 142.196 47.9393 141.334 49.2064 140.066C50.4734 138.799 51.3363 137.185 51.6859 135.428C52.0355 133.67 51.8561 131.848 51.1703 130.193C50.4846 128.537 49.3234 127.123 47.8335 126.127C46.3435 125.131 44.5919 124.6 42.8 124.6C40.3971 124.6 38.0927 125.555 36.3936 127.254C34.6945 128.953 33.74 131.257 33.74 133.66Z"/>
</mask>
<path d="M33.74 133.66C33.74 135.452 34.2713 137.204 35.2669 138.694C36.2624 140.183 37.6774 141.345 39.3329 142.03C40.9884 142.716 42.81 142.896 44.5675 142.546C46.325 142.196 47.9393 141.334 49.2064 140.066C50.4734 138.799 51.3363 137.185 51.6859 135.428C52.0355 133.67 51.8561 131.848 51.1703 130.193C50.4846 128.537 49.3234 127.123 47.8335 126.127C46.3435 125.131 44.5919 124.6 42.8 124.6C40.3971 124.6 38.0927 125.555 36.3936 127.254C34.6945 128.953 33.74 131.257 33.74 133.66Z" fill="white"/>
<path d="M32.74 133.66C32.74 135.65 33.33 137.595 34.4354 139.249L36.0983 138.138C35.2127 136.813 34.74 135.254 34.74 133.66H32.74ZM34.4354 139.249C35.5408 140.903 37.112 142.193 38.9502 142.954L39.7156 141.107C38.2428 140.497 36.984 139.463 36.0983 138.138L34.4354 139.249ZM38.9502 142.954C40.7884 143.716 42.8112 143.915 44.7626 143.527L44.3724 141.565C42.8089 141.876 41.1883 141.717 39.7156 141.107L38.9502 142.954ZM44.7626 143.527C46.714 143.139 48.5066 142.181 49.9135 140.774L48.4993 139.359C47.3721 140.487 45.9359 141.254 44.3724 141.565L44.7626 143.527ZM49.9135 140.774C51.3204 139.367 52.2785 137.574 52.6667 135.623L50.7051 135.233C50.3941 136.796 49.6265 138.232 48.4993 139.359L49.9135 140.774ZM52.6667 135.623C53.0549 133.671 52.8556 131.649 52.0942 129.81L50.2465 130.576C50.8565 132.048 51.0161 133.669 50.7051 135.233L52.6667 135.623ZM52.0942 129.81C51.3328 127.972 50.0434 126.401 48.389 125.296L47.2779 126.958C48.6033 127.844 49.6364 129.103 50.2465 130.576L52.0942 129.81ZM48.389 125.296C46.7347 124.19 44.7897 123.6 42.8 123.6V125.6C44.3941 125.6 45.9524 126.073 47.2779 126.958L48.389 125.296ZM42.8 123.6C40.1319 123.6 37.5731 124.66 35.6865 126.547L37.1007 127.961C38.6123 126.449 40.6623 125.6 42.8 125.6V123.6ZM35.6865 126.547C33.7999 128.433 32.74 130.992 32.74 133.66H34.74C34.74 131.522 35.5892 129.472 37.1007 127.961L35.6865 126.547Z" fill="#85BD4B" mask="url(#path-7-inside-4_39_37)"/>
<mask id="path-9-inside-5_39_37" fill="white">
<path d="M30.75 26.73C30.7559 29.8339 31.6818 32.8664 33.4105 35.4443C35.1392 38.0222 37.5933 40.0298 40.4626 41.2135C43.3319 42.3972 46.4877 42.7038 49.5313 42.0947C52.5748 41.4855 55.3695 39.9878 57.5621 37.791C59.7548 35.5941 61.2471 32.7966 61.8505 29.7519C62.4538 26.7072 62.1412 23.552 60.952 20.685C59.7628 17.8179 57.7505 15.3677 55.1693 13.6439C52.5881 11.92 49.5539 11 46.45 11C42.2861 11 38.2927 12.6541 35.3484 15.5984C32.4041 18.5427 30.75 22.5361 30.75 26.7"/>
</mask>
<path d="M30.75 26.73C30.7559 29.8339 31.6818 32.8664 33.4105 35.4443C35.1392 38.0222 37.5933 40.0298 40.4626 41.2135C43.3319 42.3972 46.4877 42.7038 49.5313 42.0947C52.5748 41.4855 55.3695 39.9878 57.5621 37.791C59.7548 35.5941 61.2471 32.7966 61.8505 29.7519C62.4538 26.7072 62.1412 23.552 60.952 20.685C59.7628 17.8179 57.7505 15.3677 55.1693 13.6439C52.5881 11.92 49.5539 11 46.45 11C42.2861 11 38.2927 12.6541 35.3484 15.5984C32.4041 18.5427 30.75 22.5361 30.75 26.7" fill="white"/>
<path d="M46.45 11L46.45 10H46.45V11ZM29.75 26.7319C29.7563 30.0335 30.7411 33.2591 32.58 36.0012L34.241 34.8873C32.6224 32.4736 31.7556 29.6343 31.75 26.7281L29.75 26.7319ZM32.58 36.0012C34.4188 38.7433 37.0292 40.8788 40.0813 42.1379L40.844 40.2891C38.1574 39.1808 35.8597 37.301 34.241 34.8873L32.58 36.0012ZM40.0813 42.1379C43.1333 43.397 46.4901 43.7232 49.7275 43.0752L49.335 41.1141C46.4853 41.6845 43.5305 41.3974 40.844 40.2891L40.0813 42.1379ZM49.7275 43.0752C52.9649 42.4272 55.9376 40.8342 58.2699 38.4974L56.8544 37.0845C54.8013 39.1415 52.1847 40.5437 49.335 41.1141L49.7275 43.0752ZM58.2699 38.4974C60.6023 36.1606 62.1896 33.1849 62.8314 29.9463L60.8696 29.5575C60.3046 32.4083 58.9074 35.0276 56.8544 37.0845L58.2699 38.4974ZM62.8314 29.9463C63.4732 26.7077 63.1406 23.3515 61.8757 20.3018L60.0283 21.0681C61.1417 23.7525 61.4345 26.7068 60.8696 29.5575L62.8314 29.9463ZM61.8757 20.3018C60.6108 17.2522 58.4703 14.6459 55.7247 12.8123L54.614 14.4755C57.0307 16.0895 58.9149 18.3836 60.0283 21.0681L61.8757 20.3018ZM55.7247 12.8123C52.9791 10.9786 49.7516 10 46.45 10L46.45 12C49.3562 12 52.1972 12.8614 54.614 14.4755L55.7247 12.8123ZM46.45 10C42.0209 10 37.7732 11.7595 34.6413 14.8913L36.0555 16.3055C38.8123 13.5487 42.5513 12 46.45 12V10ZM34.6413 14.8913C31.5095 18.0232 29.75 22.2709 29.75 26.7H31.75C31.75 22.8013 33.2987 19.0623 36.0555 16.3055L34.6413 14.8913Z" fill="#85BD4B" mask="url(#path-9-inside-5_39_37)"/>
<mask id="path-11-inside-6_39_37" fill="white">
<path d="M5.38989 7.19995C5.38993 8.58228 5.79924 9.93366 6.56622 11.0837C7.3332 12.2337 8.42352 13.1309 9.69969 13.6622C10.9759 14.1934 12.3808 14.335 13.7372 14.0689C15.0937 13.8028 16.3411 13.1411 17.322 12.1671C18.3029 11.1931 18.9735 9.95053 19.2492 8.59598C19.525 7.24142 19.3934 5.83555 18.8713 4.55563C18.3491 3.27571 17.4597 2.17904 16.3152 1.40389C15.1706 0.628745 13.8222 0.209825 12.4399 0.199951C10.5834 0.199951 8.8029 0.937449 7.49015 2.2502C6.17739 3.56296 5.43989 5.34344 5.43989 7.19995"/>
</mask>
<path d="M5.38989 7.19995C5.38993 8.58228 5.79924 9.93366 6.56622 11.0837C7.3332 12.2337 8.42352 13.1309 9.69969 13.6622C10.9759 14.1934 12.3808 14.335 13.7372 14.0689C15.0937 13.8028 16.3411 13.1411 17.322 12.1671C18.3029 11.1931 18.9735 9.95053 19.2492 8.59598C19.525 7.24142 19.3934 5.83555 18.8713 4.55563C18.3491 3.27571 17.4597 2.17904 16.3152 1.40389C15.1706 0.628745 13.8222 0.209825 12.4399 0.199951C10.5834 0.199951 8.8029 0.937449 7.49015 2.2502C6.17739 3.56296 5.43989 5.34344 5.43989 7.19995" fill="white"/>
<path d="M12.4399 0.199951L12.447 -0.800049H12.4399V0.199951ZM4.38989 7.19998C4.38993 8.77979 4.85772 10.3242 5.73427 11.6385L7.39818 10.5289C6.74076 9.54311 6.38992 8.38478 6.38989 7.19993L4.38989 7.19998ZM5.73427 11.6385C6.61082 12.9529 7.85689 13.9782 9.31537 14.5854L10.084 12.739C8.99014 12.2836 8.05559 11.5146 7.39818 10.5289L5.73427 11.6385ZM9.31537 14.5854C10.7739 15.1925 12.3794 15.3543 13.9297 15.0502L13.5448 13.0876C12.3821 13.3156 11.1779 13.1943 10.084 12.739L9.31537 14.5854ZM13.9297 15.0502C15.48 14.7461 16.9055 13.9898 18.0266 12.8767L16.6174 11.4575C15.7766 12.2923 14.7075 12.8595 13.5448 13.0876L13.9297 15.0502ZM18.0266 12.8767C19.1476 11.7636 19.914 10.3435 20.2291 8.79543L18.2693 8.39652C18.033 9.55757 17.4582 10.6227 16.6174 11.4575L18.0266 12.8767ZM20.2291 8.79543C20.5443 7.24737 20.394 5.64066 19.7972 4.1779L17.9454 4.93337C18.3929 6.03044 18.5057 7.23547 18.2693 8.39652L20.2291 8.79543ZM19.7972 4.1779C19.2005 2.71513 18.184 1.46179 16.8759 0.57591L15.7544 2.23188C16.7355 2.89629 17.4978 3.83629 17.9454 4.93337L19.7972 4.1779ZM16.8759 0.57591C15.5679 -0.309973 14.0268 -0.788739 12.447 -0.800023L12.4327 1.19993C13.6176 1.20839 14.7734 1.56746 15.7544 2.23188L16.8759 0.57591ZM12.4399 -0.800049C10.3182 -0.800049 8.28333 0.0428058 6.78304 1.5431L8.19725 2.95731C9.32247 1.83209 10.8486 1.19995 12.4399 1.19995V-0.800049ZM6.78304 1.5431C5.28275 3.04339 4.43989 5.07822 4.43989 7.19995H6.43989C6.43989 5.60865 7.07203 4.08253 8.19725 2.95731L6.78304 1.5431Z" fill="#85BD4B" mask="url(#path-11-inside-6_39_37)"/>
<mask id="path-13-inside-7_39_37" fill="white">
<path d="M0 44.91C0 47.3704 0.729593 49.7755 2.09652 51.8213C3.46344 53.867 5.40631 55.4615 7.67942 56.403C9.95253 57.3446 12.4538 57.5909 14.8669 57.1109C17.28 56.6309 19.4966 55.4461 21.2364 53.7064C22.9762 51.9666 24.161 49.75 24.641 47.3369C25.121 44.9238 24.8746 42.4225 23.9331 40.1494C22.9915 37.8763 21.397 35.9334 19.3513 34.5665C17.3055 33.1996 14.9004 32.47 12.44 32.47C9.14071 32.47 5.97654 33.7806 3.64359 36.1136C1.31064 38.4465 0 41.6107 0 44.91"/>
</mask>
<path d="M0 44.91C0 47.3704 0.729593 49.7755 2.09652 51.8213C3.46344 53.867 5.40631 55.4615 7.67942 56.403C9.95253 57.3446 12.4538 57.5909 14.8669 57.1109C17.28 56.6309 19.4966 55.4461 21.2364 53.7064C22.9762 51.9666 24.161 49.75 24.641 47.3369C25.121 44.9238 24.8746 42.4225 23.9331 40.1494C22.9915 37.8763 21.397 35.9334 19.3513 34.5665C17.3055 33.1996 14.9004 32.47 12.44 32.47C9.14071 32.47 5.97654 33.7806 3.64359 36.1136C1.31064 38.4465 0 41.6107 0 44.91" fill="white"/>
<path d="M12.44 32.47V33.47V32.47ZM-1 44.91C-1 47.5682 -0.211758 50.1666 1.26505 52.3768L2.92799 51.2657C1.67094 49.3844 1 47.1726 1 44.91H-1ZM1.26505 52.3768C2.74185 54.587 4.8409 56.3097 7.29673 57.3269L8.0621 55.4792C5.97171 54.6133 4.18503 53.147 2.92799 51.2657L1.26505 52.3768ZM7.29673 57.3269C9.75257 58.3442 12.4549 58.6103 15.062 58.0917L14.6718 56.1302C12.4527 56.5716 10.1525 56.345 8.0621 55.4792L7.29673 57.3269ZM15.062 58.0917C17.6691 57.5731 20.0639 56.2931 21.9435 54.4135L20.5293 52.9993C18.9294 54.5992 16.891 55.6887 14.6718 56.1302L15.062 58.0917ZM21.9435 54.4135C23.8231 52.5339 25.1032 50.1391 25.6218 47.532L23.6602 47.1418C23.2188 49.3609 22.1292 51.3994 20.5293 52.9993L21.9435 54.4135ZM25.6218 47.532C26.1403 44.9249 25.8742 42.2225 24.8569 39.7667L23.0092 40.5321C23.875 42.6225 24.1016 44.9227 23.6602 47.1418L25.6218 47.532ZM24.8569 39.7667C23.8397 37.3109 22.1171 35.2118 19.9069 33.735L18.7957 35.398C20.677 36.655 22.1433 38.4417 23.0092 40.5321L24.8569 39.7667ZM19.9069 33.735C17.6967 32.2582 15.0982 31.47 12.44 31.47V33.47C14.7026 33.47 16.9144 34.1409 18.7957 35.398L19.9069 33.735ZM12.44 31.47C8.87549 31.47 5.45697 32.886 2.93648 35.4065L4.3507 36.8207C6.49611 34.6753 9.40592 33.47 12.44 33.47V31.47ZM2.93648 35.4065C0.415996 37.9269 -1 41.3455 -1 44.91H1C1 41.8759 2.20528 38.9661 4.3507 36.8207L2.93648 35.4065Z" fill="#85BD4B" mask="url(#path-13-inside-7_39_37)"/>
<mask id="path-15-inside-8_39_37" fill="white">
<path d="M15.8899 51.41C15.8899 55.1422 16.9966 58.7905 19.0701 61.8937C21.1435 64.9968 24.0906 67.4154 27.5387 68.8436C30.9867 70.2719 34.7808 70.6456 38.4412 69.9175C42.1017 69.1894 45.464 67.3922 48.103 64.7531C50.742 62.1141 52.5392 58.7518 53.2673 55.0914C53.9954 51.431 53.6217 47.6368 52.1935 44.1888C50.7653 40.7408 48.3467 37.7937 45.2435 35.7202C42.1403 33.6467 38.492 32.54 34.7599 32.54C29.7553 32.54 24.9556 34.5281 21.4168 38.0669C17.878 41.6057 15.8899 46.4054 15.8899 51.41Z"/>
</mask>
<path d="M15.8899 51.41C15.8899 55.1422 16.9966 58.7905 19.0701 61.8937C21.1435 64.9968 24.0906 67.4154 27.5387 68.8436C30.9867 70.2719 34.7808 70.6456 38.4412 69.9175C42.1017 69.1894 45.464 67.3922 48.103 64.7531C50.742 62.1141 52.5392 58.7518 53.2673 55.0914C53.9954 51.431 53.6217 47.6368 52.1935 44.1888C50.7653 40.7408 48.3467 37.7937 45.2435 35.7202C42.1403 33.6467 38.492 32.54 34.7599 32.54C29.7553 32.54 24.9556 34.5281 21.4168 38.0669C17.878 41.6057 15.8899 46.4054 15.8899 51.41Z" fill="white"/>
<path d="M34.7599 32.54V33.54V32.54ZM14.8899 51.41C14.8899 55.34 16.0552 59.1816 18.2386 62.4492L19.9015 61.3381C17.9379 58.3994 16.8899 54.9444 16.8899 51.41H14.8899ZM18.2386 62.4492C20.4219 65.7168 23.5252 68.2636 27.156 69.7675L27.9213 67.9198C24.656 66.5672 21.8651 64.2768 19.9015 61.3381L18.2386 62.4492ZM27.156 69.7675C30.7867 71.2714 34.7819 71.6649 38.6363 70.8982L38.2462 68.9367C34.7797 69.6262 31.1867 69.2723 27.9213 67.9198L27.156 69.7675ZM38.6363 70.8982C42.4907 70.1316 46.0312 68.2391 48.8101 65.4603L47.3959 64.046C44.8967 66.5452 41.7126 68.2472 38.2462 68.9367L38.6363 70.8982ZM48.8101 65.4603C51.589 62.6814 53.4814 59.1409 54.2481 55.2865L52.2865 54.8963C51.597 58.3627 49.8951 61.5469 47.3959 64.046L48.8101 65.4603ZM54.2481 55.2865C55.0148 51.4321 54.6213 47.4369 53.1174 43.8061L51.2696 44.5715C52.6222 47.8368 52.976 51.4299 52.2865 54.8963L54.2481 55.2865ZM53.1174 43.8061C51.6135 40.1753 49.0667 37.0721 45.7991 34.8887L44.6879 36.5517C47.6266 38.5153 49.9171 41.3062 51.2696 44.5715L53.1174 43.8061ZM45.7991 34.8887C42.5315 32.7054 38.6898 31.54 34.7599 31.54V33.54C38.2942 33.54 41.7492 34.5881 44.6879 36.5517L45.7991 34.8887ZM34.7599 31.54C29.49 31.54 24.436 33.6335 20.7097 37.3598L22.1239 38.774C25.4752 35.4228 30.0205 33.54 34.7599 33.54V31.54ZM20.7097 37.3598C16.9833 41.0862 14.8899 46.1402 14.8899 51.41H16.8899C16.8899 46.6706 18.7726 42.1253 22.1239 38.774L20.7097 37.3598Z" fill="#85BD4B" mask="url(#path-15-inside-8_39_37)"/>
<mask id="path-17-inside-9_39_37" fill="white">
<path d="M78 37.9999C78.002 41.1339 78.933 44.1969 80.6754 46.8019C82.4178 49.4069 84.8933 51.4369 87.7891 52.6353C90.6849 53.8337 93.871 54.1468 96.9446 53.5349C100.018 52.923 102.842 51.4136 105.058 49.1975C107.274 46.9815 108.783 44.1582 109.395 41.0845C110.007 38.0109 109.694 34.8248 108.495 31.929C107.297 29.0332 105.267 26.5577 102.662 24.8153C100.057 23.0729 96.994 22.1419 93.86 22.1399C91.7765 22.1373 89.713 22.5457 87.7875 23.3418C85.8621 24.1379 84.1127 25.3061 82.6394 26.7793C81.1662 28.2526 79.998 30.002 79.2019 31.9274C78.4058 33.8528 77.9974 35.9164 78 37.9999Z"/>
</mask>
<path d="M78 37.9999C78.002 41.1339 78.933 44.1969 80.6754 46.8019C82.4178 49.4069 84.8933 51.4369 87.7891 52.6353C90.6849 53.8337 93.871 54.1468 96.9446 53.5349C100.018 52.923 102.842 51.4136 105.058 49.1975C107.274 46.9815 108.783 44.1582 109.395 41.0845C110.007 38.0109 109.694 34.8248 108.495 31.929C107.297 29.0332 105.267 26.5577 102.662 24.8153C100.057 23.0729 96.994 22.1419 93.86 22.1399C91.7765 22.1373 89.713 22.5457 87.7875 23.3418C85.8621 24.1379 84.1127 25.3061 82.6394 26.7793C81.1662 28.2526 79.998 30.002 79.2019 31.9274C78.4058 33.8528 77.9974 35.9164 78 37.9999Z" fill="white"/>
<path d="M93.86 22.1399L93.8587 23.1399L93.8594 23.1399L93.86 22.1399ZM77 38.0005C77.0021 41.3322 77.9919 44.5886 79.8442 47.3579L81.5066 46.246C79.8741 43.8053 79.0019 40.9355 79 37.9993L77 38.0005ZM79.8442 47.3579C81.6965 50.1272 84.3282 52.2853 87.4067 53.5593L88.1715 51.7113C85.4584 50.5885 83.139 48.6866 81.5066 46.246L79.8442 47.3579ZM87.4067 53.5593C90.4852 54.8333 93.8723 55.1661 97.1399 54.5156L96.7494 52.5541C93.8697 53.1274 90.8846 52.8341 88.1715 51.7113L87.4067 53.5593ZM97.1399 54.5156C100.407 53.8651 103.409 52.2605 105.765 49.9047L104.351 48.4904C102.274 50.5667 99.6291 51.9808 96.7494 52.5541L97.1399 54.5156ZM105.765 49.9047C108.121 47.5488 109.725 44.5474 110.376 41.2798L108.414 40.8893C107.841 43.769 106.427 46.4142 104.351 48.4904L105.765 49.9047ZM110.376 41.2798C111.026 38.0122 110.693 34.6251 109.419 31.5466L107.571 32.3114C108.694 35.0245 108.988 38.0096 108.414 40.8893L110.376 41.2798ZM109.419 31.5466C108.145 28.4681 105.987 25.8364 103.218 23.9841L102.106 25.6465C104.547 27.2789 106.449 29.5983 107.571 32.3114L109.419 31.5466ZM103.218 23.9841C100.449 22.1318 97.1924 21.142 93.8606 21.1399L93.8594 23.1399C96.7956 23.1418 99.6654 24.014 102.106 25.6465L103.218 23.9841ZM93.8613 21.1399C91.6462 21.1371 89.4524 21.5713 87.4054 22.4177L88.1696 24.2659C89.9735 23.5201 91.9068 23.1374 93.8587 23.1399L93.8613 21.1399ZM87.4054 22.4177C85.3585 23.2641 83.4986 24.5059 81.9323 26.0722L83.3465 27.4864C84.7268 26.1062 86.3658 25.0118 88.1696 24.2659L87.4054 22.4177ZM81.9323 26.0722C80.3661 27.6385 79.1242 29.4984 78.2778 31.5453L80.126 32.3095C80.8719 30.5057 81.9663 28.8667 83.3465 27.4864L81.9323 26.0722ZM78.2778 31.5453C77.4314 33.5923 76.9972 35.7861 77 38.0012L79 37.9986C78.9975 36.0467 79.3802 34.1134 80.126 32.3095L78.2778 31.5453Z" fill="#85BD4B" mask="url(#path-17-inside-9_39_37)"/>
<mask id="path-19-inside-10_39_37" fill="white">
<path d="M41.8999 98.2499C41.8999 103.107 43.3403 107.856 46.039 111.895C48.7377 115.934 52.5734 119.082 57.0612 120.94C61.5489 122.799 66.4871 123.286 71.2513 122.338C76.0155 121.39 80.3917 119.051 83.8264 115.616C87.2612 112.182 89.6003 107.806 90.548 103.041C91.4956 98.2772 91.0093 93.339 89.1504 88.8512C87.2915 84.3635 84.1436 80.5277 80.1047 77.829C76.0658 75.1304 71.3174 73.6899 66.4599 73.6899C59.947 73.6926 53.7016 76.281 49.0963 80.8863C44.491 85.4916 41.9026 91.737 41.8999 98.2499Z"/>
</mask>
<path d="M41.8999 98.2499C41.8999 103.107 43.3403 107.856 46.039 111.895C48.7377 115.934 52.5734 119.082 57.0612 120.94C61.5489 122.799 66.4871 123.286 71.2513 122.338C76.0155 121.39 80.3917 119.051 83.8264 115.616C87.2612 112.182 89.6003 107.806 90.548 103.041C91.4956 98.2772 91.0093 93.339 89.1504 88.8512C87.2915 84.3635 84.1436 80.5277 80.1047 77.829C76.0658 75.1304 71.3174 73.6899 66.4599 73.6899C59.947 73.6926 53.7016 76.281 49.0963 80.8863C44.491 85.4916 41.9026 91.737 41.8999 98.2499Z" fill="white"/>
<path d="M66.4599 73.6899V72.6899L66.4595 72.6899L66.4599 73.6899ZM40.8999 98.2499C40.8999 103.305 42.399 108.247 45.2075 112.45L46.8705 111.339C44.2817 107.465 42.8999 102.91 42.8999 98.2499H40.8999ZM45.2075 112.45C48.0161 116.654 52.008 119.93 56.6785 121.864L57.4439 120.017C53.1389 118.233 49.4593 115.214 46.8705 111.339L45.2075 112.45ZM56.6785 121.864C61.349 123.799 66.4883 124.305 71.4464 123.319L71.0562 121.357C66.486 122.266 61.7489 121.8 57.4439 120.017L56.6785 121.864ZM71.4464 123.319C76.4046 122.333 80.9589 119.898 84.5336 116.324L83.1193 114.909C79.8244 118.204 75.6264 120.448 71.0562 121.357L71.4464 123.319ZM84.5336 116.324C88.1082 112.749 90.5425 108.195 91.5288 103.236L89.5672 102.846C88.6581 107.416 86.4143 111.614 83.1193 114.909L84.5336 116.324ZM91.5288 103.236C92.515 98.2783 92.0088 93.139 90.0743 88.4686L88.2265 89.2339C90.0097 93.5389 90.4763 98.2761 89.5672 102.846L91.5288 103.236ZM90.0743 88.4686C88.1397 83.7981 84.8636 79.8061 80.6603 76.9976L79.5491 78.6605C83.4236 81.2493 86.4433 84.9289 88.2265 89.2339L90.0743 88.4686ZM80.6603 76.9976C76.457 74.189 71.5152 72.6899 66.4599 72.6899V74.6899C71.1196 74.6899 75.6747 76.0717 79.5491 78.6605L80.6603 76.9976ZM66.4595 72.6899C59.6815 72.6927 53.1819 75.3865 48.3892 80.1792L49.8034 81.5934C54.2213 77.1755 60.2125 74.6925 66.4603 74.6899L66.4595 72.6899ZM48.3892 80.1792C43.5964 84.972 40.9027 91.4716 40.8999 98.2495L42.8999 98.2503C42.9024 92.0025 45.3855 86.0113 49.8034 81.5934L48.3892 80.1792Z" fill="#85BD4B" mask="url(#path-19-inside-10_39_37)"/>
<mask id="path-21-inside-11_39_37" fill="white">
<path d="M58.79 64.79C58.7861 69.6978 60.2378 74.4965 62.9616 78.5791C65.6853 82.6618 69.5587 85.8448 74.0918 87.7257C78.6249 89.6066 83.614 90.1008 88.428 89.1457C93.242 88.1907 97.6645 85.8293 101.136 82.3604C104.608 78.8914 106.973 74.4708 107.932 69.6576C108.891 64.8443 108.401 59.8549 106.523 55.3202C104.646 50.7856 101.466 46.9097 97.3858 44.1826C93.3054 41.4556 88.5079 40 83.6 40C80.3424 39.9987 77.1165 40.6392 74.1064 41.8849C71.0964 43.1306 68.3613 44.9572 66.0573 47.2602C63.7534 49.5632 61.9257 52.2976 60.6788 55.3071C59.4318 58.3167 58.79 61.5424 58.79 64.8"/>
</mask>
<path d="M58.79 64.79C58.7861 69.6978 60.2378 74.4965 62.9616 78.5791C65.6853 82.6618 69.5587 85.8448 74.0918 87.7257C78.6249 89.6066 83.614 90.1008 88.428 89.1457C93.242 88.1907 97.6645 85.8293 101.136 82.3604C104.608 78.8914 106.973 74.4708 107.932 69.6576C108.891 64.8443 108.401 59.8549 106.523 55.3202C104.646 50.7856 101.466 46.9097 97.3858 44.1826C93.3054 41.4556 88.5079 40 83.6 40C80.3424 39.9987 77.1165 40.6392 74.1064 41.8849C71.0964 43.1306 68.3613 44.9572 66.0573 47.2602C63.7534 49.5632 61.9257 52.2976 60.6788 55.3071C59.4318 58.3167 58.79 61.5424 58.79 64.8" fill="white"/>
<path d="M83.6 40L83.5996 41H83.6V40ZM57.79 64.7892C57.7859 69.8948 59.2962 74.887 62.1297 79.1341L63.7934 78.0242C61.1795 74.1061 59.7862 69.5008 59.79 64.7908L57.79 64.7892ZM62.1297 79.1341C64.9632 83.3813 68.9928 86.6927 73.7086 88.6494L74.475 86.8021C70.1247 84.997 66.4074 81.9422 63.7934 78.0242L62.1297 79.1341ZM73.7086 88.6494C78.4244 90.606 83.6145 91.1201 88.6226 90.1266L88.2334 88.1648C83.6134 89.0814 78.8254 88.6071 74.475 86.8021L73.7086 88.6494ZM88.6226 90.1266C93.6306 89.1331 98.2314 86.6765 101.843 83.0678L100.429 81.653C97.0977 84.9821 92.8533 87.2483 88.2334 88.1648L88.6226 90.1266ZM101.843 83.0678C105.455 79.459 107.915 74.8602 108.913 69.8529L106.951 69.4622C106.031 74.0814 103.761 78.3239 100.429 81.653L101.843 83.0678ZM108.913 69.8529C109.91 64.8457 109.4 59.6551 107.447 54.9378L105.599 55.7027C107.401 60.0546 107.871 64.843 106.951 69.4622L108.913 69.8529ZM107.447 54.9378C105.494 50.2204 102.186 46.1882 97.9415 43.3512L96.8302 45.014C100.746 47.6312 103.798 51.3509 105.599 55.7027L107.447 54.9378ZM97.9415 43.3512C93.6966 40.5143 88.7057 39 83.6 39V41C88.31 41 92.9142 42.3969 96.8302 45.014L97.9415 43.3512ZM83.6004 39C80.2115 38.9986 76.8554 39.665 73.724 40.9609L74.4888 42.8089C77.3775 41.6134 80.4734 40.9987 83.5996 41L83.6004 39ZM73.724 40.9609C70.5926 42.2569 67.7472 44.1571 65.3504 46.553L66.7643 47.9675C68.9754 45.7573 71.6002 44.0044 74.4888 42.8089L73.724 40.9609ZM65.3504 46.553C62.9535 48.9489 61.0522 51.7935 59.755 54.9244L61.6026 55.6899C62.7993 52.8017 64.5532 50.1776 66.7643 47.9675L65.3504 46.553ZM59.755 54.9244C58.4577 58.0552 57.79 61.411 57.79 64.8H59.79C59.79 61.6737 60.406 58.5781 61.6026 55.6899L59.755 54.9244Z" fill="#85BD4B" mask="url(#path-21-inside-11_39_37)"/>
</g>
<defs>
<clipPath id="clip0_39_37">
<rect width="198.56" height="232.82" fill="white"/>
</clipPath>
</defs>
</svg>
