<?xml version="1.0" encoding="utf-8"?>
<!-- Generator: Adobe Illustrator 24.3.0, SVG Export Plug-In . SVG Version: 6.00 Build 0)  -->
<svg version="1.1" id="Warstwa_1" xmlns="http://www.w3.org/2000/svg" xmlns:xlink="http://www.w3.org/1999/xlink" x="0px" y="0px"
	 viewBox="0 0 840 167" style="enable-background:new 0 0 840 167;" xml:space="preserve">
<style type="text/css">
	.st0{fill:#D50404;}
	.st1{fill:#2E3136;}
	.st2{fill:#990000;}
</style>
<g>
	<path class="st0" d="M156,141c-0.6,0.1-1.3,0.1-1.9,0.1c-9.2,0-18.4,0-27.6,0.1c-1.6,0-2.7-0.6-3.1-2c-1.4-4.2-3.3-8.1-4.8-12.2
		c-1.8-5-4.2-9.7-6-14.7c-1.9-5.3-4.1-10.5-6.3-15.8c-1.6-3.9-3.1-7.9-4.8-11.8c-1.2-2.8-2.3-5.6-3.3-8.5c-1-2.9-2.4-5.6-3.5-8.4
		c-2.2-5.5-4.5-10.9-6.7-16.4c-0.8-2.1-1.6-4.2-2.6-6.3c-0.4-1-0.9-1.8-1.8-3C73,68.2,63,94.3,52.3,120.5l-2.5,6l-16.5,40.1
		c-0.5,0.1-1,0.2-1.5,0.2c-10.2,0-20.5,0-30.7,0c-1.7,0-2.2-0.7-1.5-2.2c1.7-3.4,3.1-7,4.4-10.6c1.5-4,3.3-7.8,4.6-11.8
		c0.8-2.5,2.1-4.9,3-7.4c1.1-3,2.5-6,3.6-9c2-5.4,4.3-10.8,6.4-16.2c1.6-4.1,3.3-8.1,4.8-12.2c1-2.6,2.1-5.1,3.1-7.6
		c1.1-2.9,2.4-5.8,3.6-8.7c1.7-3.9,3.1-7.9,4.8-11.8c1.7-3.8,2.8-7.9,4.5-11.6c1.3-2.9,2.1-6,3.7-8.7c1-1.8,1.5-3.8,2.2-5.7
		c1.1-2.8,2.2-5.7,3.3-8.5c0.9-2.3,1.7-4.6,2.7-6.8c1.4-2.9,2.2-6,3.6-8.9c1-1.9,1.6-3.9,2.3-5.9c1.1-2.8,1.9-5.7,3.3-8.3
		c0.7-1.3,0.9-2.7,1.6-3.9c0.5-0.9,1-1.3,1.9-1.3c1.4,0,2.9,0,4.3,0c9.1,0,18.2,0,27.3,0c2.5,0,2.8,0.3,3.6,2.5
		c1.1,3.3,2.6,6.4,3.9,9.7c0.7,1.7,1.3,3.5,2,5.2c1.5,3.7,2.8,7.5,4.3,11.2c1.5,3.8,3.1,7.6,4.6,11.3c2.2,5.4,4.2,10.8,6.4,16.2
		c2.9,7,5.6,14.2,8.6,21.2c1.2,2.7,2.1,5.6,3.2,8.4c1.9,4.7,3.8,9.5,5.7,14.2c1.7,4.1,3.5,8.2,5,12.3c1.4,3.9,3.1,7.7,4.5,11.6
		c1,2.7,2.1,5.4,3.4,8.1c1.2,2.5,2,5.3,2.9,7.9C157.2,140.4,156.9,140.9,156,141z"/>
	<path class="st1" d="M504.5,63c-0.3,0.9-0.2,1.7-0.2,2.4c0,24.6,0,49.1,0,73.7c0,2.6,0,2.7-2.7,2.7c-7.4,0-14.9,0-22.3,0
		c-2.6,0-2.8-0.1-2.8-2.7c0-39.7,0-79.5,0-119.2c0-0.4,0-0.8,0-1.2c0-1,0.5-1.5,1.4-1.5c0.2,0,0.5,0,0.7,0c7.9,0,15.8,0,23.8,0
		c1.3,0,2.1,0.6,2.7,1.6c3.5,5.8,7.1,11.5,10.7,17.2c4,6.3,7.9,12.7,11.8,19.1c2.9,4.6,5.8,9.1,8.7,13.7c0.8,1.3,1.1,1.3,1.9,0
		c2.8-4.4,5.6-8.8,8.4-13.3c3.2-5.2,6.4-10.4,9.7-15.6c3.7-5.9,7.3-11.8,11.2-17.7c0.8-1.2,1.3-2.5,2.2-3.6c0.6-0.8,1.1-1.2,2.1-1.2
		c8.2,0,16.3,0,24.5,0c1.7,0,1.9,0.3,2,2c0,1.8,0,3.5,0,5.3c0,37.8,0,75.7,0,113.5c0,3.3,0,3.3-3.3,3.3c-7,0-14.1,0-21.1,0
		c-0.6,0-1.3,0-1.9,0c-1.2,0-1.8-0.5-1.7-1.7c0-0.6,0-1.1,0-1.7c0-24,0-48,0-72c0-1,0.2-2-0.3-3.1c-4.1,5.8-7.6,11.8-11.5,17.5
		c-3.7,5.4-7.2,11-10.7,16.6c-1,1.5-2,2.2-3.8,2.1c-4.2-0.1-8.3-0.1-12.5,0c-2.1,0.1-3.2-0.6-4.3-2.4c-4.9-7.3-9.6-14.8-14.5-22.1
		c-2.5-3.7-4.9-7.4-7.2-11.2C505.1,63.2,505,63,504.5,63z"/>
	<path class="st1" d="M767.6,68.7c-0.5,1.3-0.3,2.2-0.3,3.1c0,22.2,0,44.5,0,66.7c0,0.2,0,0.5,0,0.7c0,2.1-0.1,2.1-2.2,2.1
		c-7.8,0-15.5,0-23.3,0c-1.8,0-2-0.2-2.1-2.1c0-3.8,0-7.7,0-11.5c0-35.9,0-71.8,0-107.7c0-0.4,0-0.8,0-1.2c0-1.1,0.6-1.6,1.7-1.6
		c1.2,0,2.4,0,3.6,0c6.3,0,12.6,0.2,18.9-0.1c2.7-0.1,4.2,1,5.3,3c2.6,5,5.9,9.5,8.8,14.3c2.8,4.5,5.5,9.1,8.2,13.6
		c2.6,4.3,5.3,8.5,7.9,12.7c3.4,5.5,6.7,10.9,10.1,16.4c1.9,3.1,3.8,6.3,5.7,9.4c0.5,0.8,1.1,1.6,1.7,2.4c0.7-0.8,0.4-1.7,0.4-2.5
		c0-22.3,0-44.6,0-66.9c0-2.1,0-2.2,2.1-2.2c7.8,0,15.5,0,23.3,0c2.6,0,2.6,0,2.6,2.6c0,38.2,0,76.5,0,114.7c0,1.5,0,3,0,4.6
		c0,2-0.1,2-2,2c-6.1,0-12.2,0-18.2,0c-2,0-4,0-6,0c-0.9,0-1.4-0.2-1.9-1.1c-5.2-8.5-10.6-17-15.8-25.6c-4.1-6.6-8.1-13.2-12.1-19.8
		c-3.8-6.1-7.6-12.2-11.4-18.3C771,74.1,769.4,71.6,767.6,68.7z"/>
	<path class="st1" d="M195.8,78.5c-0.6,1-0.4,1.9-0.4,2.7c0,19.1,0,38.2,0,57.3c0,0.3,0,0.6,0,1c-0.1,1.7-0.1,1.8-1.7,1.8
		c-7.9,0-15.8,0-23.8,0c-1.7,0-1.7-0.1-1.7-1.8c0-3.3,0-6.6,0-9.8c0-36.5,0-72.9,0-109.4c0-0.2,0-0.5,0-0.7c0-2,0-2,2.2-2
		c16.6,0,33.3,0,49.9,0c4.6,0,9.3-0.3,13.9,0.2c6.5,0.7,12.4,2.7,17.8,6.6c5.6,4.1,9.5,9.4,12.1,15.7c0.8,1.8,1.2,3.9,1.7,5.9
		c1.1,5,1.2,10,1.1,15c-0.1,3.8-0.5,7.7-1.5,11.3c-2.6,9.1-7.6,16.5-16.3,20.9c-1.8,0.9-3.6,1.5-5.4,2.4c-1.7,0.8-1.7,0.8-0.7,2.5
		c1.1,1.9,2.2,3.8,3.4,5.6c2.2,3.3,4.2,6.7,6.3,10.2c2.4,4,4.9,7.8,7.4,11.7c2.5,4.1,5,8.2,7.5,12.3c0.4,0.7,0.8,1.3,1.2,2
		c0.5,0.9,0.1,1.3-0.8,1.5c-0.5,0.1-1,0.1-1.4,0.1c-9.3,0-18.6-0.1-27.8,0.1c-2.1,0-3.3-0.9-4.3-2.4c-5.7-9.1-11.3-18.4-17.1-27.4
		c-3.2-5-6.5-9.9-9.6-15c-3.4-5.6-7.2-11-10.4-16.8C196.8,79.2,196.2,79,195.8,78.5z M213.1,71.6C213.1,71.6,213.1,71.6,213.1,71.6
		c4.6,0,9.3,0,13.9,0c6.9,0,10.2-4.8,11.1-10c0.6-3.3,0.4-6.7-0.9-10.1c-1.4-4-5.7-7.3-9.9-7.3c-9.8,0-19.7,0-29.5,0
		c-2.2,0-2.4,0.2-2.4,2.5c0,7.4,0,14.7,0,22.1c0,2.6,0.2,2.7,2.7,2.8C203.2,71.6,208.1,71.6,213.1,71.6z"/>
	<path class="st1" d="M668.9,17.6c4.3,0,8.6,0,13,0c2.6,0,2.6,0,3.6,2.5c2.2,5.2,4.3,10.5,6.4,15.7c2,5,4,10,6,15.1
		c1.5,3.7,2.8,7.5,4.4,11.2c1.2,3,2.3,6.1,3.7,9c1.2,2.6,2.1,5.4,3.2,8.1c2.2,5.4,4.4,10.8,6.4,16.2c1.5,4.1,3.4,8.1,4.8,12.3
		c1.2,3.6,3.2,7,4.4,10.6c1.3,3.9,3.1,7.6,4.6,11.5c1.1,2.9,2,6,3.6,8.7c0.1,0.2,0.1,0.5,0.2,0.7c0.6,2,0.3,2.4-1.8,2.4
		c-4.8,0-9.6,0-14.4,0c-3.5,0-7,0-10.5,0.1c-1.4,0.1-1.9-0.7-2.3-1.7c-1.1-2.5-2.2-5-3.1-7.6c-1-3-2.4-5.8-3.5-8.7
		c-0.4-0.9-0.7-1.9-1.1-2.9c-0.6-1.5-1.4-1.8-2.9-1.8c-7,0.1-14.1,0-21.1,0c-8.9,0-17.8,0-26.6,0c-1.6,0-2.5,0.4-3,1.9
		c-0.8,2.2-1.7,4.2-2.6,6.4c-1.2,2.9-2.5,5.9-3.7,8.8c-0.5,1.2-0.9,2.5-1.4,3.8c-0.4,1.1-1,1.8-2.4,1.8c-8.4-0.1-16.8-0.1-25.2,0
		c-3.6,0-3.4-0.3-2.3-3.4c1.2-3.3,2.5-6.5,3.9-9.7c1.6-3.7,3.1-7.4,4.5-11.1c1.4-3.9,3-7.7,4.5-11.6c1.1-2.9,2.1-5.8,3.6-8.5
		c1-2,1.6-4.3,2.4-6.4c2.5-6.3,5.1-12.5,7.5-18.8c1.5-3.9,3-7.8,4.6-11.7c2.4-5.8,4.6-11.7,7-17.5c1.7-4.2,3.4-8.3,5-12.6
		c1.5-4,3.3-7.9,4.7-12c0.3-1,1.1-0.8,1.7-0.8c3.9,0,7.8,0,11.8,0C667.3,17.6,668.1,17.6,668.9,17.6z M669.9,55.1
		c-1,0.6-1.2,1.3-1.5,2.1c-0.9,2.3-1.9,4.7-2.8,7c-1.8,4.4-3.6,8.9-5.3,13.3c-0.8,2-1.4,4.2-2.4,6.2c-1,2.2-1.9,4.4-2.7,6.6
		c-0.5,1.5-0.4,1.6,1.2,1.6c8.8,0,17.6,0,26.4,0c1.5,0,1.6-0.2,1.3-1.7c-0.1-0.3-0.1-0.6-0.3-0.9c-1.5-3.5-3-7-4.4-10.5
		c-1.4-3.4-2.9-6.8-4.2-10.2C673.6,64.2,671.5,59.9,669.9,55.1z"/>
	<path class="st1" d="M467.3,79.4c0,19.7,0,39.3,0,59c0,3.3,0,3.3-3.4,3.3c-7.1,0-14.2,0-21.4,0c-0.6,0-1.1,0-1.7,0
		c-0.8-0.1-1.3-0.5-1.4-1.4c0-0.6,0-1.1,0-1.7c0-15,0-30.1,0-45.1c0-0.3,0-0.6,0-1c-0.1-1.7-0.2-1.9-2-1.9c-11.8,0-23.5,0-35.3,0
		c-2,0-2,0-2,2.2c0,8.2,0,16.5,0,24.7c0,7,0,14.1,0,21.1c0,2.7-0.3,2.9-2.8,2.9c-7.4,0-14.9,0-22.3,0c-0.4,0-0.8,0-1.2,0
		c-1.1,0-1.5-0.6-1.5-1.7c0.1-1.2,0-2.4,0-3.6c0-38.6,0-77.2,0-115.9c0-3,0-3,3-3c7.3,0,14.6,0,21.8,0c0.6,0,1.3,0,1.9,0.1
		c0.7,0.1,1.1,0.5,1.1,1.3c0,1,0,1.9,0,2.9c0,13.5,0,27,0,40.5c0,0.4,0,0.8,0,1.2c0,0.8,0.3,1.3,1.3,1.3c1.5-0.1,3,0,4.6,0
		c10.2,0,20.3,0,30.5,0c0.6,0,1.3,0,1.9,0c0.6,0,0.9-0.3,0.9-0.8c0.1-0.7,0.1-1.4,0.1-2.2c0-13.8,0-27.5,0-41.3c0-0.6,0-1.1,0-1.7
		c0-0.8,0.4-1.2,1.2-1.2c0.5,0,1,0,1.4,0c7.5,0,15,0,22.6,0c0.4,0,0.8,0,1.2,0c1,0,1.5,0.4,1.4,1.4c0,0.4,0,0.8,0,1.2
		C467.3,39.9,467.3,59.6,467.3,79.4C467.3,79.4,467.3,79.4,467.3,79.4z"/>
	<path class="st1" d="M339.1,141.4c-6.6,0-13.3,0.1-19.9,0c-5.2-0.1-10.2-1.2-15.1-3.1c-4.3-1.6-8.3-3.6-12-6.3
		c-2.8-2-5.2-4.3-7.3-6.9c-3.3-4-5.9-8.3-7.7-13.3c-1.1-3.1-2-6.1-2.9-9.3c-2.6-10-2.9-20.1-2.3-30.4c0.2-3.9,0.7-7.8,1.4-11.6
		c0.6-3,1.5-6,2.4-8.9c1.3-4.4,3.3-8.5,5.8-12.3c2.3-3.6,5.2-6.8,8.5-9.5c4.2-3.4,8.8-6.1,13.9-8c7.6-3,15.3-4.6,23.5-4.5
		c10.8,0.1,21.6,0,32.4,0c0.6,0,1.1,0,1.7,0c0.6,0,0.9,0.4,0.9,0.9c0,0.5,0,1,0,1.4c0,7.4,0,14.9,0,22.3c0,2,0,2-2.1,2
		c-12.8,0-25.6,0-38.4,0.2c-5.8,0.1-10.5,2.8-14.2,7.3c-3,3.7-4.5,8-5.6,12.6c-1.6,6.9-2.2,13.9-1.6,20.9c0.4,5.2,1,10.5,2.8,15.4
		c1.2,3.4,2.7,6.7,5.4,9.3c3.4,3.3,7.5,5.2,12.3,5.2c13,0,25.9,0,38.9,0c0.5,0,1,0,1.4,0c0.7,0,1,0.3,1,1c0,0.4,0,0.8,0,1.2
		c0,7.4,0,14.7,0,22.1c0,2.3,0,2.3-2.2,2.3C353.2,141.4,346.1,141.4,339.1,141.4C339.1,141.4,339.1,141.4,339.1,141.4z"/>
	<path class="st2" d="M98.5,115.3c-0.8,1.4-1.9,2.1-3,3c-4.7,3.6-9.5,7-14,10.8c-2.7,2.2-5.4,4.4-8.2,6.6
		c-4.9,3.8-9.7,7.6-14.7,11.3c-2.8,2.1-5.5,4.4-8.3,6.6c-2.3,1.8-4.5,3.8-7,5.3c-1.5,1-2.8,2.2-4.2,3.4c-1.4,1.2-3.1,2.2-4.5,3.5
		c-0.4,0.4-0.9,0.7-1.4,0.8l16.5-40.1c1.4-0.2,1.9-0.8,2.5-1.2c4-3.1,8-6.2,12-9.3c0.8-0.6,1.6-0.9,2.6-0.9c10.2,0,20.5,0,30.7,0
		C97.8,115.1,98.1,115.2,98.5,115.3z"/>
</g>
</svg>
